SplineFontDB: 3.2
FontName: SeriousShannsLightItalic
FullName: Serious Shanns Light Italic
FamilyName: Serious Shanns
Weight: Light
Copyright: https://github.com/kaBeech/serious-sans/blob/main/LICENSE
Version: 6.0.0
ItalicAngle: -11.8
UnderlinePosition: 0
UnderlineWidth: 0
Ascent: 800
Descent: 200
InvalidEm: 0
sfntRevision: 0x00001999
LayerCount: 2
Layer: 0 0 "Back" 1
Layer: 1 0 "Fore" 0
XUID: [1021 329 -1817886000 6804199]
StyleMap: 0x0040
FSType: 0
OS2Version: 3
OS2_WeightWidthSlopeOnly: 0
OS2_UseTypoMetrics: 0
CreationTime: 1532631502
ModificationTime: 315532800
PfmFamily: 49
TTFWeight: 300
TTFWidth: 5
LineGap: 0
VLineGap: 0
Panose: 0 0 0 0 0 0 0 0 0 0
OS2TypoAscent: 613
OS2TypoAOffset: 0
OS2TypoDescent: -188
OS2TypoDOffset: 0
OS2TypoLinegap: 98
OS2WinAscent: 778
OS2WinAOffset: 0
OS2WinDescent: 308
OS2WinDOffset: 0
HheadAscent: 796
HheadAOffset: 0
HheadDescent: -317
HheadDOffset: 0
OS2SubXSize: 317
OS2SubYSize: 293
OS2SubXOff: 0
OS2SubYOff: 37
OS2SupXSize: 317
OS2SupYSize: 293
OS2SupXOff: 0
OS2SupYOff: 171
OS2StrikeYSize: 0
OS2StrikeYPos: 132
OS2CapHeight: 576
OS2XHeight: 485
OS2Vendor: 'NONE'
OS2CodePages: 00000001.00000000
OS2UnicodeRanges: 00000001.00000000.00000000.00000000
MarkAttachClasses: 1
DEI: 91125
LangName: 1033 "" "" "Normal" "FontForge 2.0 : Serious Shanns Light Italic : 11-6-2024" "" "Version 0.1.2"
Encoding: UnicodeBmp
Compacted: 1
UnicodeInterp: none
NameList: AGL For New Fonts
DisplaySize: -48
AntiAlias: 1
FitToEm: 0
WinInfo: 32 16 6
BeginPrivate: 8
BlueValues 32 [-39 -6 490 521 685 718 765 769]
OtherBlues 11 [-304 -292]
BlueScale 9 0.0291667
BlueShift 1 3
StdHW 4 [67]
StdVW 4 [65]
StemSnapH 23 [61 62 63 65 67 94 130]
StemSnapV 14 [40 58 65 125]
EndPrivate
BeginChars: 65537 124

StartChar: .notdef
Encoding: 65536 -1 0
Width: 550
VWidth: 886
GlyphClass: 1
Flags: HMW
HStem: 620.95 17G<279.447 553.997 279.447 279.447>
LayerCount: 2
Fore
SplineSet
264.147460938 662.599609375 m 1
 581.197265625 662.599609375 l 1
 386.546875 -180.599609375 l 1
 69.498046875 -180.599609375 l 1
 264.147460938 662.599609375 l 1
553.998046875 637.950195312 m 1
 279.447265625 637.950195312 l 1
 95.84765625 -155.950195312 l 1
 371.248046875 -155.950195312 l 1
 553.998046875 637.950195312 l 1
EndSplineSet
Validated: 524289
EndChar

StartChar: exclam
Encoding: 33 33 11
Width: 550
VWidth: 907
GlyphClass: 2
Flags: HMW
HStem: 46.25 110.5<269.36 322.91>
VStem: 240.885 111.35<80.675 125.725>
LayerCount: 2
Fore
SplineSet
369.235351562 290.200195312 m 0
 365.834960938 280 360.735351562 272.349609375 353.084960938 267.25 c 0
 345.434570312 262.150390625 338.634765625 258.75 330.985351562 258.75 c 2
 328.434570312 258.75 l 2
 320.78515625 258.75 315.684570312 261.299804688 313.134765625 265.549804688 c 0
 311.434570312 267.25 310.584960938 269.799804688 310.584960938 273.200195312 c 0
 310.584960938 276.599609375 311.434570312 281.700195312 313.134765625 288.5 c 0
 315.684570312 296.150390625 318.235351562 303.799804688 321.634765625 312.299804688 c 0
 325.03515625 320.799804688 327.584960938 327.599609375 329.28515625 333.549804688 c 0
 330.985351562 339.5 333.53515625 352.25 338.634765625 372.650390625 c 0
 343.735351562 393.049804688 348.834960938 416.849609375 353.934570312 443.200195312 c 0
 359.03515625 469.549804688 364.134765625 495.049804688 370.084960938 519.700195312 c 0
 376.03515625 544.349609375 380.28515625 561.349609375 381.985351562 569.849609375 c 0
 383.684570312 578.349609375 388.78515625 596.200195312 396.434570312 625.099609375 c 0
 404.084960938 654 408.334960938 672.700195312 410.03515625 679.5 c 0
 413.434570312 692.25 419.384765625 702.450195312 426.184570312 708.400390625 c 0
 432.985351562 714.349609375 441.485351562 717.75 449.985351562 717.75 c 2
 452.53515625 717.75 l 2
 459.334960938 717.75 464.434570312 716.049804688 466.985351562 712.650390625 c 0
 468.684570312 710.950195312 469.53515625 706.700195312 469.53515625 702.450195312 c 0
 469.53515625 698.200195312 467.834960938 693.099609375 466.985351562 688 c 0
 466.134765625 682.900390625 455.934570312 644.650390625 438.084960938 574.950195312 c 0
 420.235351562 505.25 406.634765625 450 397.28515625 406.650390625 c 0
 387.934570312 363.299804688 381.985351562 337.799804688 379.434570312 329.299804688 c 0
 376.884765625 320.799804688 372.634765625 308.049804688 369.235351562 290.200195312 c 0
352.235351562 121.049804688 m 0
 352.235351562 116.799804688 351.384765625 111.700195312 350.53515625 105.75 c 0
 347.134765625 90.4501953125 340.334960938 77.7001953125 327.584960938 66.650390625 c 0
 314.834960938 55.599609375 299.53515625 48.7998046875 281.684570312 47.099609375 c 0
 279.985351562 47.099609375 277.434570312 46.25 275.735351562 46.25 c 0
 262.985351562 46.25 253.634765625 51.349609375 247.684570312 59.849609375 c 0
 242.584960938 67.5 240.884765625 76 240.884765625 85.349609375 c 0
 240.884765625 89.599609375 241.735351562 94.7001953125 242.584960938 100.650390625 c 0
 246.834960938 115.099609375 254.485351562 127.849609375 268.934570312 138.900390625 c 0
 285.084960938 150.799804688 300.384765625 156.75 316.53515625 156.75 c 0
 329.28515625 156.75 340.334960938 152.5 346.28515625 144 c 0
 350.53515625 138.049804688 352.235351562 130.400390625 352.235351562 121.049804688 c 0
EndSplineSet
Validated: 524289
EndChar

StartChar: quotedbl
Encoding: 34 34 12
Width: 550
VWidth: 941
GlyphClass: 2
Flags: HMW
HStem: 472.225 274.55<299.664 374.889 303.489 374.889 369.789 430.139 369.789 430.989>
LayerCount: 2
Fore
SplineSet
374.888671875 746.775390625 m 2
 381.688476562 746.775390625 387.638671875 745.075195312 392.739257812 741.674804688 c 0
 393.588867188 739.974609375 395.2890625 737.424804688 396.138671875 734.025390625 c 0
 396.989257812 730.625 396.989257812 727.224609375 396.138671875 721.275390625 c 0
 391.0390625 698.325195312 381.688476562 660.075195312 368.088867188 607.375 c 0
 354.489257812 554.674804688 345.138671875 518.125 338.338867188 498.575195312 c 0
 334.938476562 489.224609375 329.838867188 483.275390625 323.0390625 479.025390625 c 0
 316.239257812 474.775390625 310.2890625 472.224609375 304.338867188 472.224609375 c 2
 303.489257812 472.224609375 l 2
 295.838867188 472.224609375 289.0390625 475.625 283.938476562 479.875 c 0
 282.239257812 481.575195312 280.5390625 484.125 280.5390625 487.525390625 c 0
 280.5390625 490.924804688 281.388671875 494.325195312 282.239257812 497.724609375 c 0
 291.588867188 526.625 300.938476562 564.025390625 310.2890625 609.075195312 c 0
 319.638671875 654.125 327.2890625 691.525390625 333.239257812 721.275390625 c 0
 334.088867188 727.224609375 336.638671875 731.474609375 339.188476562 734.875 c 0
 341.739257812 739.125 345.138671875 741.674804688 348.5390625 742.525390625 c 0
 356.188476562 745.075195312 363.838867188 746.775390625 369.7890625 746.775390625 c 2
 374.888671875 746.775390625 l 2
495.588867188 607.375 m 0
 482.838867188 554.674804688 472.638671875 518.125 465.838867188 498.575195312 c 0
 462.438476562 489.224609375 457.338867188 483.275390625 450.5390625 479.025390625 c 0
 443.739257812 474.775390625 436.938476562 472.224609375 430.989257812 472.224609375 c 2
 430.138671875 472.224609375 l 2
 422.489257812 472.224609375 415.688476562 475.625 410.588867188 479.875 c 0
 408.888671875 481.575195312 408.0390625 484.974609375 408.0390625 487.525390625 c 0
 408.0390625 490.075195312 408.888671875 493.474609375 409.739257812 497.724609375 c 0
 418.239257812 526.625 427.588867188 564.025390625 436.938476562 609.075195312 c 0
 446.2890625 654.125 453.938476562 691.525390625 459.888671875 721.275390625 c 0
 460.739257812 727.224609375 463.2890625 731.474609375 466.688476562 734.875 c 0
 470.088867188 738.275390625 472.638671875 741.674804688 476.0390625 742.525390625 c 0
 483.688476562 745.075195312 490.489257812 746.775390625 496.438476562 746.775390625 c 2
 501.5390625 746.775390625 l 2
 505.7890625 746.775390625 509.188476562 746.775390625 511.739257812 745.924804688 c 0
 514.2890625 745.075195312 517.688476562 743.375 520.239257812 741.674804688 c 0
 522.7890625 739.974609375 523.638671875 735.724609375 523.638671875 729.775390625 c 0
 523.638671875 722.974609375 514.2890625 682.174804688 495.588867188 607.375 c 0
EndSplineSet
Validated: 524289
EndChar

StartChar: numbersign
Encoding: 35 35 13
Width: 550
VWidth: 904
GlyphClass: 2
Flags: HMW
HStem: 228.4 48.45<438.017 470.317 418.467 486.467> 442.6 51<353.867 447.367 333.467 467.767 353.867 539.167 353.867 502.617>
LayerCount: 2
Fore
SplineSet
251.8671875 226.700195312 m 1
 244.217773438 226.700195312 l 1
 217.017578125 161.25 198.317382812 117.049804688 188.1171875 94.099609375 c 0
 182.16796875 84.75 174.517578125 76.25 163.467773438 69.4501953125 c 0
 155.817382812 65.2001953125 149.017578125 62.650390625 143.91796875 62.650390625 c 0
 142.217773438 62.650390625 138.817382812 63.5 137.1171875 64.349609375 c 0
 133.717773438 64.349609375 132.017578125 66.0498046875 131.16796875 67.75 c 0
 129.467773438 71.150390625 127.767578125 76.25 127.767578125 83.0498046875 c 0
 127.767578125 91.5498046875 129.467773438 100.900390625 134.567382812 111.099609375 c 0
 142.217773438 127.25 160.91796875 165.5 187.267578125 225.849609375 c 1
 147.317382812 225.849609375 l 2
 137.1171875 225.849609375 130.317382812 227.549804688 126.91796875 230.950195312 c 0
 125.217773438 232.650390625 122.66796875 236.049804688 122.66796875 238.599609375 c 0
 122.66796875 239.450195312 123.517578125 242 123.517578125 243.700195312 c 0
 125.217773438 251.349609375 129.467773438 259 135.41796875 264.099609375 c 0
 141.3671875 269.200195312 151.567382812 272.599609375 162.6171875 272.599609375 c 0
 166.8671875 272.599609375 172.817382812 273.450195312 181.317382812 273.450195312 c 0
 189.817382812 273.450195312 197.467773438 275.150390625 206.817382812 275.150390625 c 1
 276.517578125 441.75 l 1
 260.3671875 441.75 l 1
 228.067382812 440.900390625 l 1
 224.66796875 440.900390625 l 2
 216.16796875 440.900390625 210.217773438 442.599609375 207.66796875 446 c 0
 205.967773438 448.549804688 205.1171875 451.950195312 205.1171875 456.200195312 c 2
 205.1171875 462.150390625 l 2
 205.967773438 469.799804688 210.217773438 476.599609375 217.017578125 481.700195312 c 0
 223.817382812 486.799804688 232.317382812 491.049804688 243.3671875 491.049804688 c 2
 244.217773438 491.049804688 l 2
 254.41796875 491.049804688 270.567382812 491.900390625 290.967773438 491.900390625 c 2
 296.91796875 491.900390625 l 1
 353.017578125 629.599609375 l 2
 358.967773438 642.349609375 367.467773438 650.849609375 375.1171875 655.099609375 c 0
 381.067382812 657.650390625 385.317382812 659.349609375 389.567382812 659.349609375 c 0
 391.267578125 659.349609375 395.517578125 658.5 397.217773438 658.5 c 0
 404.8671875 656.799804688 409.967773438 653.400390625 411.66796875 647.450195312 c 0
 412.517578125 645.75 413.3671875 642.349609375 413.3671875 639.799804688 c 0
 413.3671875 634.700195312 410.817382812 627.900390625 407.41796875 620.25 c 2
 353.8671875 493.599609375 l 1
 467.767578125 493.599609375 l 1
 519.6171875 623.650390625 l 2
 525.567382812 636.400390625 532.3671875 644.900390625 540.8671875 649.150390625 c 0
 545.967773438 651.700195312 551.067382812 653.400390625 556.16796875 653.400390625 c 0
 557.8671875 653.400390625 560.41796875 652.549804688 562.967773438 652.549804688 c 0
 570.6171875 650.849609375 576.567382812 647.450195312 578.267578125 641.5 c 0
 578.267578125 639.799804688 579.1171875 637.25 579.1171875 635.549804688 c 0
 579.1171875 629.599609375 578.267578125 622.799804688 574.017578125 614.299804688 c 0
 562.967773438 592.200195312 545.967773438 552.25 523.8671875 495.299804688 c 1
 540.017578125 495.299804688 l 1
 548.517578125 495.299804688 l 2
 557.8671875 495.299804688 566.3671875 491.900390625 570.6171875 486.799804688 c 0
 574.8671875 482.549804688 576.567382812 479.150390625 576.567382812 474.900390625 c 0
 576.567382812 474.049804688 575.717773438 472.349609375 575.717773438 471.5 c 0
 574.017578125 463.849609375 568.91796875 456.200195312 562.967773438 451.099609375 c 0
 557.017578125 446 549.3671875 442.599609375 539.16796875 442.599609375 c 2
 502.6171875 442.599609375 l 1
 438.017578125 276.849609375 l 1
 486.467773438 276.849609375 l 2
 494.967773438 276.849609375 500.067382812 275.150390625 500.91796875 273.450195312 c 0
 502.6171875 270.049804688 503.467773438 264.950195312 502.6171875 257.299804688 c 0
 500.91796875 247.950195312 495.817382812 240.299804688 491.567382812 236.049804688 c 0
 486.467773438 230.950195312 479.66796875 228.400390625 470.317382812 228.400390625 c 2
 418.467773438 228.400390625 l 1
 392.1171875 159.549804688 374.267578125 113.650390625 364.067382812 90.7001953125 c 0
 358.1171875 80.5 349.6171875 72.849609375 339.41796875 67.75 c 0
 332.6171875 64.349609375 326.66796875 62.650390625 321.567382812 62.650390625 c 0
 319.8671875 62.650390625 315.6171875 63.5 313.067382812 64.349609375 c 0
 307.967773438 65.2001953125 305.41796875 69.4501953125 304.567382812 75.400390625 c 0
 304.567382812 77.9501953125 303.717773438 81.349609375 303.717773438 83.0498046875 c 0
 303.717773438 90.7001953125 306.267578125 98.349609375 310.517578125 107.700195312 c 0
 321.567382812 130.650390625 338.567382812 170.599609375 361.517578125 227.549804688 c 1
 345.3671875 227.549804688 l 1
 251.8671875 226.700195312 l 1
447.3671875 442.599609375 m 1
 333.467773438 442.599609375 l 1
 263.767578125 276 l 1
 296.067382812 276.849609375 333.467773438 277.700195312 374.267578125 277.700195312 c 2
 381.067382812 277.700195312 l 1
 402.317382812 328.700195312 424.41796875 383.099609375 447.3671875 442.599609375 c 1
EndSplineSet
Validated: 524289
EndChar

StartChar: dollar
Encoding: 36 36 14
Width: 550
VWidth: 901
GlyphClass: 2
Flags: HMW
HStem: 36.775 51<238.822 267.722 247.322 267.722 250.722 267.722>
VStem: 220.972 53.55 447.072 58.65<250.975 295.175>
LayerCount: 2
Fore
SplineSet
201.421875 44.4248046875 m 0
 186.971679688 49.525390625 175.921875 54.625 166.571289062 62.275390625 c 0
 148.721679688 77.5751953125 136.821289062 95.4248046875 130.872070312 115.825195312 c 0
 130.021484375 120.924804688 129.171875 126.875 129.171875 131.974609375 c 0
 129.171875 137.075195312 130.872070312 142.174804688 132.571289062 146.424804688 c 0
 135.971679688 154.075195312 141.071289062 159.174804688 148.721679688 162.575195312 c 0
 154.671875 165.125 159.771484375 167.674804688 162.321289062 167.674804688 c 0
 164.872070312 167.674804688 168.271484375 168.525390625 169.122070312 168.525390625 c 2
 173.372070312 168.525390625 l 2
 174.221679688 168.525390625 175.921875 165.974609375 177.622070312 164.275390625 c 0
 179.321289062 162.575195312 182.721679688 157.474609375 185.271484375 151.525390625 c 0
 192.921875 132.825195312 202.271484375 116.674804688 215.021484375 105.625 c 0
 227.771484375 93.724609375 244.771484375 87.775390625 266.021484375 87.775390625 c 2
 267.721679688 87.775390625 l 1
 274.521484375 87.775390625 l 1
 297.471679688 188.075195312 317.021484375 279.025390625 334.021484375 361.474609375 c 1
 324.671875 362.325195312 317.021484375 364.025390625 311.921875 364.875 c 0
 306.821289062 365.724609375 301.721679688 366.575195312 298.321289062 366.575195312 c 0
 283.021484375 368.275390625 270.271484375 372.525390625 259.221679688 380.174804688 c 0
 248.171875 387.825195312 239.671875 396.325195312 233.721679688 407.375 c 0
 225.221679688 423.525390625 220.971679688 440.525390625 220.971679688 459.224609375 c 0
 220.971679688 465.174804688 221.821289062 471.125 223.521484375 478.775390625 c 0
 227.771484375 498.325195312 234.571289062 517.025390625 243.921875 534.875 c 0
 252.421875 552.724609375 263.471679688 569.724609375 277.071289062 585.025390625 c 0
 290.671875 600.325195312 307.671875 613.075195312 326.372070312 624.125 c 0
 345.071289062 635.174804688 366.321289062 643.674804688 389.271484375 647.924804688 c 2
 395.221679688 649.625 l 1
 399.471679688 667.474609375 404.571289062 686.174804688 408.821289062 704.875 c 0
 411.372070312 717.625 415.622070312 726.974609375 420.721679688 733.775390625 c 0
 425.821289062 740.575195312 430.921875 743.974609375 438.571289062 743.974609375 c 2
 440.271484375 743.974609375 l 2
 446.221679688 743.974609375 450.471679688 743.125 452.171875 740.575195312 c 0
 453.872070312 738.025390625 454.721679688 733.775390625 454.721679688 728.674804688 c 0
 454.721679688 723.575195312 453.021484375 718.474609375 452.171875 712.525390625 c 2
 440.271484375 655.575195312 l 1
 451.321289062 654.724609375 l 2
 462.372070312 654.724609375 477.671875 651.325195312 496.372070312 646.224609375 c 0
 515.071289062 641.125 528.671875 636.875 538.021484375 632.625 c 0
 543.971679688 630.075195312 548.221679688 625.825195312 549.921875 620.724609375 c 0
 549.921875 619.025390625 550.771484375 615.625 550.771484375 612.224609375 c 0
 550.771484375 608.825195312 549.071289062 604.575195312 547.372070312 598.625 c 0
 546.521484375 594.375 544.821289062 590.125 541.421875 587.575195312 c 0
 538.021484375 585.025390625 534.622070312 583.325195312 532.071289062 583.325195312 c 2
 524.421875 583.325195312 l 2
 519.321289062 583.325195312 514.221679688 584.174804688 509.122070312 585.875 c 0
 504.872070312 586.724609375 499.771484375 590.125 493.821289062 593.525390625 c 0
 487.872070312 596.924804688 480.221679688 600.325195312 470.872070312 602.875 c 0
 461.521484375 605.424804688 449.622070312 607.974609375 436.872070312 607.974609375 c 2
 429.221679688 608.825195312 l 1
 418.171875 557.825195312 402.872070312 491.525390625 385.021484375 409.075195312 c 1
 395.221679688 407.375 l 2
 415.622070312 403.974609375 432.622070312 398.025390625 447.071289062 390.375 c 0
 462.372070312 381.875 473.421875 372.525390625 481.921875 362.325195312 c 0
 490.421875 352.125 496.372070312 341.075195312 499.771484375 328.325195312 c 0
 503.171875 315.575195312 505.721679688 301.974609375 505.721679688 288.375 c 0
 505.721679688 274.775390625 504.021484375 261.174804688 499.771484375 244.174804688 c 0
 493.821289062 219.525390625 485.321289062 195.724609375 471.721679688 173.625 c 0
 458.122070312 151.525390625 443.671875 132.825195312 426.671875 115.825195312 c 0
 409.671875 98.8251953125 391.821289062 85.224609375 372.271484375 73.3251953125 c 0
 352.721679688 61.4248046875 332.321289062 52.0751953125 311.071289062 46.125 c 2
 305.971679688 44.4248046875 l 1
 298.321289062 7.025390625 293.221679688 -18.474609375 291.521484375 -30.375 c 0
 288.122070312 -39.724609375 283.021484375 -48.224609375 276.221679688 -53.3251953125 c 0
 269.421875 -58.4248046875 262.622070312 -60.974609375 254.971679688 -60.974609375 c 2
 254.122070312 -60.974609375 l 2
 252.421875 -60.974609375 249.872070312 -60.125 248.171875 -60.125 c 0
 245.622070312 -58.4248046875 243.921875 -55.025390625 243.921875 -49.0751953125 c 0
 243.921875 -44.8251953125 244.771484375 -38.875 246.471679688 -31.224609375 c 0
 250.721679688 -17.625 255.821289062 5.3251953125 262.622070312 36.775390625 c 1
 250.721679688 36.775390625 l 1
 247.321289062 36.775390625 l 2
 230.321289062 36.775390625 215.872070312 39.3251953125 201.421875 44.4248046875 c 0
286.421875 449.025390625 m 0
 297.471679688 433.724609375 313.622070312 422.674804688 335.721679688 415.875 c 2
 345.071289062 413.325195312 l 1
 355.271484375 459.224609375 368.872070312 522.974609375 385.872070312 604.575195312 c 1
 370.571289062 599.474609375 l 2
 346.771484375 591.825195312 326.372070312 580.775390625 309.372070312 563.775390625 c 0
 292.372070312 546.775390625 281.321289062 527.224609375 277.071289062 504.275390625 c 0
 275.372070312 498.325195312 274.521484375 493.224609375 274.521484375 487.275390625 c 0
 274.521484375 472.825195312 278.771484375 460.075195312 286.421875 449.025390625 c 0
447.071289062 256.075195312 m 0
 447.071289062 266.275390625 445.372070312 277.325195312 441.122070312 290.075195312 c 0
 437.721679688 301.125 430.921875 311.325195312 420.721679688 320.674804688 c 0
 410.521484375 330.025390625 397.771484375 338.525390625 381.622070312 345.325195312 c 2
 371.421875 350.424804688 l 1
 368.872070312 338.525390625 l 1
 368.872070312 338.525390625 359.521484375 295.174804688 341.671875 211.025390625 c 0
 331.471679688 164.275390625 322.971679688 126.025390625 316.171875 96.275390625 c 1
 333.171875 103.924804688 l 2
 360.372070312 115.825195312 384.171875 131.974609375 404.571289062 153.224609375 c 0
 424.971679688 174.474609375 437.721679688 198.275390625 443.671875 225.474609375 c 0
 445.372070312 235.674804688 447.071289062 245.875 447.071289062 256.075195312 c 0
EndSplineSet
Validated: 524289
EndChar

StartChar: percent
Encoding: 37 37 15
Width: 550
VWidth: 899
GlyphClass: 2
Flags: HMW
HStem: 35.45 44.2<362.115 392.29 369.34 392.29> 205.45 41.65<415.665 416.515> 426.45 43.35<249.915 279.24 257.14 279.24> 597.3 40.8<304.315 308.14>
VStem: 201.89 34.85<493.175 513.575> 314.09 34.85<103.025 122.575> 340.44 34.85<550.125 582.85> 451.79 29.75<133.2 170.6> 451.79 38.25<159.125 192.7>
LayerCount: 2
Fore
SplineSet
221.439453125 440.900390625 m 0xfa
 212.088867188 450.25 205.2890625 462.150390625 203.588867188 476.599609375 c 0
 202.739257812 482.549804688 201.888671875 489.349609375 201.888671875 497 c 0
 201.888671875 504.650390625 202.739257812 514.849609375 205.2890625 525.900390625 c 0
 212.939453125 559.049804688 226.5390625 585.400390625 246.088867188 606.650390625 c 0
 265.638671875 627.900390625 290.2890625 638.099609375 318.338867188 638.099609375 c 0
 340.439453125 638.099609375 356.588867188 629.599609375 366.7890625 613.450195312 c 0
 372.739257812 604.099609375 375.2890625 591.349609375 375.2890625 574.349609375 c 0
 375.2890625 559.900390625 372.739257812 542.900390625 367.638671875 524.200195312 c 0
 359.989257812 491.900390625 346.388671875 468.099609375 328.5390625 451.099609375 c 0
 310.689453125 434.099609375 287.739257812 426.450195312 257.989257812 426.450195312 c 2
 257.138671875 426.450195312 l 2
 242.689453125 426.450195312 230.7890625 431.549804688 221.439453125 440.900390625 c 0xfa
116.888671875 59.25 m 0
 135.588867188 86.4501953125 172.989257812 137.450195312 228.239257812 212.25 c 2
 393.989257812 448.549804688 l 2
 450.088867188 527.599609375 489.189453125 583.700195312 511.2890625 618.549804688 c 0
 518.088867188 627.049804688 525.739257812 632.150390625 534.239257812 633.849609375 c 0
 536.7890625 633.849609375 540.189453125 634.700195312 541.888671875 634.700195312 c 0
 546.138671875 634.700195312 549.5390625 633 553.7890625 630.450195312 c 0
 556.338867188 629.599609375 558.0390625 627.900390625 558.888671875 627.049804688 c 0
 559.739257812 626.200195312 560.588867188 622.799804688 560.588867188 621.099609375 c 0
 560.588867188 614.299804688 557.189453125 604.950195312 547.838867188 593.900390625 c 0
 519.7890625 559.049804688 455.189453125 471.5 354.888671875 329.549804688 c 0
 257.138671875 187.599609375 189.989257812 92.400390625 154.2890625 41.400390625 c 0
 146.638671875 31.2001953125 139.838867188 24.400390625 133.888671875 20.150390625 c 0
 129.638671875 17.599609375 125.388671875 15.900390625 121.989257812 15.900390625 c 0
 118.588867188 15.900390625 116.0390625 16.75 113.489257812 18.4501953125 c 0
 110.939453125 20.150390625 107.5390625 22.7001953125 106.689453125 24.400390625 c 0
 105.838867188 26.099609375 104.989257812 28.650390625 104.989257812 31.2001953125 c 0
 104.989257812 38.849609375 109.239257812 48.2001953125 116.888671875 59.25 c 0
277.5390625 469.799804688 m 2
 279.239257812 469.799804688 l 2
 293.689453125 469.799804688 305.588867188 474.900390625 314.939453125 485.950195312 c 0
 324.2890625 497 331.939453125 510.599609375 337.0390625 527.599609375 c 0
 338.739257812 536.950195312 340.439453125 546.299804688 340.439453125 553.950195312 c 0
 340.439453125 563.299804688 339.588867188 571.799804688 335.338867188 578.599609375 c 0
 327.689453125 591.349609375 316.638671875 597.299804688 299.638671875 597.299804688 c 0
 285.189453125 597.299804688 272.439453125 591.349609375 262.239257812 578.599609375 c 0
 252.888671875 567.549804688 245.239257812 552.25 240.138671875 533.549804688 c 0
 238.439453125 525.049804688 236.739257812 517.400390625 236.739257812 509.75 c 0
 236.739257812 502.099609375 237.588867188 496.150390625 240.138671875 490.200195312 c 0
 246.088867188 478.299804688 258.838867188 471.5 277.5390625 469.799804688 c 2
333.638671875 49.900390625 m 0
 324.2890625 59.25 318.338867188 71.150390625 315.7890625 85.599609375 c 0
 314.939453125 91.5498046875 314.088867188 99.2001953125 314.088867188 106.849609375 c 0xfc80
 314.088867188 114.5 315.7890625 123.849609375 317.489257812 134.900390625 c 0
 324.2890625 168.049804688 338.739257812 194.400390625 358.2890625 215.650390625 c 0
 377.838867188 236.900390625 401.638671875 247.099609375 429.689453125 247.099609375 c 0
 440.739257812 247.099609375 450.939453125 245.400390625 458.588867188 241.150390625 c 0
 467.088867188 236.900390625 474.739257812 230.950195312 480.689453125 222.450195312 c 0
 486.638671875 213.950195312 490.0390625 201.200195312 490.0390625 184.200195312 c 0
 490.0390625 169.75 487.489257812 152.75 481.5390625 134.049804688 c 1xfd
 481.5390625 133.200195312 l 1
 472.189453125 100.900390625 458.588867188 76.25 440.739257812 59.25 c 0
 422.888671875 43.099609375 399.939453125 35.4501953125 371.888671875 35.4501953125 c 2
 369.338867188 35.4501953125 l 2
 354.888671875 35.4501953125 342.989257812 40.5498046875 333.638671875 49.900390625 c 0
389.739257812 79.650390625 m 2
 392.2890625 79.650390625 l 2
 405.888671875 79.650390625 417.7890625 84.75 427.138671875 95.7998046875 c 0
 436.489257812 106.849609375 444.138671875 119.599609375 448.388671875 136.599609375 c 0
 450.088867188 145.950195312 451.7890625 155.299804688 451.7890625 162.950195312 c 0
 451.7890625 178.25 448.388671875 189.299804688 439.0390625 196.950195312 c 0
 431.388671875 202.900390625 422.0390625 205.450195312 410.989257812 205.450195312 c 0
 396.5390625 205.450195312 384.638671875 198.650390625 374.439453125 186.75 c 0
 364.239257812 175.700195312 356.588867188 160.400390625 352.338867188 142.549804688 c 0
 350.638671875 134.049804688 348.939453125 126.400390625 348.939453125 118.75 c 0
 348.939453125 111.099609375 350.638671875 105.150390625 353.189453125 99.2001953125 c 0
 359.138671875 87.2998046875 371.0390625 80.5 389.739257812 79.650390625 c 2
EndSplineSet
Validated: 524289
EndChar

StartChar: ampersand
Encoding: 38 38 16
Width: 550
VWidth: 901
GlyphClass: 2
Flags: HMW
HStem: 26.5751 58.65 609.675 46.75
VStem: 114.738 60.35<140.476 172.351> 266.038 54.4<511.076 511.926> 407.988 60.35<58.026 80.1251>
LayerCount: 2
Fore
SplineSet
464.9375 55.4755859375 m 0
 460.6875 41.875 454.73828125 33.3759765625 447.9375 30.826171875 c 0
 443.6875 29.1259765625 440.288085938 27.42578125 436.887695312 27.42578125 c 0
 432.637695312 27.42578125 429.23828125 29.1259765625 425.837890625 30.826171875 c 0
 418.1875 35.92578125 412.23828125 45.2763671875 407.98828125 58.0263671875 c 0
 407.98828125 61.42578125 406.288085938 69.92578125 404.587890625 83.5263671875 c 0
 402.887695312 97.1259765625 401.1875 106.475585938 399.48828125 113.276367188 c 2
 395.23828125 133.67578125 l 1
 381.637695312 118.375976562 l 2
 379.9375 116.67578125 375.6875 110.725585938 368.887695312 103.92578125 c 2
 353.587890625 88.6259765625 l 2
 337.4375 72.4755859375 326.387695312 62.2763671875 319.587890625 58.0263671875 c 0
 314.48828125 54.6259765625 307.6875 51.2255859375 300.038085938 46.1259765625 c 0
 292.387695312 41.0263671875 284.73828125 36.7763671875 277.9375 35.076171875 c 0
 271.137695312 33.3759765625 263.48828125 30.826171875 254.137695312 29.1259765625 c 0
 244.788085938 27.42578125 236.288085938 26.576171875 227.788085938 26.576171875 c 0
 200.587890625 26.576171875 177.637695312 34.2255859375 158.9375 48.67578125 c 0
 140.23828125 63.1259765625 126.637695312 82.67578125 119.837890625 107.326171875 c 0
 116.4375 120.076171875 114.73828125 133.67578125 114.73828125 147.276367188 c 0
 114.73828125 160.875976562 116.4375 174.475585938 119.837890625 188.92578125 c 0
 143.637695312 292.625976562 198.887695312 363.17578125 287.288085938 400.576171875 c 2
 296.637695312 404.826171875 l 1
 283.038085938 442.225585938 275.387695312 464.326171875 273.6875 468.576171875 c 0
 271.98828125 473.67578125 270.288085938 480.475585938 268.587890625 487.276367188 c 0
 266.887695312 494.076171875 266.038085938 500.026367188 266.038085938 504.276367188 c 0
 266.038085938 519.576171875 267.73828125 534.875976562 271.137695312 550.17578125 c 0
 275.387695312 568.875976562 284.73828125 588.42578125 300.038085938 606.276367188 c 0
 307.6875 615.625976562 317.038085938 624.975585938 327.23828125 631.776367188 c 0
 337.4375 638.576171875 350.1875 644.526367188 365.48828125 649.625976562 c 0
 380.788085938 654.725585938 396.087890625 656.42578125 413.9375 656.42578125 c 0
 428.387695312 656.42578125 441.98828125 654.725585938 453.887695312 649.625976562 c 0
 465.788085938 644.526367188 475.98828125 637.725585938 484.48828125 629.225585938 c 0
 492.98828125 620.725585938 498.087890625 609.67578125 501.48828125 595.225585938 c 0
 503.09375 588.403320312 503.940429688 581.012695312 503.940429688 573.142578125 c 0
 503.940429688 564.34375 502.881835938 554.946289062 500.637695312 545.075195312 c 0
 496.387695312 528.075195312 490.4375 511.924804688 482.788085938 497.475585938 c 0
 475.137695312 483.025390625 467.48828125 470.275390625 458.98828125 460.075195312 c 0
 450.48828125 449.875 440.288085938 440.525390625 428.387695312 431.174804688 c 0
 416.48828125 421.825195312 405.4375 414.174804688 396.087890625 409.075195312 c 0
 386.73828125 403.975585938 376.538085938 398.875 363.788085938 392.924804688 c 2
 356.137695312 388.674804688 l 1
 358.6875 380.174804688 l 2
 364.637695312 362.325195312 374.837890625 335.975585938 389.288085938 301.125 c 0
 403.73828125 266.275390625 413.087890625 244.174804688 417.337890625 233.125 c 2
 424.137695312 213.575195312 l 1
 436.887695312 232.275390625 447.087890625 248.424804688 453.887695312 258.625 c 0
 460.6875 268.825195312 466.637695312 277.325195312 470.887695312 283.275390625 c 0
 475.137695312 289.225585938 478.538085938 294.325195312 480.23828125 296.875 c 0
 492.137695312 310.475585938 501.48828125 318.975585938 509.137695312 321.525390625 c 0
 510.837890625 322.375 514.23828125 323.225585938 515.9375 323.225585938 c 0
 519.337890625 323.225585938 522.73828125 321.525390625 526.98828125 319.825195312 c 0
 531.23828125 317.275390625 532.9375 312.174804688 532.9375 306.225585938 c 0
 532.9375 295.174804688 526.98828125 282.424804688 517.637695312 267.975585938 c 0
 514.23828125 262.875 504.038085938 251.825195312 487.038085938 233.975585938 c 0
 470.038085938 216.125 453.887695312 199.125 439.4375 181.275390625 c 1
 443.6875 167.674804688 449.637695312 149.825195312 455.587890625 130.275390625 c 0
 461.538085938 110.725585938 464.9375 97.9755859375 465.788085938 93.7255859375 c 0
 466.637695312 89.4755859375 468.337890625 83.525390625 468.337890625 76.7255859375 c 0
 468.337890625 69.9248046875 466.637695312 63.125 464.9375 55.4755859375 c 0
396.087890625 609.67578125 m 0
 374.837890625 609.67578125 357.837890625 602.026367188 345.087890625 587.576171875 c 0
 334.887695312 575.67578125 327.23828125 559.526367188 322.98828125 539.975585938 c 0
 321.288085938 532.326171875 320.4375 523.826171875 320.4375 515.326171875 c 0
 320.4375 506.826171875 321.288085938 498.326171875 322.98828125 488.975585938 c 0
 325.538085938 470.276367188 331.48828125 454.125976562 339.137695312 440.526367188 c 2
 343.387695312 433.725585938 l 1
 351.887695312 436.276367188 l 2
 364.637695312 440.526367188 376.538085938 444.776367188 385.887695312 449.026367188 c 0
 395.23828125 453.276367188 404.587890625 459.225585938 413.9375 466.875976562 c 0
 423.288085938 474.526367188 431.788085938 483.026367188 437.73828125 494.076171875 c 0
 443.6875 505.125976562 448.788085938 518.725585938 452.1875 533.17578125 c 0
 453.887695312 540.826171875 455.587890625 548.475585938 455.587890625 555.276367188 c 0
 455.587890625 569.725585938 451.337890625 580.776367188 443.6875 590.125976562 c 0
 431.788085938 602.875976562 415.637695312 609.67578125 396.087890625 609.67578125 c 0
186.137695312 120.92578125 m 0
 198.887695312 97.1259765625 220.137695312 85.2255859375 248.1875 85.2255859375 c 0
 260.9375 85.2255859375 275.387695312 87.7763671875 292.387695312 92.8759765625 c 0
 298.337890625 94.576171875 305.137695312 98.826171875 311.9375 103.076171875 c 0
 318.73828125 107.326171875 322.98828125 109.875976562 327.23828125 112.42578125 c 0
 331.48828125 114.975585938 335.73828125 119.225585938 341.6875 125.17578125 c 0
 347.637695312 131.125976562 352.73828125 135.375976562 354.4375 137.92578125 c 0
 356.137695312 140.475585938 360.387695312 143.875976562 365.48828125 149.826171875 c 0
 370.587890625 155.776367188 373.98828125 159.17578125 374.837890625 160.026367188 c 2
 379.087890625 164.276367188 l 1
 373.98828125 189.776367188 369.73828125 209.326171875 366.337890625 222.076171875 c 0
 362.087890625 235.67578125 353.587890625 256.92578125 341.6875 286.67578125 c 0
 329.788085938 316.42578125 321.288085938 337.67578125 316.1875 352.125976562 c 2
 311.9375 362.326171875 l 1
 301.73828125 358.076171875 l 2
 283.887695312 350.42578125 267.73828125 341.076171875 253.288085938 329.17578125 c 0
 238.837890625 317.276367188 226.9375 304.526367188 217.587890625 290.92578125 c 0
 208.23828125 277.326171875 200.587890625 262.875976562 194.637695312 248.42578125 c 0
 188.6875 233.975585938 184.4375 218.67578125 180.1875 201.67578125 c 0
 176.788085938 188.92578125 175.087890625 177.875976562 175.087890625 166.826171875 c 0
 175.087890625 148.975585938 178.48828125 133.67578125 186.137695312 120.92578125 c 0
EndSplineSet
Validated: 524289
EndChar

StartChar: quotesingle
Encoding: 39 39 17
Width: 550
VWidth: 941
GlyphClass: 2
Flags: HMW
HStem: 480.65 256.7<368.334 435.484 368.334 435.484>
LayerCount: 2
Fore
SplineSet
436.334960938 737.349609375 m 2
 443.134765625 737.349609375 449.084960938 735.650390625 454.184570312 732.25 c 0
 455.03515625 731.400390625 456.735351562 728.849609375 457.584960938 725.450195312 c 0
 458.434570312 722.049804688 457.584960938 717.799804688 456.735351562 711.849609375 c 0
 451.634765625 689.75 443.985351562 654.900390625 432.084960938 608.150390625 c 0
 420.184570312 561.400390625 410.834960938 527.400390625 404.03515625 507.849609375 c 0
 400.634765625 498.5 395.53515625 490.849609375 388.735351562 486.599609375 c 0
 381.934570312 482.349609375 375.985351562 480.650390625 370.03515625 480.650390625 c 2
 368.334960938 480.650390625 l 2
 359.834960938 481.5 353.03515625 484.900390625 348.78515625 489.150390625 c 0
 347.084960938 490.849609375 346.235351562 493.400390625 346.235351562 496.799804688 c 0
 346.235351562 500.200195312 347.084960938 502.75 347.934570312 507 c 0
 356.434570312 536.75 364.934570312 569.900390625 373.434570312 609 c 0
 381.934570312 648.099609375 389.584960938 682.950195312 395.53515625 712.700195312 c 0
 395.53515625 717.799804688 397.235351562 722.900390625 400.634765625 726.299804688 c 0
 404.03515625 729.700195312 407.434570312 732.25 410.834960938 733.099609375 c 0
 418.485351562 735.650390625 425.28515625 737.349609375 431.235351562 737.349609375 c 2
 435.485351562 737.349609375 l 1
 436.334960938 737.349609375 l 2
EndSplineSet
Validated: 524289
EndChar

StartChar: parenleft
Encoding: 40 40 18
Width: 550
VWidth: 901
GlyphClass: 2
Flags: HMW
HStem: -49.925 51<319.439 355.564> 684.475 48.45<496.239 524.289>
VStem: 211.064 60.35<170.65 176.6>
LayerCount: 2
Fore
SplineSet
352.165039062 1.0751953125 m 0
 358.96484375 1.0751953125 363.21484375 -0.625 364.915039062 -3.1748046875 c 0
 365.764648438 -4.025390625 367.46484375 -5.724609375 367.46484375 -9.125 c 0
 367.46484375 -12.525390625 365.764648438 -17.625 364.915039062 -25.275390625 c 0
 363.21484375 -32.0751953125 359.814453125 -37.1748046875 353.014648438 -42.275390625 c 0
 346.21484375 -47.375 340.264648438 -49.9248046875 335.165039062 -49.9248046875 c 0
 303.71484375 -49.9248046875 277.365234375 -38.025390625 256.96484375 -13.375 c 0
 235.71484375 12.974609375 222.115234375 48.6748046875 215.314453125 95.4248046875 c 0
 212.764648438 116.674804688 211.064453125 138.775390625 211.064453125 161.724609375 c 0
 211.064453125 191.474609375 212.764648438 223.775390625 217.865234375 258.625 c 0
 223.814453125 300.275390625 237.415039062 353.825195312 257.814453125 419.275390625 c 0
 278.21484375 484.724609375 300.314453125 539.125 324.96484375 580.775390625 c 0
 336.014648438 598.625 348.764648438 617.325195312 364.064453125 635.174804688 c 0
 379.365234375 653.025390625 395.514648438 669.174804688 413.365234375 683.625 c 0
 431.21484375 698.075195312 449.915039062 709.974609375 468.615234375 719.325195312 c 0
 487.314453125 728.674804688 504.314453125 732.924804688 521.314453125 732.924804688 c 0
 527.264648438 732.924804688 531.514648438 732.075195312 533.21484375 730.375 c 0
 534.915039062 728.674804688 536.615234375 725.275390625 536.615234375 721.025390625 c 0
 536.615234375 718.474609375 536.615234375 715.075195312 535.764648438 710.825195312 c 0
 534.064453125 701.474609375 529.814453125 694.674804688 523.865234375 690.424804688 c 0
 517.915039062 686.174804688 511.96484375 684.474609375 504.314453125 684.474609375 c 0
 488.165039062 684.474609375 473.71484375 680.224609375 458.415039062 670.875 c 0
 443.115234375 661.525390625 428.665039062 648.775390625 415.915039062 633.474609375 c 0
 391.264648438 604.575195312 370.014648438 568.875 351.314453125 525.525390625 c 0
 336.865234375 495.775390625 322.415039062 454.974609375 307.96484375 403.125 c 0
 293.514648438 351.275390625 284.165039062 309.625 279.064453125 279.025390625 c 0
 273.96484375 248.424804688 271.415039062 218.674804688 271.415039062 190.625 c 0
 271.415039062 150.674804688 275.665039062 115.825195312 283.314453125 86.0751953125 c 0
 289.264648438 61.4248046875 298.615234375 41.875 309.665039062 26.5751953125 c 0
 322.415039062 9.5751953125 336.014648438 1.0751953125 352.165039062 1.0751953125 c 0
EndSplineSet
Validated: 524289
EndChar

StartChar: parenright
Encoding: 41 41 19
Width: 550
VWidth: 901
GlyphClass: 2
Flags: HMW
HStem: -49.925 51<184.599 187.999> 684.475 48.45<339.299 364.799>
VStem: 426.424 55.25<520 536.575>
LayerCount: 2
Fore
SplineSet
481.673828125 536.575195312 m 0
 481.673828125 503.424804688 478.274414062 466.025390625 472.32421875 423.525390625 c 0
 462.974609375 358.075195312 451.07421875 304.525390625 437.474609375 263.724609375 c 0
 417.923828125 201.674804688 394.124023438 147.275390625 365.224609375 99.6748046875 c 0
 336.32421875 52.0751953125 305.724609375 15.525390625 271.724609375 -10.8251953125 c 0
 237.724609375 -37.1748046875 204.57421875 -49.9248046875 171.423828125 -49.9248046875 c 0
 167.173828125 -49.9248046875 162.923828125 -48.224609375 159.524414062 -43.974609375 c 0
 157.82421875 -42.275390625 156.974609375 -38.875 156.974609375 -35.474609375 c 2
 156.974609375 -30.375 l 2
 159.524414062 -17.625 163.774414062 -9.125 168.874023438 -4.875 c 0
 173.974609375 -0.625 180.774414062 1.0751953125 188.423828125 1.0751953125 c 0
 202.874023438 1.0751953125 219.874023438 8.724609375 238.57421875 24.875 c 0
 256.423828125 39.3251953125 273.423828125 59.724609375 291.274414062 83.525390625 c 0
 309.124023438 107.325195312 325.274414062 135.375 342.274414062 169.375 c 0
 359.274414062 203.375 372.024414062 236.525390625 383.07421875 271.375 c 0
 393.274414062 303.674804688 403.474609375 347.025390625 412.82421875 399.724609375 c 0
 422.173828125 452.424804688 426.423828125 494.924804688 426.423828125 527.224609375 c 0
 426.423828125 545.924804688 425.57421875 563.775390625 423.024414062 581.625 c 0
 420.474609375 599.474609375 416.224609375 614.775390625 410.274414062 630.924804688 c 0
 404.32421875 647.075195312 395.82421875 659.825195312 383.923828125 670.025390625 c 0
 372.024414062 680.224609375 358.423828125 684.474609375 342.274414062 684.474609375 c 0
 336.32421875 684.474609375 331.224609375 686.174804688 327.82421875 689.575195312 c 0
 326.124023438 691.275390625 325.274414062 692.974609375 325.274414062 696.375 c 0
 325.274414062 699.775390625 326.124023438 704.025390625 326.974609375 708.275390625 c 0
 327.82421875 712.525390625 330.374023438 717.625 332.923828125 721.025390625 c 0
 335.474609375 724.424804688 338.024414062 726.974609375 339.724609375 727.825195312 c 0
 345.673828125 731.224609375 350.774414062 732.924804688 356.724609375 732.924804688 c 0
 372.874023438 732.924804688 388.173828125 728.674804688 402.624023438 720.174804688 c 0
 417.07421875 711.674804688 428.974609375 700.625 439.173828125 686.174804688 c 0
 449.374023438 671.724609375 458.724609375 655.575195312 465.524414062 637.724609375 c 0
 472.32421875 619.875 477.423828125 602.025390625 479.124023438 584.174804688 c 0
 480.82421875 569.724609375 481.673828125 554.424804688 481.673828125 536.575195312 c 0
EndSplineSet
Validated: 524289
EndChar

StartChar: asterisk
Encoding: 42 42 20
Width: 550
VWidth: 902
GlyphClass: 2
Flags: HMW
HStem: 311.3 68<176.989 196.114> 318.1 60.35<507.214 524.639> 323.2 44.2<425.189 433.689 389.914 448.564>
VStem: 277.714 52.7 362.714 56.1<175.3 199.1>
LayerCount: 2
Fore
SplineSet
384.814453125 161.700195312 m 0x98
 378.864257812 161.700195312 373.763671875 163.400390625 369.513671875 165.950195312 c 0
 367.814453125 166.799804688 365.263671875 168.5 364.4140625 170.200195312 c 0
 363.564453125 171.900390625 362.713867188 174.450195312 362.713867188 176.150390625 c 0
 361.864257812 199.099609375 355.9140625 233.099609375 344.864257812 276.450195312 c 2
 338.9140625 298.549804688 l 1
 326.1640625 279.849609375 l 2
 288.763671875 227.150390625 264.963867188 192.299804688 255.614257812 175.299804688 c 0
 253.064453125 170.200195312 248.814453125 165.950195312 244.564453125 163.400390625 c 0
 240.314453125 161.700195312 235.213867188 159.150390625 230.963867188 159.150390625 c 2
 225.864257812 159.150390625 l 2
 224.1640625 159.150390625 220.763671875 159.150390625 217.364257812 160 c 0
 213.963867188 160.849609375 209.713867188 162.549804688 208.013671875 164.25 c 0
 206.314453125 165.950195312 203.763671875 168.5 202.9140625 171.900390625 c 0
 202.064453125 175.299804688 201.213867188 177.849609375 201.213867188 180.400390625 c 2
 201.213867188 187.200195312 l 2
 201.213867188 193.150390625 204.614257812 199.099609375 209.713867188 206.75 c 2
 298.114257812 317.25 l 1
 275.1640625 316.400390625 l 2
 231.814453125 313 199.513671875 311.299804688 179.114257812 311.299804688 c 0
 174.864257812 311.299804688 170.614257812 313 168.064453125 313.849609375 c 0
 165.513671875 314.700195312 162.963867188 317.25 161.263671875 319.799804688 c 0
 158.713867188 324.049804688 157.013671875 328.299804688 157.013671875 333.400390625 c 2
 158.713867188 341.900390625 l 2
 158.713867188 346.150390625 160.4140625 350.400390625 162.114257812 354.650390625 c 0
 168.064453125 365.700195312 174.013671875 373.349609375 181.6640625 376.75 c 0
 185.9140625 378.450195312 189.314453125 379.299804688 193.564453125 379.299804688 c 2
 196.114257812 379.299804688 l 2
 219.9140625 377.599609375 259.864257812 374.200195312 316.814453125 369.950195312 c 1
 311.713867188 384.400390625 l 2
 298.963867188 426.049804688 287.064453125 457.5 277.713867188 479.599609375 c 0
 276.013671875 484.700195312 275.1640625 489.799804688 275.1640625 494.900390625 c 0
 275.1640625 500 276.013671875 505.950195312 277.713867188 511.049804688 c 0
 281.114257812 520.400390625 286.213867188 527.200195312 293.013671875 529.75 c 0
 298.114257812 533.150390625 303.213867188 534.849609375 308.314453125 534.849609375 c 0
 312.564453125 534.849609375 317.6640625 533.150390625 321.9140625 529.75 c 0
 326.1640625 526.349609375 329.564453125 521.25 330.4140625 515.299804688 c 0
 332.963867188 501.700195312 342.314453125 462.599609375 359.314453125 397.150390625 c 1
 372.9140625 414.150390625 l 2
 402.6640625 452.400390625 426.463867188 484.700195312 443.463867188 511.049804688 c 0
 447.713867188 518.700195312 453.6640625 524.650390625 459.614257812 528.049804688 c 0
 465.564453125 531.450195312 471.513671875 533.150390625 475.763671875 533.150390625 c 0
 480.013671875 533.150390625 484.263671875 531.450195312 486.814453125 528.900390625 c 2
 487.6640625 528.900390625 l 2
 489.364257812 528.049804688 491.9140625 525.5 492.763671875 521.25 c 0
 492.763671875 519.549804688 493.614257812 516.150390625 493.614257812 513.599609375 c 0
 493.614257812 502.549804688 490.213867188 492.349609375 481.713867188 483 c 0
 458.763671875 456.650390625 431.564453125 423.5 401.814453125 383.549804688 c 2
 389.9140625 367.400390625 l 1x38
 410.314453125 367.400390625 l 2
 457.064453125 367.400390625 491.9140625 370.799804688 514.013671875 376.75 c 0
 517.4140625 377.599609375 520.814453125 378.450195312 522.513671875 378.450195312 c 0x58
 526.763671875 378.450195312 530.1640625 375.900390625 531.864257812 373.349609375 c 0
 535.263671875 369.099609375 537.814453125 364 537.814453125 359.75 c 0
 537.814453125 355.5 536.114257812 349.549804688 532.713867188 341.900390625 c 0
 526.763671875 330.849609375 520.814453125 323.200195312 514.013671875 319.799804688 c 0
 512.314453125 318.950195312 509.763671875 318.099609375 508.064453125 318.099609375 c 0
 506.364257812 318.099609375 504.6640625 318.950195312 503.814453125 318.950195312 c 0
 490.213867188 321.5 466.4140625 323.200195312 430.713867188 323.200195312 c 0x38
 419.6640625 323.200195312 403.513671875 322.349609375 382.263671875 322.349609375 c 1
 417.114257812 211 l 2
 417.963867188 206.75 418.814453125 201.650390625 418.814453125 196.549804688 c 0
 418.814453125 191.450195312 417.963867188 187.200195312 416.263671875 182.950195312 c 0
 413.713867188 175.299804688 409.463867188 169.349609375 404.364257812 165.950195312 c 0
 399.263671875 162.549804688 392.463867188 161.700195312 384.814453125 161.700195312 c 0x98
EndSplineSet
Validated: 524289
EndChar

StartChar: plus
Encoding: 43 43 21
Width: 550
VWidth: 910
GlyphClass: 2
Flags: HMW
HStem: 374.5 50.15<316.979 341.629 316.979 341.629>
LayerCount: 2
Fore
SplineSet
237.079101562 373.650390625 m 2
 227.728515625 373.650390625 220.928710938 375.349609375 219.228515625 379.599609375 c 0
 217.529296875 382.150390625 215.829101562 385.549804688 215.829101562 389.799804688 c 0
 215.829101562 391.5 216.678710938 394.900390625 216.678710938 397.450195312 c 0
 218.37890625 405.950195312 222.62890625 412.75 228.579101562 418.700195312 c 0
 234.529296875 423.799804688 241.329101562 426.349609375 250.678710938 426.349609375 c 2
 253.228515625 426.349609375 l 2
 289.779296875 425.5 316.12890625 424.650390625 333.12890625 424.650390625 c 2
 341.62890625 424.650390625 l 1
 349.279296875 458.650390625 356.928710938 491.799804688 362.87890625 524.950195312 c 0
 363.728515625 533.450195312 367.12890625 540.25 371.37890625 544.5 c 0
 377.329101562 550.450195312 384.978515625 553 395.178710938 553 c 2
 397.728515625 553 l 2
 403.678710938 553 408.779296875 551.299804688 412.178710938 548.75 c 0
 413.029296875 547.900390625 413.87890625 545.349609375 413.87890625 541.950195312 c 0
 413.87890625 538.549804688 413.029296875 535.150390625 411.329101562 530.049804688 c 0
 401.978515625 496.900390625 393.478515625 461.200195312 384.12890625 422.950195312 c 1
 484.428710938 422.950195312 l 2
 492.928710938 422.950195312 498.029296875 421.25 498.87890625 419.549804688 c 0
 499.728515625 417.849609375 501.428710938 415.299804688 501.428710938 411.049804688 c 0
 501.428710938 405.099609375 499.728515625 398.299804688 497.178710938 392.349609375 c 0
 495.478515625 388.950195312 492.928710938 385.549804688 490.37890625 382.150390625 c 0
 486.12890625 377.049804688 480.178710938 374.5 472.529296875 374.5 c 2
 472.529296875 374.5 470.829101562 375.349609375 469.12890625 375.349609375 c 0
 460.62890625 375.349609375 448.728515625 376.200195312 431.728515625 376.200195312 c 0
 414.728515625 376.200195312 395.178710938 375.349609375 372.228515625 375.349609375 c 1
 367.978515625 354.950195312 362.87890625 334.549804688 358.62890625 313.299804688 c 0
 354.37890625 292.049804688 350.978515625 279.299804688 350.12890625 275.049804688 c 0
 347.579101562 264 343.329101562 257.200195312 339.079101562 252.950195312 c 0
 333.978515625 249.549804688 328.029296875 247 321.228515625 247 c 0
 315.279296875 247 311.029296875 247.849609375 308.478515625 249.549804688 c 0
 305.928710938 251.25 305.079101562 254.650390625 305.079101562 259.75 c 0
 305.079101562 263.150390625 305.079101562 266.549804688 305.928710938 270.799804688 c 2
 329.728515625 374.5 l 1
 316.978515625 374.5 l 1
 237.079101562 373.650390625 l 2
EndSplineSet
Validated: 524289
EndChar

StartChar: comma
Encoding: 44 44 22
Width: 550
VWidth: 845
GlyphClass: 2
Flags: HMW
VStem: 168.834 198.9
LayerCount: 2
Fore
SplineSet
168.833984375 -162.125 m 2
 168.833984375 -159.575195312 l 2
 168.833984375 -154.474609375 171.383789062 -148.525390625 177.333984375 -141.724609375 c 0
 192.633789062 -123.875 217.284179688 -85.625 250.434570312 -27.8251953125 c 0
 283.583984375 29.974609375 304.833984375 70.775390625 314.184570312 93.724609375 c 0
 315.883789062 99.6748046875 320.984375 104.775390625 326.083984375 108.174804688 c 0
 331.184570312 111.575195312 336.284179688 113.275390625 340.534179688 113.275390625 c 2
 341.383789062 113.275390625 l 2
 346.484375 113.275390625 351.583984375 112.424804688 355.833984375 111.575195312 c 0
 360.083984375 109.875 364.333984375 106.474609375 366.034179688 101.375 c 0
 366.883789062 99.6748046875 367.734375 97.125 367.734375 94.5751953125 c 0
 367.734375 92.025390625 366.034179688 86.9248046875 364.333984375 80.974609375 c 0
 353.284179688 52.9248046875 332.034179688 11.275390625 301.434570312 -45.6748046875 c 0
 270.833984375 -102.625 249.583984375 -138.325195312 237.684570312 -151.075195312 c 0
 227.484375 -162.125 216.434570312 -170.625 203.684570312 -174.875 c 0
 196.883789062 -176.575195312 190.934570312 -178.275390625 185.833984375 -178.275390625 c 0
 183.284179688 -178.275390625 179.883789062 -177.424804688 178.184570312 -176.575195312 c 0
 175.633789062 -175.724609375 173.083984375 -173.174804688 171.383789062 -171.474609375 c 0
 169.684570312 -168.924804688 168.833984375 -165.525390625 168.833984375 -162.125 c 2
EndSplineSet
Validated: 524289
EndChar

StartChar: hyphen
Encoding: 45 45 23
Width: 550
VWidth: 893
GlyphClass: 2
Flags: HMW
HStem: 259.875 52.7<235.025 269.025> 267.525 47.6<413.1 436.475>
LayerCount: 2
Fore
SplineSet
254.150390625 312.575195312 m 0x80
 283.900390625 312.575195312 319.600585938 312.575195312 361.250976562 313.424804688 c 0
 402.900390625 314.275390625 426.700195312 315.125 432.650390625 315.125 c 0x40
 440.30078125 315.125 445.400390625 313.424804688 447.100585938 311.724609375 c 0
 448.80078125 308.325195312 449.650390625 303.224609375 448.80078125 296.424804688 c 0
 447.100585938 287.075195312 442.000976562 279.424804688 437.750976562 275.174804688 c 0
 432.650390625 270.075195312 425.850585938 267.525390625 416.500976562 267.525390625 c 0
 409.700195312 267.525390625 382.500976562 265.825195312 335.750976562 263.275390625 c 0
 289.000976562 260.724609375 255.850585938 259.875 238.000976562 259.875 c 0
 232.05078125 259.875 226.950195312 260.724609375 224.400390625 262.424804688 c 0
 221.850585938 264.125 221.000976562 267.525390625 221.000976562 272.625 c 0
 221.000976562 276.025390625 221.850585938 279.424804688 222.700195312 283.674804688 c 0
 223.55078125 293.025390625 226.950195312 300.674804688 231.200195312 304.924804688 c 0
 237.150390625 310.025390625 244.80078125 312.575195312 254.150390625 312.575195312 c 0x80
EndSplineSet
Validated: 524289
EndChar

StartChar: period
Encoding: 46 46 24
Width: 550
VWidth: 859
GlyphClass: 2
Flags: HMW
HStem: 7.75 110.5<260.378 314.778 266.753 314.778>
VStem: 232.753 111.35<41.325 86.375>
LayerCount: 2
Fore
SplineSet
344.102539062 81.7001953125 m 0
 344.102539062 77.4501953125 343.252929688 72.349609375 342.40234375 67.25 c 0
 339.002929688 51.099609375 332.203125 38.349609375 319.453125 27.2998046875 c 0
 306.703125 16.25 291.40234375 9.4501953125 273.552734375 7.75 c 2
 266.752929688 7.75 l 2
 254.002929688 7.75 245.502929688 12 239.552734375 20.5 c 0
 235.302734375 28.150390625 232.752929688 36.650390625 232.752929688 46 c 0
 232.752929688 51.099609375 233.602539062 56.2001953125 234.453125 61.2998046875 c 0
 237.852539062 76.599609375 247.203125 89.349609375 261.65234375 100.400390625 c 0
 277.802734375 112.299804688 292.252929688 118.25 308.40234375 118.25 c 0
 321.15234375 118.25 331.352539062 114 337.302734375 105.5 c 0
 341.552734375 98.7001953125 344.102539062 91.0498046875 344.102539062 81.7001953125 c 0
EndSplineSet
Validated: 524289
EndChar

StartChar: slash
Encoding: 47 47 25
Width: 550
VWidth: 901
GlyphClass: 2
Flags: W
LayerCount: 2
Fore
SplineSet
87.7431640625 25.5498046875 m 0
 87.7431640625 28.099609375 88.5927734375 31.5 88.5927734375 34.900390625 c 0
 90.29296875 49.349609375 97.0927734375 62.099609375 106.443359375 74.849609375 c 0
 215.243164062 210.849609375 308.743164062 331.549804688 387.79296875 437.799804688 c 0
 437.943359375 502.400390625 491.493164062 576.349609375 548.443359375 658.799804688 c 0
 554.392578125 666.450195312 559.493164062 672.400390625 566.29296875 675.799804688 c 0
 573.092773438 679.200195312 579.04296875 681.75 584.142578125 681.75 c 0
 589.243164062 681.75 593.493164062 680.049804688 598.592773438 678.349609375 c 0
 603.693359375 674.950195312 607.092773438 669.849609375 607.092773438 663.049804688 c 0
 607.092773438 655.400390625 601.142578125 645.200195312 593.493164062 632.450195312 c 0
 573.092773438 603.549804688 518.693359375 533 429.443359375 419.950195312 c 0
 340.193359375 306.900390625 285.79296875 237.200195312 266.243164062 209.150390625 c 0
 253.493164062 191.299804688 233.092773438 161.549804688 204.193359375 119.900390625 c 0
 175.29296875 78.25 157.443359375 52.75 150.642578125 43.400390625 c 0
 139.592773438 28.9501953125 126.842773438 19.599609375 114.092773438 13.650390625 c 0
 108.142578125 11.9501953125 103.892578125 10.25 100.493164062 10.25 c 0
 97.0927734375 10.25 93.693359375 11.099609375 91.9931640625 12.7998046875 c 2
 91.142578125 12.7998046875 l 2
 89.443359375 14.5 87.7431640625 19.599609375 87.7431640625 25.5498046875 c 0
EndSplineSet
Validated: 524289
EndChar

StartChar: zero
Encoding: 48 48 26
Width: 550
VWidth: 902
GlyphClass: 2
Flags: HMW
HStem: 41.85 51<274.258 274.683> 603.7 48.45<409.408 410.258>
VStem: 148.458 65.45<165.525 231.4>
LayerCount: 2
Fore
SplineSet
157.80859375 231.400390625 m 0
 158.658203125 237.349609375 161.208007812 251.799804688 166.30859375 273.900390625 c 0
 171.408203125 296 175.658203125 313.849609375 179.05859375 327.450195312 c 0
 182.458007812 341.049804688 187.55859375 358.900390625 193.508789062 381.849609375 c 0
 199.458007812 404.799804688 205.408203125 424.349609375 210.508789062 441.349609375 c 0
 215.608398438 458.349609375 222.408203125 477.049804688 230.908203125 495.75 c 0
 239.408203125 514.450195312 247.05859375 532.299804688 254.708007812 546.75 c 0
 273.408203125 581.599609375 297.208007812 607.099609375 326.958007812 624.950195312 c 0
 356.708007812 642.799804688 390.708007812 652.150390625 428.108398438 652.150390625 c 0
 446.80859375 652.150390625 464.658203125 648.75 479.958007812 641.099609375 c 0
 495.258789062 633.450195312 508.008789062 622.400390625 518.208007812 608.799804688 c 0
 528.408203125 595.200195312 535.208007812 577.349609375 539.458007812 554.400390625 c 0
 541.158203125 543.349609375 542.008789062 531.450195312 542.008789062 517.849609375 c 0
 542.008789062 504.25 540.30859375 490.650390625 538.608398438 473.650390625 c 0
 534.358398438 445.599609375 527.55859375 413.299804688 519.908203125 377.599609375 c 0
 512.258789062 341.900390625 502.908203125 305.349609375 492.708007812 269.650390625 c 0
 482.508789062 233.950195312 473.158203125 205.900390625 463.80859375 187.200195312 c 0
 446.80859375 151.5 429.80859375 121.75 412.80859375 100.5 c 0
 405.158203125 90.2998046875 398.358398438 80.9501953125 389.008789062 74.150390625 c 0
 379.658203125 67.349609375 371.158203125 61.400390625 362.658203125 57.150390625 c 0
 354.158203125 52.900390625 344.80859375 49.5 334.608398438 47.7998046875 c 0
 324.408203125 46.099609375 314.208007812 43.5498046875 304.008789062 42.7001953125 c 0
 293.80859375 41.849609375 281.908203125 41.849609375 267.458007812 41.849609375 c 0
 246.208007812 41.849609375 226.658203125 46.099609375 208.80859375 54.599609375 c 0
 190.958007812 63.099609375 178.208007812 75 168.008789062 91.150390625 c 0
 157.80859375 107.299804688 151.008789062 126.849609375 149.30859375 150.650390625 c 0
 149.30859375 156.599609375 148.458007812 162.549804688 148.458007812 168.5 c 0
 148.458007812 187.200195312 151.858398438 208.450195312 157.80859375 231.400390625 c 0
329.508789062 575.650390625 m 0
 309.958007812 556.950195312 292.108398438 527.200195312 275.108398438 486.400390625 c 0
 269.158203125 471.950195312 263.208007812 454.099609375 258.108398438 435.400390625 c 0
 253.008789062 416.700195312 247.05859375 393.75 241.108398438 366.549804688 c 0
 235.158203125 339.349609375 230.908203125 319.799804688 229.208007812 308.75 c 2
 217.30859375 249.25 l 2
 217.30859375 247.549804688 215.608398438 244.150390625 215.608398438 239.900390625 c 0
 215.608398438 235.650390625 213.908203125 232.25 213.908203125 230.549804688 c 2
 201.158203125 188.049804688 l 1
 231.758789062 220.349609375 l 1
 318.458007812 324.900390625 399.208007812 432 476.55859375 541.650390625 c 1
 480.80859375 545.900390625 l 1
 478.258789062 551.849609375 l 2
 470.608398438 568.849609375 460.408203125 580.75 446.80859375 590.099609375 c 0
 434.05859375 599.450195312 418.758789062 603.700195312 401.758789062 603.700195312 c 0
 373.708007812 603.700195312 349.05859375 594.349609375 329.508789062 575.650390625 c 0
319.30859375 97.099609375 m 0
 330.358398438 99.650390625 342.258789062 103.900390625 353.30859375 111.549804688 c 0
 376.258789062 125.150390625 395.80859375 151.5 413.658203125 189.75 c 0
 417.05859375 197.400390625 423.008789062 216.950195312 431.508789062 247.549804688 c 0
 440.858398438 278.150390625 451.05859375 313 461.258789062 352.950195312 c 0
 471.458007812 392.900390625 478.258789062 431.150390625 484.208007812 467.700195312 c 2
 491.008789062 512.75 l 1
 465.508789062 475.349609375 l 1
 386.458007812 351.25 304.008789062 247.549804688 215.608398438 163.400390625 c 1
 211.358398438 160 l 1
 212.208007812 154.049804688 l 2
 216.458007812 131.099609375 225.80859375 114.950195312 240.258789062 104.75 c 0
 251.30859375 97.099609375 265.758789062 92.849609375 282.758789062 92.849609375 c 0
 296.358398438 92.849609375 308.258789062 94.5498046875 319.30859375 97.099609375 c 0
EndSplineSet
Validated: 524289
EndChar

StartChar: one
Encoding: 49 49 27
Width: 550
VWidth: 904
GlyphClass: 2
Flags: HMW
HStem: 56.625 56.95
LayerCount: 2
Fore
SplineSet
465.091796875 94.025390625 m 2
 465.091796875 88.0751953125 l 2
 463.392578125 78.724609375 459.142578125 71.9248046875 453.192382812 65.974609375 c 0
 447.2421875 60.025390625 437.892578125 56.625 425.142578125 56.625 c 0
 252.591796875 58.3251953125 154.841796875 60.025390625 136.142578125 60.025390625 c 0
 128.4921875 60.025390625 124.2421875 61.724609375 122.541992188 65.125 c 0
 120.841796875 67.6748046875 119.142578125 70.224609375 119.142578125 73.625 c 0
 119.142578125 77.025390625 120.841796875 80.4248046875 120.841796875 83.8251953125 c 0
 122.541992188 93.1748046875 125.091796875 100.825195312 131.041992188 106.775390625 c 0
 136.9921875 112.724609375 144.642578125 115.275390625 153.9921875 115.275390625 c 0
 177.791992188 115.275390625 218.591796875 114.424804688 275.541992188 113.575195312 c 1
 281.4921875 141.625 286.591796875 163.724609375 288.291992188 178.174804688 c 0
 288.291992188 182.424804688 290.841796875 196.875 295.942382812 221.525390625 c 2
 307.841796875 276.775390625 l 2
 309.541992188 287.825195312 315.4921875 309.075195312 322.291992188 339.674804688 c 0
 329.091796875 370.275390625 335.041992188 393.224609375 338.442382812 408.525390625 c 0
 351.192382812 462.924804688 363.942382812 520.724609375 380.942382812 581.075195312 c 1
 357.9921875 562.375 l 2
 318.041992188 528.375 289.142578125 507.974609375 272.142578125 500.325195312 c 0
 270.442382812 499.474609375 268.7421875 498.625 267.041992188 498.625 c 0
 263.642578125 498.625 259.392578125 502.025390625 255.9921875 506.275390625 c 0
 251.7421875 512.224609375 250.892578125 517.325195312 250.892578125 522.424804688 c 0
 250.892578125 524.125 251.7421875 525.825195312 251.7421875 527.525390625 c 0
 252.591796875 535.174804688 255.142578125 541.974609375 259.392578125 547.924804688 c 0
 263.642578125 553.875 269.591796875 559.825195312 278.942382812 567.474609375 c 0
 295.091796875 580.224609375 311.2421875 594.674804688 329.091796875 609.125 c 2
 369.041992188 642.275390625 l 2
 378.392578125 648.224609375 386.892578125 653.325195312 394.541992188 657.575195312 c 0
 402.192382812 661.825195312 408.142578125 664.375 412.392578125 664.375 c 0
 420.041992188 664.375 427.692382812 660.125 435.341796875 652.474609375 c 0
 441.291992188 646.525390625 445.541992188 641.424804688 445.541992188 637.174804688 c 2
 445.541992188 636.325195312 l 1
 445.541992188 636.325195312 433.642578125 592.125 410.692382812 503.724609375 c 0
 387.7421875 419.575195312 374.9921875 371.125 372.442382812 357.525390625 c 0
 360.541992188 300.575195312 350.341796875 252.974609375 342.692382812 215.575195312 c 0
 338.442382812 194.325195312 331.642578125 159.474609375 323.9921875 111.025390625 c 1
 345.2421875 111.025390625 374.142578125 110.174804688 408.142578125 109.325195312 c 0
 426.841796875 109.325195312 439.591796875 108.474609375 444.692382812 108.474609375 c 0
 449.791992188 108.474609375 454.892578125 107.625 457.442382812 106.775390625 c 0
 459.9921875 105.924804688 462.541992188 104.224609375 462.541992188 103.375 c 0
 464.2421875 101.674804688 465.091796875 98.275390625 465.091796875 94.025390625 c 2
EndSplineSet
Validated: 524289
EndChar

StartChar: two
Encoding: 50 50 28
Width: 550
VWidth: 902
GlyphClass: 2
Flags: HMW
HStem: 48.475 50.15 52.725 54.4<427.105 432.205> 605.225 51<409.68 419.88>
VStem: 488.305 57.8<544.45 547.425>
LayerCount: 2
Fore
SplineSet
275.805664062 48.474609375 m 0xb0
 252.85546875 47.625 228.206054688 46.775390625 201.85546875 46.775390625 c 0
 175.505859375 46.775390625 155.10546875 47.625 140.655273438 49.3251953125 c 0
 137.255859375 49.3251953125 135.555664062 51.875 133.85546875 53.5751953125 c 0
 131.305664062 56.974609375 128.755859375 62.9248046875 128.755859375 72.275390625 c 0
 128.755859375 85.025390625 133.005859375 101.174804688 137.255859375 121.575195312 c 0
 143.206054688 144.525390625 152.555664062 169.174804688 167.85546875 194.674804688 c 0
 183.155273438 220.174804688 202.706054688 245.674804688 227.35546875 270.325195312 c 0
 250.305664062 294.125 273.255859375 313.674804688 297.905273438 328.125 c 0
 356.555664062 362.974609375 396.505859375 386.775390625 414.35546875 400.375 c 0
 439.005859375 419.075195312 457.706054688 440.325195312 468.755859375 462.424804688 c 0
 474.706054688 474.325195312 480.655273438 489.625 484.905273438 508.325195312 c 0
 486.60546875 519.375 488.305664062 528.724609375 488.305664062 538.075195312 c 0
 488.305664062 556.775390625 483.206054688 571.224609375 473.005859375 582.275390625 c 0
 458.555664062 597.575195312 434.755859375 605.224609375 405.005859375 605.224609375 c 0
 384.60546875 605.224609375 365.055664062 598.424804688 343.805664062 583.974609375 c 0
 322.555664062 569.525390625 305.555664062 554.224609375 291.956054688 536.375 c 0
 280.905273438 522.775390625 272.405273438 515.125 267.305664062 515.125 c 2
 263.905273438 515.125 l 2
 263.055664062 515.125 261.35546875 515.125 259.655273438 515.974609375 c 0
 257.956054688 516.825195312 253.706054688 519.375 249.456054688 521.075195312 c 0
 245.206054688 523.625 244.35546875 527.875 244.35546875 533.825195312 c 0
 244.35546875 538.924804688 249.456054688 549.125 257.10546875 565.275390625 c 0
 263.055664062 575.474609375 271.555664062 585.674804688 282.60546875 595.875 c 0
 293.655273438 606.075195312 306.405273438 615.424804688 320.85546875 624.775390625 c 0
 335.305664062 634.125 351.456054688 641.775390625 368.456054688 647.724609375 c 0
 385.456054688 653.674804688 401.60546875 656.224609375 417.755859375 656.224609375 c 0
 470.456054688 656.224609375 506.155273438 643.474609375 527.405273438 617.125 c 0
 540.155273438 600.974609375 546.10546875 579.724609375 546.10546875 552.525390625 c 0
 546.10546875 536.375 544.405273438 518.525390625 540.155273438 498.974609375 c 0
 529.10546875 453.924804688 509.555664062 418.224609375 482.35546875 391.025390625 c 0
 461.956054688 370.625 429.655273438 347.674804688 386.305664062 323.025390625 c 0
 372.706054688 314.525390625 355.706054688 304.325195312 332.755859375 291.575195312 c 0
 307.255859375 277.974609375 284.305664062 261.825195312 265.60546875 242.275390625 c 0
 246.905273438 222.724609375 232.456054688 202.325195312 221.405273438 181.075195312 c 0
 210.35546875 160.674804688 200.155273438 138.575195312 193.35546875 114.775390625 c 2
 189.956054688 102.025390625 l 1
 229.905273438 100.325195312 263.905273438 98.625 291.956054688 98.625 c 0
 313.206054688 98.625 329.35546875 99.474609375 342.956054688 100.325195312 c 0
 356.555664062 101.174804688 367.60546875 102.025390625 376.956054688 102.875 c 0
 386.305664062 103.724609375 402.456054688 105.424804688 427.10546875 107.125 c 2x70
 434.755859375 107.125 l 2
 438.155273438 107.125 441.555664062 107.974609375 444.956054688 107.974609375 c 0
 448.35546875 107.974609375 451.755859375 107.125 453.456054688 107.125 c 0
 454.305664062 106.275390625 456.005859375 104.575195312 457.706054688 103.724609375 c 2
 457.706054688 100.325195312 l 1
 457.706054688 96.9248046875 l 2
 457.706054688 90.974609375 456.005859375 84.1748046875 453.456054688 77.375 c 0
 450.905273438 70.5751953125 445.805664062 64.625 440.706054688 59.525390625 c 0
 437.305664062 55.275390625 433.905273438 52.724609375 430.505859375 52.724609375 c 0
 396.505859375 52.724609375 346.35546875 51.875 275.805664062 48.474609375 c 0xb0
EndSplineSet
Validated: 524289
EndChar

StartChar: three
Encoding: 51 51 29
Width: 550
VWidth: 902
GlyphClass: 2
Flags: HMW
HStem: 42.15 51<282.5 301.2> 332.85 64.6<308 325.425> 604.85 51<391.3 403.2>
VStem: 424.875 62.9<234.675 282.7> 477.575 58.65<549.175 550.025>
LayerCount: 2
Fore
SplineSet
481.825195312 223.200195312 m 0xf0
 469.075195312 167.950195312 443.575195312 123.75 406.17578125 90.599609375 c 0
 370.475585938 58.2998046875 327.125976562 42.150390625 275.275390625 42.150390625 c 0
 259.125976562 42.150390625 243.825195312 44.7001953125 228.525390625 50.650390625 c 0
 213.225585938 55.75 200.475585938 62.5498046875 189.42578125 71.0498046875 c 0
 178.375976562 79.5498046875 169.025390625 89.75 161.375976562 99.9501953125 c 0
 153.725585938 110.150390625 148.625976562 120.349609375 146.92578125 129.700195312 c 0
 146.075195312 133.950195312 145.225585938 138.200195312 145.225585938 143.299804688 c 0
 145.225585938 148.400390625 146.92578125 153.5 148.625976562 158.599609375 c 0
 152.875976562 167.099609375 157.975585938 173.049804688 164.775390625 176.450195312 c 0
 171.575195312 179.849609375 177.525390625 181.549804688 181.775390625 181.549804688 c 0
 183.475585938 181.549804688 186.025390625 180.700195312 187.725585938 180.700195312 c 0
 193.67578125 179 197.92578125 173.900390625 202.17578125 164.549804688 c 0
 209.825195312 145.849609375 221.725585938 128.849609375 238.725585938 114.400390625 c 0
 254.025390625 99.9501953125 271.875976562 93.150390625 293.125976562 93.150390625 c 0
 323.725585938 93.150390625 350.92578125 103.349609375 374.725585938 123.75 c 0
 398.525390625 144.150390625 414.67578125 171.349609375 421.475585938 204.5 c 0
 423.17578125 217.25 424.875976562 229.150390625 424.875976562 240.200195312 c 0
 424.875976562 263.150390625 419.775390625 282.700195312 407.025390625 298 c 0
 388.325195312 320.950195312 351.775390625 332.849609375 299.075195312 332.849609375 c 0
 296.525390625 332.849609375 293.125976562 334.549804688 291.42578125 335.400390625 c 0
 289.725585938 336.25 287.17578125 338.799804688 285.475585938 342.200195312 c 0
 282.92578125 346.450195312 281.225585938 351.549804688 281.225585938 357.5 c 0
 281.225585938 359.200195312 282.075195312 362.599609375 282.075195312 365.150390625 c 0
 283.775390625 375.349609375 288.025390625 383 293.125976562 388.950195312 c 0
 298.225585938 394.900390625 304.17578125 397.450195312 311.825195312 397.450195312 c 0
 353.475585938 397.450195312 388.325195312 407.650390625 416.375976562 428.049804688 c 0
 446.975585938 448.450195312 466.525390625 478.200195312 474.17578125 516.450195312 c 0
 475.875976562 525.799804688 477.575195312 533.450195312 477.575195312 541.099609375 c 0xe8
 477.575195312 558.950195312 471.625976562 572.549804688 458.875976562 583.599609375 c 0
 441.875976562 598.049804688 418.92578125 604.849609375 387.475585938 604.849609375 c 0
 377.275390625 604.849609375 366.225585938 602.299804688 354.325195312 598.049804688 c 0
 350.075195312 596.349609375 344.975585938 592.950195312 339.875976562 589.549804688 c 0
 334.775390625 586.150390625 330.525390625 582.75 327.975585938 581.049804688 c 0
 325.42578125 579.349609375 322.025390625 574.25 316.92578125 569.150390625 c 2
 305.875976562 558.099609375 l 2
 304.17578125 556.400390625 300.775390625 551.299804688 296.525390625 545.349609375 c 0
 287.17578125 534.299804688 279.525390625 528.349609375 273.575195312 526.650390625 c 0
 271.875976562 526.650390625 270.17578125 525.799804688 268.475585938 525.799804688 c 0
 264.225585938 525.799804688 260.825195312 527.5 256.575195312 530.049804688 c 0
 254.875976562 531.75 252.325195312 533.450195312 251.475585938 535.150390625 c 0
 250.625976562 536.849609375 250.625976562 540.25 250.625976562 542.799804688 c 0
 250.625976562 552.150390625 254.875976562 562.349609375 262.525390625 575.099609375 c 0
 275.275390625 596.349609375 293.125976562 615.049804688 315.225585938 630.349609375 c 0
 326.275390625 638 339.875976562 644.799804688 354.325195312 649.049804688 c 0
 368.775390625 653.299804688 383.225585938 655.849609375 399.375976562 655.849609375 c 0
 453.775390625 655.849609375 492.875976562 643.099609375 514.975585938 618.450195312 c 0
 529.42578125 603.150390625 536.225585938 582.75 536.225585938 556.400390625 c 0
 536.225585938 541.950195312 533.67578125 524.950195312 529.42578125 507.099609375 c 0
 526.025390625 490.950195312 520.92578125 477.349609375 514.125976562 464.599609375 c 0
 507.325195312 451.849609375 499.67578125 441.650390625 491.17578125 433.150390625 c 0
 482.67578125 424.650390625 473.325195312 417 462.275390625 410.200195312 c 0
 451.225585938 403.400390625 441.025390625 399.150390625 430.825195312 394.900390625 c 0
 421.475585938 390.650390625 411.275390625 387.25 400.225585938 385.549804688 c 2
 359.42578125 376.200195312 l 1
 400.225585938 365.150390625 l 2
 418.075195312 360.900390625 432.525390625 354.950195312 444.42578125 348.150390625 c 0
 456.325195312 341.349609375 466.525390625 332.849609375 474.17578125 321.799804688 c 0
 483.525390625 309.049804688 487.775390625 292.900390625 487.775390625 272.5 c 0
 487.775390625 258.049804688 486.075195312 241.049804688 481.825195312 223.200195312 c 0xf0
EndSplineSet
Validated: 524289
EndChar

StartChar: four
Encoding: 52 52 30
Width: 550
VWidth: 902
GlyphClass: 2
Flags: HMW
HStem: 253.25 46.75<309.873 398.698 387.648 388.498>
VStem: 351.098 42.5 351.098 53.55<67.1 105.35 68.8 105.35>
LayerCount: 2
Fore
SplineSet
357.047851562 51.7998046875 m 0xa0
 352.797851562 56.900390625 351.09765625 62 351.09765625 67.099609375 c 2
 351.09765625 68.7998046875 l 1
 355.34765625 86.650390625 362.147460938 118.950195312 371.498046875 166.549804688 c 2
 388.498046875 253.25 l 1
 344.297851562 253.25 l 2
 275.448242188 253.25 224.448242188 249.849609375 189.59765625 242.200195312 c 0
 186.198242188 242.200195312 182.797851562 241.349609375 180.248046875 241.349609375 c 0
 177.698242188 241.349609375 174.297851562 241.349609375 172.59765625 242.200195312 c 0
 169.198242188 243.900390625 166.647460938 246.450195312 164.948242188 249 c 0
 163.248046875 254.950195312 161.547851562 261.75 161.547851562 269.400390625 c 0
 161.547851562 273.650390625 163.248046875 278.75 164.09765625 285.549804688 c 0
 164.948242188 292.349609375 167.498046875 299.150390625 170.897460938 305.099609375 c 0
 180.248046875 320.400390625 199.797851562 345.900390625 231.248046875 381.599609375 c 0
 260.998046875 417.299804688 296.698242188 460.650390625 339.198242188 513.349609375 c 0
 381.698242188 566.049804688 413.998046875 605.150390625 434.397460938 629.799804688 c 0
 442.897460938 639.150390625 451.397460938 646.799804688 459.897460938 651.900390625 c 0
 468.397460938 657 476.047851562 658.700195312 481.998046875 658.700195312 c 2
 482.84765625 658.700195312 l 1
 487.948242188 658.700195312 l 2
 493.897460938 658.700195312 499.84765625 657 504.09765625 654.450195312 c 0
 508.34765625 651.900390625 510.047851562 646.799804688 510.047851562 640 c 2
 510.047851562 640 509.198242188 638.299804688 509.198242188 637.450195312 c 0
 508.34765625 617.900390625 503.248046875 587.299804688 495.59765625 546.5 c 0
 487.948242188 505.700195312 481.147460938 470 475.198242188 441.950195312 c 2
 444.59765625 300 l 1
 462.448242188 300 476.897460938 299.150390625 487.948242188 299.150390625 c 0
 496.448242188 299.150390625 501.547851562 296.599609375 503.248046875 294.900390625 c 0
 504.948242188 291.5 504.948242188 286.400390625 504.09765625 279.599609375 c 0
 502.397460938 270.25 498.147460938 262.599609375 493.897460938 258.349609375 c 0
 488.797851562 252.400390625 481.998046875 249.849609375 471.797851562 249.849609375 c 0
 461.59765625 249.849609375 448.84765625 250.700195312 434.397460938 251.549804688 c 1
 415.698242188 162.299804688 404.647460938 111.299804688 404.647460938 99.400390625 c 0
 404.647460938 83.25 400.397460938 69.650390625 393.59765625 58.599609375 c 0xc0
 387.647460938 48.400390625 380.84765625 43.2998046875 373.198242188 43.2998046875 c 0
 367.248046875 43.2998046875 362.147460938 45.849609375 357.047851562 51.7998046875 c 0xa0
457.34765625 596.650390625 m 1
 433.547851562 571.150390625 l 1
 340.897460938 461.5 274.59765625 375.650390625 235.498046875 314.450195312 c 2
 223.59765625 296.599609375 l 1
 244.84765625 298.299804688 l 2
 272.047851562 300 305.198242188 300.849609375 342.59765625 300.849609375 c 0
 357.897460938 300.849609375 376.59765625 300 398.698242188 300 c 1
 423.34765625 412.200195312 440.34765625 499.75 451.397460938 562.650390625 c 2
 457.34765625 596.650390625 l 1
EndSplineSet
Validated: 524289
EndChar

StartChar: five
Encoding: 53 53 31
Width: 550
VWidth: 902
GlyphClass: 2
Flags: HMW
HStem: 46.95 51<272.297 286.747> 420.1 54.4<375.572 426.997> 590.1 52.7<517.947 567.247 554.072 567.247> 595.2 51.85
VStem: 454.622 59.5<330 374.625>
LayerCount: 2
Fore
SplineSet
508.171875 306.200195312 m 0xd8
 498.822265625 264.549804688 485.221679688 228 468.221679688 194.849609375 c 0
 452.072265625 161.700195312 433.372070312 134.5 413.822265625 113.25 c 0
 394.272460938 92 372.171875 75 348.372070312 63.9501953125 c 0
 324.572265625 52.900390625 299.921875 46.9501953125 273.572265625 46.9501953125 c 0
 253.171875 46.9501953125 233.622070312 49.5 216.622070312 54.599609375 c 0
 198.772460938 59.7001953125 185.171875 66.5 174.971679688 74.150390625 c 0
 164.772460938 81.7998046875 157.971679688 90.2998046875 152.022460938 99.650390625 c 0
 146.072265625 109 140.971679688 118.349609375 138.421875 127.700195312 c 0
 137.572265625 133.650390625 137.572265625 138.75 137.572265625 143.849609375 c 0
 137.572265625 148.950195312 137.572265625 154.900390625 139.272460938 159.150390625 c 0
 142.671875 165.950195312 148.622070312 171.049804688 156.272460938 175.299804688 c 0
 165.622070312 179.549804688 172.421875 181.25 175.822265625 181.25 c 0
 176.671875 181.25 178.372070312 180.400390625 180.072265625 180.400390625 c 0
 181.772460938 180.400390625 184.322265625 179.549804688 185.171875 177.849609375 c 0
 186.872070312 174.450195312 189.421875 169.349609375 191.971679688 163.400390625 c 0
 201.322265625 139.599609375 214.921875 122.599609375 232.772460938 111.549804688 c 0
 247.221679688 102.200195312 263.372070312 97.9501953125 281.221679688 97.9501953125 c 0
 319.471679688 97.9501953125 355.171875 115.799804688 385.772460938 151.5 c 0
 415.522460938 187.200195312 436.772460938 233.099609375 449.522460938 291.75 c 0
 452.921875 308.75 454.622070312 323.200195312 454.622070312 336.799804688 c 0
 454.622070312 354.650390625 451.221679688 369.950195312 445.272460938 382.700195312 c 0
 439.322265625 396.299804688 430.822265625 406.5 418.072265625 412.450195312 c 0
 407.872070312 417.549804688 395.971679688 420.099609375 382.372070312 420.099609375 c 0
 368.772460938 420.099609375 354.322265625 417.549804688 339.872070312 414.150390625 c 0
 331.372070312 412.450195312 321.171875 407.349609375 307.572265625 399.700195312 c 0
 304.171875 398 299.072265625 394.599609375 293.122070312 390.349609375 c 0
 287.171875 386.099609375 282.921875 382.700195312 281.221679688 381 c 0
 279.522460938 379.299804688 271.872070312 371.650390625 259.122070312 360.599609375 c 0
 249.772460938 352.950195312 238.721679688 347.849609375 226.822265625 347 c 0
 225.971679688 347 225.122070312 346.150390625 224.272460938 346.150390625 c 0
 220.022460938 346.150390625 215.772460938 347.849609375 211.522460938 349.549804688 c 0
 205.572265625 352.099609375 203.022460938 361.450195312 203.022460938 377.599609375 c 0
 203.022460938 388.650390625 204.721679688 402.25 208.122070312 419.25 c 0
 211.522460938 436.25 215.772460938 454.099609375 220.872070312 471.950195312 c 0
 225.971679688 489.799804688 231.921875 509.349609375 237.872070312 530.599609375 c 0
 243.822265625 551.849609375 247.221679688 567.150390625 248.921875 578.200195312 c 1
 248.072265625 581.599609375 l 2
 246.372070312 585 245.522460938 589.25 245.522460938 594.349609375 c 0
 245.522460938 596.049804688 246.372070312 599.450195312 246.372070312 601.150390625 c 0
 246.372070312 609.650390625 248.921875 617.299804688 252.322265625 624.099609375 c 0
 255.721679688 630.900390625 259.122070312 636 264.221679688 640.25 c 0
 269.322265625 644.5 274.421875 647.049804688 278.671875 647.049804688 c 0
 296.522460938 647.049804688 337.322265625 646.200195312 403.622070312 645.349609375 c 0
 472.471679688 644.5 526.022460938 643.650390625 563.421875 643.650390625 c 0
 564.272460938 643.650390625 565.971679688 642.799804688 566.822265625 642.799804688 c 0xe8
 567.671875 642.799804688 568.522460938 641.099609375 568.522460938 640.25 c 0
 570.221679688 636 571.921875 631.75 571.921875 626.650390625 c 2
 571.921875 623.25 l 2
 571.921875 616.450195312 569.372070312 610.5 567.671875 604.549804688 c 0
 566.822265625 602 565.122070312 599.450195312 564.272460938 597.75 c 0
 563.421875 596.049804688 561.721679688 593.5 560.022460938 592.650390625 c 0
 558.322265625 591.799804688 556.622070312 590.099609375 554.921875 590.099609375 c 0
 553.221679688 590.099609375 549.822265625 588.400390625 547.272460938 588.400390625 c 2
 541.322265625 588.400390625 l 2
 540.471679688 588.400390625 537.072265625 589.25 532.822265625 589.25 c 0
 528.572265625 589.25 524.322265625 590.099609375 520.072265625 590.099609375 c 0
 515.822265625 590.099609375 504.772460938 590.950195312 486.921875 592.650390625 c 0
 469.072265625 594.349609375 452.921875 596.049804688 439.322265625 596.900390625 c 0
 425.721679688 597.75 407.872070312 598.599609375 383.221679688 598.599609375 c 0
 358.572265625 598.599609375 329.671875 596.900390625 298.221679688 595.200195312 c 1
 295.671875 584.150390625 291.421875 565.450195312 284.622070312 538.25 c 0
 277.822265625 511.049804688 273.572265625 491.5 271.022460938 478.75 c 0
 268.471679688 466 263.372070312 437.950195312 254.872070312 394.599609375 c 1
 276.122070312 417.549804688 l 2
 293.122070312 434.549804688 312.671875 447.299804688 337.322265625 458.349609375 c 0
 361.971679688 469.400390625 389.171875 474.5 417.221679688 474.5 c 0
 436.772460938 474.5 453.772460938 470.25 467.372070312 461.75 c 0
 482.671875 454.099609375 492.022460938 442.200195312 499.671875 427.75 c 0
 509.022460938 409.900390625 514.122070312 387.799804688 514.122070312 361.450195312 c 0
 514.122070312 343.599609375 512.421875 324.900390625 508.171875 306.200195312 c 0xd8
EndSplineSet
Validated: 524289
EndChar

StartChar: six
Encoding: 54 54 32
Width: 550
VWidth: 903
GlyphClass: 2
Flags: HMW
HStem: 45.125 51<270.335 299.66> 397.875 54.4<353.635 410.585>
VStem: 156.86 49.3<212.15 216.825> 448.41 60.35<307.775 357.925>
LayerCount: 2
Fore
SplineSet
498.559570312 264.424804688 m 0
 491.759765625 234.674804688 479.859375 204.924804688 463.709960938 177.724609375 c 0
 447.559570312 150.525390625 429.709960938 126.724609375 410.159179688 108.025390625 c 0
 392.309570312 89.3251953125 372.759765625 73.1748046875 350.659179688 62.125 c 0
 328.559570312 51.0751953125 306.459960938 45.125 284.359375 45.125 c 0
 256.309570312 45.125 231.659179688 51.0751953125 212.109375 63.8251953125 c 0
 192.559570312 76.5751953125 178.959960938 94.4248046875 170.459960938 117.375 c 0
 161.959960938 140.325195312 156.859375 167.525390625 156.859375 198.974609375 c 0
 156.859375 234.674804688 162.809570312 274.625 173.859375 319.674804688 c 0
 184.909179688 368.125 199.359375 411.474609375 217.209960938 448.875 c 0
 235.059570312 486.275390625 253.759765625 518.575195312 272.459960938 544.924804688 c 0
 290.309570312 571.275390625 310.709960938 593.375 332.809570312 611.224609375 c 0
 354.909179688 629.075195312 378.709960938 642.674804688 402.509765625 652.025390625 c 0
 428.009765625 661.375 456.059570312 667.325195312 487.509765625 669.875 c 2
 493.459960938 669.875 l 2
 501.109375 669.875 507.909179688 668.174804688 512.159179688 665.625 c 0
 513.859375 664.775390625 514.709960938 662.224609375 515.559570312 660.525390625 c 0
 516.409179688 658.825195312 517.259765625 656.275390625 517.259765625 655.424804688 c 2
 517.259765625 652.025390625 l 2
 517.259765625 647.775390625 513.009765625 641.825195312 505.359375 635.025390625 c 0
 497.709960938 628.224609375 490.909179688 623.125 483.259765625 621.424804688 c 0
 477.309570312 620.575195312 467.959960938 618.025390625 455.209960938 615.474609375 c 0
 442.459960938 612.924804688 431.409179688 609.525390625 422.059570312 606.974609375 c 0
 413.559570312 604.424804688 403.359375 600.174804688 392.309570312 595.075195312 c 0
 369.359375 584.025390625 343.859375 564.474609375 317.509765625 535.575195312 c 0
 303.909179688 520.275390625 290.309570312 499.875 275.859375 473.525390625 c 0
 261.409179688 447.174804688 250.359375 424.224609375 242.709960938 403.825195312 c 2
 227.409179688 361.325195312 l 1
 259.709960938 392.775390625 l 2
 277.559570312 412.325195312 298.809570312 427.625 322.609375 437.825195312 c 0
 346.409179688 448.025390625 372.759765625 452.275390625 399.959960938 452.275390625 c 0
 421.209960938 452.275390625 439.909179688 449.724609375 456.059570312 442.924804688 c 0
 472.209960938 436.125 483.259765625 425.924804688 492.609375 411.474609375 c 0
 503.659179688 394.474609375 508.759765625 372.375 508.759765625 343.474609375 c 0
 508.759765625 320.525390625 505.359375 294.174804688 498.559570312 264.424804688 c 0
292.009765625 374.924804688 m 0
 267.359375 359.625 244.409179688 340.075195312 224.009765625 316.275390625 c 2
 222.309570312 314.575195312 l 1
 215.509765625 288.224609375 210.409179688 266.974609375 208.709960938 250.825195312 c 0
 207.009765625 241.474609375 206.159179688 231.275390625 206.159179688 221.075195312 c 0
 206.159179688 203.224609375 208.709960938 186.224609375 213.809570312 169.224609375 c 0
 218.059570312 155.625 223.159179688 142.875 230.809570312 131.825195312 c 0
 238.459960938 120.775390625 247.809570312 112.275390625 260.559570312 105.474609375 c 0
 271.609375 99.525390625 284.359375 96.125 297.959960938 96.125 c 2
 299.659179688 96.125 l 2
 318.359375 96.125 338.759765625 103.775390625 357.459960938 119.924804688 c 0
 376.159179688 136.075195312 393.159179688 154.775390625 407.609375 178.575195312 c 0
 423.759765625 202.375 433.959960938 226.174804688 439.909179688 250.825195312 c 0
 445.859375 276.325195312 448.409179688 298.424804688 448.409179688 317.125 c 0
 448.409179688 338.375 444.159179688 355.375 435.659179688 367.275390625 c 0
 427.159179688 378.325195312 416.959960938 386.825195312 405.909179688 391.075195312 c 0
 394.859375 395.325195312 382.109375 397.875 365.959960938 397.875 c 0
 341.309570312 397.875 316.659179688 390.224609375 292.009765625 374.924804688 c 0
EndSplineSet
Validated: 524289
EndChar

StartChar: seven
Encoding: 55 55 33
Width: 550
VWidth: 901
GlyphClass: 2
Flags: HMW
HStem: 590.725 57.8
LayerCount: 2
Fore
SplineSet
559.619140625 588.174804688 m 0
 548.569335938 571.174804688 529.01953125 545.674804688 501.819335938 511.674804688 c 0
 475.469726562 477.674804688 447.418945312 441.974609375 421.069335938 406.275390625 c 0
 394.719726562 370.575195312 360.719726562 322.974609375 320.76953125 263.474609375 c 0
 280.819335938 203.974609375 240.869140625 142.775390625 200.918945312 79.875 c 0
 191.569335938 65.4248046875 182.219726562 55.224609375 172.01953125 49.275390625 c 0
 164.369140625 45.025390625 158.418945312 42.474609375 152.469726562 42.474609375 c 2
 148.219726562 42.474609375 l 2
 144.819335938 43.3251953125 141.418945312 45.875 139.719726562 48.4248046875 c 0
 138.01953125 50.974609375 137.168945312 54.375 137.168945312 59.474609375 c 0
 137.168945312 64.5751953125 139.719726562 72.224609375 144.819335938 83.275390625 c 0
 184.76953125 141.075195312 226.418945312 198.875 268.069335938 256.674804688 c 0
 308.01953125 314.474609375 342.01953125 359.525390625 368.369140625 394.375 c 0
 394.719726562 429.224609375 417.668945312 462.375 440.619140625 495.525390625 c 0
 463.569335938 528.674804688 481.418945312 555.025390625 492.469726562 575.424804688 c 2
 499.26953125 589.875 l 1
 482.26953125 590.724609375 l 2
 461.01953125 591.150390625 439.344726562 591.362304688 416.92578125 591.362304688 c 0
 394.506835938 591.362304688 371.344726562 591.150390625 347.119140625 590.724609375 c 0
 298.668945312 589.875 266.369140625 586.474609375 249.369140625 582.224609375 c 0
 247.668945312 582.224609375 245.969726562 581.375 245.119140625 581.375 c 0
 244.26953125 581.375 242.569335938 582.224609375 241.719726562 582.224609375 c 0
 240.01953125 583.075195312 237.469726562 585.625 236.619140625 587.325195312 c 0
 234.918945312 593.275390625 233.219726562 600.924804688 234.069335938 611.125 c 0
 235.76953125 617.924804688 240.01953125 623.875 244.26953125 628.974609375 c 0
 248.51953125 634.075195312 254.469726562 638.325195312 265.51953125 640.025390625 c 0
 291.869140625 645.974609375 336.069335938 648.525390625 395.569335938 648.525390625 c 0
 414.26953125 648.525390625 452.51953125 646.825195312 508.619140625 644.275390625 c 0
 535.819335938 643.424804688 550.26953125 642.575195312 551.969726562 642.575195312 c 0
 560.469726562 642.575195312 566.418945312 639.174804688 570.668945312 631.525390625 c 0
 571.51953125 629.825195312 573.219726562 626.424804688 573.219726562 623.875 c 0
 573.219726562 621.325195312 572.369140625 618.775390625 572.369140625 617.075195312 c 0
 571.51953125 609.424804688 567.26953125 599.224609375 559.619140625 588.174804688 c 0
EndSplineSet
Validated: 524289
EndChar

StartChar: eight
Encoding: 56 56 34
Width: 550
VWidth: 901
GlyphClass: 2
Flags: HMW
HStem: 38.15 51.85<282.756 286.581> 611.05 40.8<382.206 416.206 394.531 416.206>
VStem: 140.381 49.3<155.875 191.15> 231.331 51 443.831 56.95<236.625 263.825> 476.981 52.7<519.25 549.85>
LayerCount: 2
Fore
SplineSet
500.78125 259.150390625 m 0xf8
 500.78125 249.799804688 499.081054688 239.599609375 496.53125 227.700195312 c 0
 488.03125 190.299804688 471.03125 155.450195312 444.681640625 124 c 0
 430.231445312 107 416.630859375 93.400390625 400.481445312 80.650390625 c 0
 384.331054688 67.900390625 365.630859375 57.7001953125 343.53125 50.0498046875 c 0
 321.431640625 42.400390625 298.481445312 38.150390625 274.681640625 38.150390625 c 0
 250.03125 38.150390625 227.931640625 41.5498046875 210.081054688 49.2001953125 c 0
 192.231445312 56.849609375 177.78125 65.349609375 168.431640625 76.400390625 c 0
 159.081054688 87.4501953125 151.431640625 101.049804688 147.181640625 117.200195312 c 0
 142.931640625 133.349609375 140.380859375 147.799804688 140.380859375 163.950195312 c 0
 140.380859375 180.099609375 142.081054688 197.950195312 146.331054688 216.650390625 c 0
 150.581054688 234.5 159.081054688 253.200195312 172.681640625 274.450195312 c 0
 186.28125 295.700195312 204.130859375 315.25 224.53125 333.099609375 c 0
 243.231445312 351.799804688 263.630859375 364.549804688 282.331054688 371.349609375 c 2
 302.731445312 378.150390625 l 1
 284.03125 390.049804688 l 2
 263.630859375 402.799804688 249.181640625 418.950195312 240.681640625 440.200195312 c 0
 234.731445312 453.799804688 231.331054688 467.400390625 231.331054688 481 c 0
 231.331054688 488.650390625 232.181640625 496.299804688 233.880859375 503.099609375 c 0
 235.581054688 509.900390625 238.130859375 516.700195312 240.681640625 524.349609375 c 0
 242.380859375 532 246.630859375 539.650390625 251.731445312 549.849609375 c 0
 256.831054688 560.049804688 261.081054688 569.400390625 267.03125 578.75 c 0
 272.981445312 588.099609375 281.481445312 596.599609375 290.831054688 605.950195312 c 0
 300.181640625 615.299804688 309.53125 622.950195312 320.581054688 629.75 c 0
 331.630859375 636.549804688 344.380859375 641.650390625 359.681640625 645.900390625 c 0
 374.981445312 650.150390625 390.28125 651.849609375 407.28125 651.849609375 c 0
 425.130859375 651.849609375 440.431640625 650.150390625 455.731445312 645.900390625 c 0
 471.03125 641.650390625 482.931640625 636.549804688 491.431640625 630.599609375 c 0
 499.931640625 624.650390625 506.731445312 616.150390625 512.681640625 607.650390625 c 0
 518.630859375 599.150390625 523.731445312 590.650390625 525.431640625 582.150390625 c 0
 527.981445312 571.099609375 529.681640625 557.5 529.681640625 542.200195312 c 0xf4
 529.681640625 530.299804688 527.981445312 517.549804688 525.431640625 504.799804688 c 0
 524.581054688 498.849609375 522.03125 492.900390625 519.481445312 486.950195312 c 0
 516.931640625 481 513.53125 475.900390625 510.130859375 470.799804688 c 0
 506.731445312 465.700195312 501.630859375 460.599609375 496.53125 455.5 c 0
 491.431640625 450.400390625 486.331054688 446.150390625 482.081054688 441.900390625 c 0
 475.28125 435.950195312 461.681640625 426.599609375 442.130859375 413.849609375 c 2
 403.880859375 388.349609375 l 1
 419.181640625 379.849609375 l 2
 435.331054688 371.349609375 448.931640625 362 459.981445312 350.950195312 c 0
 471.03125 339.900390625 479.53125 329.700195312 485.481445312 319.5 c 0
 491.431640625 309.299804688 495.681640625 299.950195312 497.380859375 288.900390625 c 0
 499.081054688 277.849609375 500.78125 268.5 500.78125 259.150390625 c 0xf8
442.981445312 594.049804688 m 0
 428.53125 605.099609375 413.231445312 611.049804688 395.380859375 611.049804688 c 2
 394.53125 611.049804688 l 2
 369.880859375 611.049804688 347.78125 600.849609375 325.681640625 580.450195312 c 0
 303.581054688 560.049804688 289.981445312 536.25 284.880859375 511.599609375 c 0
 283.181640625 505.650390625 282.331054688 499.700195312 282.331054688 494.599609375 c 0
 282.331054688 478.450195312 287.431640625 464.849609375 297.630859375 452.099609375 c 0
 310.380859375 436.799804688 332.481445312 421.5 363.931640625 406.200195312 c 2
 367.331054688 404.5 l 1
 370.731445312 405.349609375 l 1
 393.681640625 415.549804688 414.931640625 429.150390625 435.331054688 447 c 0
 458.28125 464.849609375 471.03125 481.849609375 474.431640625 498.849609375 c 0
 476.130859375 506.5 476.981445312 515 476.981445312 523.5 c 0
 476.981445312 532 475.28125 541.349609375 472.731445312 550.700195312 c 0
 467.630859375 568.549804688 457.431640625 583 442.981445312 594.049804688 c 0
198.181640625 148.650390625 m 0
 207.53125 129.950195312 220.28125 114.650390625 238.130859375 105.299804688 c 0
 255.130859375 95.099609375 272.981445312 90 292.53125 90 c 0
 306.981445312 90 321.431640625 93.400390625 336.731445312 98.5 c 0
 352.03125 103.599609375 366.481445312 111.25 380.081054688 120.599609375 c 0
 393.681640625 129.950195312 405.581054688 142.700195312 416.630859375 158.849609375 c 0
 427.681640625 175 435.331054688 192 439.581054688 209.849609375 c 0
 442.130859375 220.900390625 443.831054688 231.950195312 443.831054688 241.299804688 c 0xf8
 443.831054688 249.799804688 442.130859375 259.150390625 439.581054688 270.200195312 c 0
 437.03125 281.25 432.78125 291.450195312 425.981445312 301.650390625 c 0
 420.03125 311.849609375 410.681640625 322.049804688 398.78125 332.25 c 0
 386.880859375 342.450195312 372.431640625 351.799804688 354.581054688 360.299804688 c 2
 352.03125 362 l 1
 348.630859375 361.150390625 l 2
 311.231445312 350.099609375 278.081054688 330.549804688 250.03125 302.5 c 0
 219.431640625 274.450195312 199.880859375 244.700195312 192.231445312 212.400390625 c 0
 190.53125 203.900390625 189.681640625 195.400390625 189.681640625 186.900390625 c 0
 189.681640625 173.299804688 192.231445312 160.549804688 198.181640625 148.650390625 c 0
EndSplineSet
Validated: 524289
EndChar

StartChar: nine
Encoding: 57 57 35
Width: 550
VWidth: 903
GlyphClass: 2
Flags: HMW
HStem: 264.5 54.4<298.487 352.887> 620.65 51<390.287 428.962 399.637 428.962>
VStem: 196.487 57.8<404.325 416.65> 493.137 48.45<497.825 504.625>
LayerCount: 2
Fore
SplineSet
522.037109375 378.400390625 m 0
 510.987304688 334.200195312 496.537109375 294.25 478.686523438 258.549804688 c 0
 460.836914062 222.849609375 440.436523438 191.400390625 420.037109375 166.75 c 0
 400.487304688 142.099609375 378.38671875 120.849609375 354.586914062 103 c 0
 330.787109375 85.150390625 306.13671875 72.400390625 280.63671875 63.0498046875 c 0
 253.436523438 53.7001953125 224.537109375 47.75 193.086914062 45.2001953125 c 0
 191.38671875 45.2001953125 189.686523438 44.349609375 187.987304688 44.349609375 c 0
 180.336914062 44.349609375 174.38671875 46.900390625 169.287109375 49.4501953125 c 0
 167.586914062 50.2998046875 165.037109375 52 164.186523438 53.7001953125 c 0
 163.336914062 55.400390625 163.336914062 58.7998046875 163.336914062 62.2001953125 c 0
 163.336914062 67.2998046875 167.586914062 72.400390625 174.38671875 79.2001953125 c 0
 181.186523438 86 189.686523438 91.099609375 197.336914062 92.7998046875 c 0
 203.287109375 94.5 212.63671875 97.0498046875 226.237304688 100.450195312 c 0
 239.836914062 103.849609375 253.436523438 106.400390625 264.487304688 108.950195312 c 0
 273.836914062 111.5 285.737304688 115.75 298.487304688 120.849609375 c 0
 326.537109375 131.900390625 352.037109375 150.599609375 376.686523438 176.950195312 c 0
 391.987304688 193.950195312 405.586914062 213.5 420.037109375 235.599609375 c 0
 434.487304688 258.549804688 446.38671875 278.950195312 454.037109375 296.799804688 c 2
 472.737304688 343.549804688 l 1
 437.037109375 308.700195312 l 2
 420.88671875 291.700195312 403.037109375 279.799804688 382.63671875 273.849609375 c 0
 362.237304688 267.900390625 337.586914062 264.5 307.836914062 264.5 c 0
 289.13671875 264.5 271.287109375 268.75 255.987304688 279.799804688 c 0
 238.987304688 290.849609375 226.237304688 304.450195312 216.88671875 322.299804688 c 0
 207.537109375 340.150390625 200.737304688 361.400390625 198.186523438 385.200195312 c 0
 197.336914062 392.849609375 196.487304688 400.5 196.487304688 408.150390625 c 0
 196.487304688 425.150390625 198.186523438 441.299804688 202.436523438 458.299804688 c 0
 210.086914062 488.900390625 220.287109375 517.799804688 236.436523438 544.150390625 c 0
 252.586914062 570.5 269.586914062 593.450195312 288.287109375 612.150390625 c 0
 306.13671875 630.849609375 325.686523438 645.299804688 347.787109375 655.5 c 0
 369.88671875 665.700195312 393.686523438 671.650390625 416.63671875 671.650390625 c 0
 441.287109375 671.650390625 462.537109375 666.549804688 480.38671875 657.200195312 c 0
 502.487304688 645.299804688 518.63671875 625.75 528.836914062 599.400390625 c 0
 537.336914062 576.450195312 541.586914062 549.25 541.586914062 517.799804688 c 0
 541.586914062 477.849609375 534.787109375 431.099609375 522.037109375 378.400390625 c 0
485.487304688 547.549804688 m 0
 481.237304688 561.150390625 476.13671875 573.049804688 468.487304688 584.099609375 c 0
 460.836914062 595.150390625 450.63671875 603.650390625 437.88671875 610.450195312 c 0
 426.836914062 617.25 414.086914062 620.650390625 400.487304688 620.650390625 c 2
 399.63671875 620.650390625 l 2
 380.936523438 620.650390625 360.537109375 613.849609375 340.987304688 599.400390625 c 0
 321.436523438 584.950195312 305.287109375 566.25 290.836914062 544.150390625 c 0
 276.38671875 522.049804688 266.186523438 498.25 261.086914062 473.599609375 c 0
 255.987304688 451.5 254.287109375 431.950195312 254.287109375 414.950195312 c 0
 254.287109375 393.700195312 258.537109375 375 266.186523438 360.549804688 c 0
 280.63671875 332.5 306.13671875 318.900390625 341.836914062 318.900390625 c 0
 363.936523438 318.900390625 386.88671875 324.849609375 409.836914062 336.75 c 0
 433.63671875 348.650390625 454.037109375 364.799804688 472.737304688 386.049804688 c 1
 475.287109375 387.75 l 1
 479.537109375 406.450195312 483.787109375 431.950195312 489.737304688 465.950195312 c 0
 491.436523438 475.299804688 493.13671875 485.5 493.13671875 495.700195312 c 0
 493.13671875 513.549804688 490.586914062 530.549804688 485.487304688 547.549804688 c 0
EndSplineSet
Validated: 524289
EndChar

StartChar: colon
Encoding: 58 58 36
Width: 550
VWidth: 887
GlyphClass: 2
Flags: HMW
HStem: 81.85 111.35<280.546 318.371 284.371 318.371> 308.8 111.35<339.621 370.221 339.621 370.221>
VStem: 255.471 91.8<105.65 166.425 109.05 166.425> 307.321 92.65<329.2 398.05 336 398.05>
LayerCount: 2
Fore
SplineSet
307.321289062 336 m 2xd0
 309.021484375 351.299804688 314.122070312 370.849609375 320.071289062 393.799804688 c 0
 320.921875 399.75 323.471679688 404.849609375 326.872070312 408.25 c 0
 330.271484375 411.650390625 335.372070312 414.200195312 340.471679688 415.900390625 c 0
 348.971679688 418.450195312 356.622070312 420.150390625 364.271484375 420.150390625 c 2
 370.221679688 420.150390625 l 2
 378.721679688 420.150390625 386.372070312 418.450195312 393.171875 414.200195312 c 0
 397.421875 411.650390625 399.971679688 405.700195312 399.971679688 398.049804688 c 2
 399.971679688 393.799804688 l 1
 396.571289062 375.950195312 389.771484375 357.25 380.421875 336.849609375 c 0
 376.171875 327.5 370.221679688 319.849609375 361.721679688 315.599609375 c 0
 353.221679688 311.349609375 347.271484375 308.799804688 341.321289062 308.799804688 c 2
 339.622070312 308.799804688 l 2
 329.421875 309.650390625 321.771484375 312.200195312 315.821289062 315.599609375 c 0
 312.421875 317.299804688 309.872070312 319 309.021484375 321.549804688 c 0
 308.171875 324.099609375 307.321289062 326.650390625 307.321289062 329.200195312 c 2
 307.321289062 336 l 2xd0
255.471679688 105.650390625 m 2xe0
 255.471679688 109.049804688 l 1
 259.721679688 131.150390625 l 2
 259.721679688 132.849609375 262.271484375 137.099609375 263.122070312 141.349609375 c 0
 263.971679688 145.599609375 266.521484375 154.099609375 270.771484375 166.849609375 c 0
 271.622070312 171.950195312 274.171875 176.200195312 277.571289062 179.599609375 c 0
 280.971679688 183 285.221679688 186.400390625 289.471679688 188.099609375 c 0
 298.821289062 191.5 306.471679688 193.200195312 313.271484375 193.200195312 c 2
 318.372070312 193.200195312 l 2
 323.471679688 193.200195312 328.571289062 192.349609375 332.821289062 190.650390625 c 0
 337.071289062 188.950195312 339.622070312 186.400390625 343.021484375 182.150390625 c 0
 346.421875 177.900390625 348.122070312 173.650390625 348.122070312 167.700195312 c 2
 348.122070312 167.700195312 347.271484375 166.849609375 347.271484375 166 c 0
 346.421875 147.299804688 340.471679688 127.75 331.122070312 108.200195312 c 0
 326.872070312 99.7001953125 320.071289062 92.900390625 310.721679688 88.650390625 c 0
 301.372070312 84.400390625 293.721679688 81.849609375 286.921875 81.849609375 c 2
 284.372070312 81.849609375 l 2
 276.721679688 81.849609375 269.071289062 85.25 262.271484375 90.349609375 c 0
 258.021484375 94.599609375 255.471679688 99.7001953125 255.471679688 105.650390625 c 2xe0
EndSplineSet
Validated: 524289
EndChar

StartChar: semicolon
Encoding: 59 59 37
Width: 550
VWidth: 864
GlyphClass: 2
Flags: HMW
HStem: 250.075 111.35<353.589 382.489 353.589 382.489>
VStem: 320.439 92.65<274.725 339.325 278.125 339.325>
LayerCount: 2
Fore
SplineSet
382.48828125 361.424804688 m 2
 390.138671875 361.424804688 398.638671875 359.724609375 406.2890625 355.474609375 c 0
 407.98828125 354.625 410.5390625 352.924804688 411.388671875 349.525390625 c 0
 412.23828125 346.125 413.088867188 342.724609375 413.088867188 339.325195312 c 2
 413.088867188 335.075195312 l 1
 409.688476562 317.224609375 402.888671875 298.525390625 393.5390625 278.125 c 0
 389.2890625 268.775390625 382.48828125 261.125 374.838867188 256.875 c 0
 367.188476562 252.625 360.388671875 250.075195312 354.438476562 250.075195312 c 2
 353.588867188 250.075195312 l 2
 339.98828125 251.775390625 329.7890625 256.875 323.838867188 264.525390625 c 0
 322.138671875 267.075195312 320.438476562 270.474609375 320.438476562 274.724609375 c 2
 320.438476562 278.125 l 2
 322.138671875 293.424804688 326.388671875 312.974609375 332.338867188 335.924804688 c 0
 334.0390625 341.025390625 337.438476562 346.125 340.838867188 349.525390625 c 0
 344.23828125 352.924804688 349.338867188 355.474609375 354.438476562 357.174804688 c 0
 359.5390625 358.875 363.7890625 360.575195312 368.0390625 360.575195312 c 0
 372.2890625 360.575195312 376.5390625 361.424804688 378.23828125 361.424804688 c 2
 382.48828125 361.424804688 l 2
338.2890625 80.0751953125 m 0
 333.188476562 62.224609375 299.188476562 -10.875 236.2890625 -140.075195312 c 0
 232.0390625 -149.424804688 226.088867188 -156.224609375 219.2890625 -160.474609375 c 0
 212.48828125 -164.724609375 206.5390625 -166.424804688 200.588867188 -166.424804688 c 2
 198.888671875 -166.424804688 l 2
 191.23828125 -166.424804688 184.438476562 -163.875 179.338867188 -158.775390625 c 0
 177.638671875 -157.075195312 175.938476562 -153.674804688 175.938476562 -150.275390625 c 0
 175.938476562 -146.875 176.7890625 -144.325195312 177.638671875 -140.924804688 c 0
 181.888671875 -128.174804688 194.638671875 -95.025390625 216.73828125 -42.3251953125 c 0
 238.838867188 10.375 255.838867188 49.474609375 268.588867188 77.525390625 c 0
 271.98828125 85.1748046875 274.5390625 91.125 277.938476562 95.375 c 0
 281.338867188 99.625 285.588867188 102.174804688 287.2890625 103.025390625 c 0
 293.23828125 104.724609375 298.338867188 105.575195312 302.588867188 105.575195312 c 0
 303.438476562 105.575195312 305.98828125 104.724609375 307.688476562 104.724609375 c 0
 317.0390625 104.724609375 325.5390625 103.025390625 333.188476562 98.775390625 c 0
 337.438476562 97.0751953125 339.98828125 92.8251953125 339.98828125 88.5751953125 c 0
 339.98828125 86.875 339.138671875 83.474609375 338.2890625 80.0751953125 c 0
EndSplineSet
Validated: 524289
EndChar

StartChar: less
Encoding: 60 60 38
Width: 550
VWidth: 902
GlyphClass: 2
Flags: HMW
HStem: 630.5 17G<566.506 571.606>
LayerCount: 2
Fore
SplineSet
591.15625 621.150390625 m 0
 591.15625 616.049804688 588.606445312 610.950195312 584.356445312 605 c 0
 576.706054688 595.650390625 562.256835938 584.599609375 542.706054688 571.849609375 c 0
 508.706054688 549.75 455.15625 514.049804688 383.756835938 463.049804688 c 0
 312.356445312 412.049804688 262.206054688 378.049804688 235.856445312 360.200195312 c 1
 244.356445312 351.700195312 l 2
 261.356445312 334.700195312 279.206054688 313.450195312 298.756835938 289.650390625 c 0
 318.306640625 265.849609375 335.306640625 244.599609375 349.756835938 225.049804688 c 0
 364.206054688 205.5 379.506835938 184.25 397.356445312 163.849609375 c 0
 415.206054688 143.450195312 431.356445312 127.299804688 445.806640625 115.400390625 c 0
 462.806640625 101.799804688 470.456054688 90.75 470.456054688 82.25 c 0
 470.456054688 79.7001953125 468.756835938 75.4501953125 466.206054688 69.5 c 0
 463.65625 65.25 460.256835938 61 455.15625 58.4501953125 c 0
 450.056640625 55.900390625 443.256835938 53.349609375 435.606445312 52.5 c 2
 430.506835938 52.5 l 2
 424.556640625 52.5 417.756835938 54.2001953125 410.106445312 56.75 c 0
 399.056640625 61 386.306640625 70.349609375 371.006835938 84.7998046875 c 0
 355.706054688 99.25 339.556640625 117.950195312 321.706054688 139.200195312 c 0
 303.856445312 160.450195312 287.706054688 181.700195312 270.706054688 203.799804688 c 0
 253.706054688 225.900390625 235.006835938 248 215.456054688 271.799804688 c 0
 195.90625 295.599609375 179.756835938 314.299804688 165.306640625 327.900390625 c 0
 162.756835938 330.450195312 161.056640625 335.549804688 161.056640625 342.349609375 c 0
 161.056640625 350.849609375 162.756835938 359.349609375 167.006835938 367 c 0
 171.256835938 374.650390625 175.506835938 379.75 181.456054688 383.150390625 c 0
 217.15625 407.799804688 259.65625 438.400390625 308.106445312 474.099609375 c 0
 356.556640625 509.799804688 401.606445312 542.099609375 441.556640625 571 c 0
 481.506835938 599.900390625 516.356445312 622.849609375 546.106445312 639.849609375 c 0
 555.456054688 644.950195312 563.106445312 647.5 569.90625 647.5 c 0
 573.306640625 647.5 576.706054688 647.5 578.40625 645.799804688 c 0
 585.206054688 640.700195312 589.456054688 633.900390625 590.306640625 626.25 c 0
 590.306640625 624.549804688 591.15625 622.849609375 591.15625 621.150390625 c 0
EndSplineSet
Validated: 524289
EndChar

StartChar: equal
Encoding: 61 61 39
Width: 550
VWidth: 908
GlyphClass: 2
Flags: HMW
HStem: 278.275 42.5 278.275 49.3 444.875 51.85<262.987 267.237>
LayerCount: 2
Fore
SplineSet
267.662109375 496.725585938 m 2x20
 269.362304688 496.725585938 l 2
 300.233398438 495.729492188 334.020507812 495.317382812 370.724609375 495.317382812 c 0
 396.678710938 495.317382812 424.091796875 495.5234375 452.961914062 495.875 c 0
 480.162109375 495.875 495.461914062 496.725585938 501.412109375 496.725585938 c 0
 509.912109375 496.725585938 515.862304688 495.875 516.711914062 494.174804688 c 0
 517.5625 492.475585938 518.412109375 489.075195312 518.412109375 484.825195312 c 0
 518.412109375 478.875 516.711914062 472.075195312 514.162109375 465.275390625 c 0
 510.762695312 457.625 506.512695312 451.674804688 500.5625 449.975585938 c 0
 498.012695312 449.125 495.461914062 448.275390625 493.762695312 448.275390625 c 2
 487.8125 448.275390625 l 2
 475.912109375 448.275390625 464.862304688 449.125 454.662109375 449.125 c 2
 425.762695312 449.125 l 1
 338.211914062 446.575195312 l 2
 302.512695312 445.725585938 276.162109375 444.875 258.3125 444.875 c 0
 248.961914062 444.875 241.3125 447.424804688 237.0625 451.674804688 c 0
 234.512695312 454.225585938 232.8125 457.625 232.8125 461.875 c 0
 232.8125 463.575195312 233.662109375 466.125 233.662109375 467.825195312 c 0
 235.362304688 476.325195312 240.461914062 483.125 246.412109375 489.075195312 c 0
 252.362304688 494.174804688 258.3125 496.725585938 267.662109375 496.725585938 c 2x20
233.662109375 327.576171875 m 2x60
 250.662109375 327.576171875 270.211914062 326.725585938 294.012695312 326.725585938 c 0
 317.8125 326.725585938 345.862304688 328.42578125 379.862304688 328.42578125 c 2
 463.162109375 330.125976562 l 2
 472.512695312 330.125976562 477.612304688 328.42578125 478.461914062 326.725585938 c 0
 480.162109375 324.17578125 480.162109375 319.076171875 479.3125 311.42578125 c 0
 477.612304688 302.92578125 475.0625 296.125976562 470.8125 290.17578125 c 0
 469.112304688 286.776367188 465.711914062 284.225585938 462.3125 283.375976562 c 0
 458.912109375 282.526367188 456.362304688 282.526367188 454.662109375 282.526367188 c 2
 448.711914062 282.526367188 l 2
 435.961914062 282.526367188 421.512695312 283.375976562 404.512695312 283.375976562 c 0
 387.512695312 283.375976562 352.662109375 281.67578125 298.262695312 279.975585938 c 0
 260.862304688 279.125976562 232.8125 278.276367188 215.8125 278.276367188 c 0
 206.461914062 278.276367188 199.662109375 279.975585938 197.112304688 284.225585938 c 0
 195.412109375 286.776367188 194.5625 290.17578125 194.5625 294.42578125 c 0
 194.5625 296.975585938 195.412109375 300.375976562 195.412109375 302.92578125 c 0
 196.262695312 309.725585938 200.512695312 315.67578125 207.3125 320.776367188 c 0xa0
 214.112304688 325.875976562 221.762695312 327.576171875 231.961914062 327.576171875 c 2
 233.662109375 327.576171875 l 2x60
EndSplineSet
Validated: 524289
EndChar

StartChar: greater
Encoding: 62 62 40
Width: 550
VWidth: 903
GlyphClass: 2
Flags: HMW
HStem: 637.5 17G<262.093 267.193 267.193 270.168>
LayerCount: 2
Fore
SplineSet
267.192382812 654.5 m 2
 273.142578125 654.5 279.942382812 652.799804688 287.592773438 650.25 c 0
 298.642578125 646 311.392578125 636.650390625 327.54296875 622.200195312 c 0
 343.692382812 607.75 358.993164062 589.900390625 375.993164062 568.650390625 c 0
 392.993164062 547.400390625 409.993164062 525.299804688 426.993164062 503.200195312 c 0
 443.993164062 481.099609375 462.692382812 459 481.392578125 435.200195312 c 0
 500.092773438 411.400390625 517.942382812 392.700195312 532.392578125 379.099609375 c 0
 534.942382812 376.549804688 536.642578125 371.450195312 536.642578125 364.650390625 c 0
 536.642578125 356.150390625 534.942382812 347.650390625 530.692382812 340 c 0
 526.442382812 332.349609375 522.192382812 327.25 516.243164062 323.849609375 c 0
 480.54296875 300.049804688 438.04296875 269.450195312 389.592773438 233.75 c 0
 341.142578125 198.049804688 296.942382812 164.900390625 256.993164062 136 c 0
 217.04296875 107.099609375 181.342773438 84.150390625 151.592773438 67.150390625 c 0
 142.243164062 62.0498046875 134.592773438 59.5 127.79296875 59.5 c 0
 123.54296875 59.5 120.993164062 59.5 119.29296875 61.2001953125 c 0
 115.892578125 63.75 112.493164062 67.150390625 110.79296875 70.5498046875 c 0
 109.092773438 73.9501953125 107.392578125 75.650390625 107.392578125 79.0498046875 c 0
 107.392578125 82.4501953125 106.54296875 85 106.54296875 85.849609375 c 0
 106.54296875 90.9501953125 109.092773438 96.0498046875 113.342773438 102 c 0
 120.993164062 111.349609375 134.592773438 122.400390625 154.993164062 135.150390625 c 0
 189.842773438 157.25 243.392578125 192.950195312 314.79296875 243.950195312 c 0
 386.192382812 294.950195312 436.342773438 328.950195312 462.692382812 346.799804688 c 1
 453.342773438 355.299804688 l 2
 436.342773438 372.299804688 419.342773438 393.549804688 399.79296875 417.349609375 c 0
 380.243164062 441.150390625 363.243164062 462.400390625 348.79296875 481.950195312 c 0
 334.342773438 501.5 318.192382812 522.75 300.342773438 543.150390625 c 0
 282.493164062 563.549804688 267.192382812 579.700195312 251.892578125 591.599609375 c 0
 234.892578125 605.200195312 227.243164062 616.25 227.243164062 624.75 c 0
 227.243164062 629 228.942382812 633.25 231.493164062 637.5 c 0
 234.04296875 641.75 238.29296875 646 243.392578125 648.549804688 c 0
 248.493164062 651.099609375 254.442382812 653.650390625 262.092773438 654.5 c 2
 267.192382812 654.5 l 2
EndSplineSet
Validated: 524289
EndChar

StartChar: question
Encoding: 63 63 41
Width: 550
VWidth: 903
GlyphClass: 2
Flags: HMW
HStem: 51.4 110.5<243.255 297.655 249.63 297.655> 605.6 51<399.23 410.28>
VStem: 214.78 112.2<84.975 130.025> 480.83 58.65<544.825 547.8>
LayerCount: 2
Fore
SplineSet
539.479492188 552.900390625 m 0
 539.479492188 536.75 536.9296875 518.900390625 532.6796875 499.349609375 c 0
 529.280273438 484.900390625 523.330078125 472.150390625 516.530273438 460.25 c 0
 509.729492188 448.349609375 502.080078125 438.150390625 493.580078125 429.650390625 c 0
 485.080078125 421.150390625 474.879882812 413.5 463.830078125 405.849609375 c 0
 452.780273438 398.200195312 441.729492188 389.700195312 429.830078125 382.049804688 c 0
 417.9296875 374.400390625 407.729492188 365.900390625 396.6796875 356.549804688 c 0
 385.629882812 347.200195312 376.280273438 336.150390625 366.080078125 323.400390625 c 0
 355.879882812 310.650390625 348.229492188 296.200195312 342.280273438 280.049804688 c 0
 337.1796875 267.299804688 330.379882812 257.099609375 322.729492188 250.299804688 c 0
 318.479492188 246.049804688 313.379882812 244.349609375 307.4296875 244.349609375 c 0
 305.729492188 244.349609375 302.330078125 246.049804688 298.080078125 246.049804688 c 0
 293.830078125 246.900390625 289.580078125 249.450195312 287.030273438 251.150390625 c 0
 282.780273438 254.549804688 281.080078125 258.799804688 281.080078125 264.75 c 0
 281.080078125 273.25 284.479492188 284.299804688 290.4296875 297.049804688 c 0
 297.229492188 311.5 305.729492188 325.099609375 315.9296875 337.849609375 c 0
 326.129882812 350.599609375 334.629882812 362.5 344.830078125 371.849609375 c 0
 355.030273438 381.200195312 366.080078125 390.549804688 377.129882812 399.049804688 c 0
 388.1796875 407.549804688 399.229492188 416.049804688 409.4296875 423.700195312 c 0
 419.629882812 431.349609375 429.830078125 439 439.1796875 447.5 c 0
 448.530273438 456 456.1796875 465.349609375 462.979492188 475.549804688 c 0
 469.780273438 485.75 474.879882812 496.799804688 477.4296875 507.849609375 c 0
 479.979492188 518.900390625 480.830078125 529.099609375 480.830078125 538.450195312 c 0
 480.830078125 557.150390625 475.729492188 571.599609375 465.530273438 582.650390625 c 0
 450.229492188 597.950195312 426.4296875 605.599609375 394.129882812 605.599609375 c 0
 385.629882812 605.599609375 377.129882812 603.900390625 367.780273438 599.650390625 c 0
 358.4296875 595.400390625 349.9296875 591.150390625 343.129882812 586.049804688 c 0
 336.330078125 580.950195312 328.6796875 574.150390625 320.1796875 566.5 c 0
 311.6796875 558.849609375 304.879882812 552.049804688 300.629882812 546.950195312 c 0
 296.379882812 541.849609375 290.4296875 535.049804688 283.629882812 527.400390625 c 0
 272.580078125 514.650390625 264.080078125 507 258.129882812 507 c 0
 257.280273438 507 254.729492188 506.150390625 253.879882812 506.150390625 c 0
 253.030273438 506.150390625 250.479492188 507 248.780273438 507.849609375 c 0
 247.080078125 508.700195312 242.830078125 510.400390625 238.580078125 512.099609375 c 0
 234.330078125 514.650390625 231.780273438 518.900390625 231.780273438 524.849609375 c 0
 231.780273438 532.5 236.030273438 542.700195312 245.379882812 556.299804688 c 0
 262.379882812 579.25 284.479492188 601.349609375 310.830078125 621.75 c 0
 324.4296875 631.950195312 339.729492188 640.450195312 356.729492188 647.25 c 0
 373.729492188 654.049804688 390.729492188 656.599609375 407.729492188 656.599609375 c 0
 461.280273438 656.599609375 498.6796875 643.849609375 519.9296875 617.5 c 0
 532.6796875 601.349609375 539.479492188 580.099609375 539.479492188 552.900390625 c 0
326.979492188 125.349609375 m 0
 326.979492188 121.099609375 326.129882812 116 325.280273438 110.900390625 c 0
 321.879882812 94.75 314.229492188 82 301.479492188 70.9501953125 c 0
 288.729492188 59.900390625 273.4296875 53.099609375 256.4296875 51.400390625 c 2
 249.629882812 51.400390625 l 2
 236.879882812 51.400390625 228.379882812 55.650390625 222.4296875 64.150390625 c 0
 217.330078125 71.7998046875 214.780273438 80.2998046875 214.780273438 89.650390625 c 0
 214.780273438 93.900390625 215.629882812 99 216.479492188 104.950195312 c 0
 220.729492188 120.25 229.229492188 133 243.6796875 144.049804688 c 0
 258.979492188 155.950195312 274.280273438 161.900390625 291.280273438 161.900390625 c 0
 304.030273438 161.900390625 314.229492188 157.650390625 320.1796875 149.150390625 c 0
 324.4296875 142.349609375 326.979492188 134.700195312 326.979492188 125.349609375 c 0
EndSplineSet
Validated: 524289
EndChar

StartChar: at
Encoding: 64 64 42
Width: 550
VWidth: 892
GlyphClass: 2
Flags: HMW
HStem: -56.475 51.85<235.377 275.752 248.127 275.752> 139.875 45.05<416.852 443.202> 153.475 47.6<302.102 308.902> 377.875 44.2<360.327 385.402 360.327 385.402> 574.225 55.25<404.952 435.977 416.427 430.027>
VStem: 117.227 51<127.975 143.7> 228.577 45.05<211.275 237.625> 385.827 28.05 514.177 43.35<433.975 496.45>
LayerCount: 2
Fore
SplineSet
448.7265625 84.625 m 2xdf80
 448.7265625 82.9248046875 447.02734375 78.6748046875 445.327148438 73.5751953125 c 0
 443.626953125 68.474609375 440.2265625 61.6748046875 435.126953125 53.1748046875 c 0
 430.876953125 45.525390625 426.626953125 37.875 422.376953125 31.9248046875 c 0
 418.126953125 25.974609375 413.02734375 19.1748046875 406.2265625 10.6748046875 c 0
 399.426757812 2.1748046875 392.626953125 -3.775390625 385.827148438 -9.724609375 c 0
 379.02734375 -15.6748046875 371.376953125 -22.474609375 361.176757812 -28.4248046875 c 0
 350.9765625 -34.375 340.77734375 -39.474609375 330.577148438 -43.724609375 c 0
 320.376953125 -47.974609375 307.626953125 -51.375 294.02734375 -53.0751953125 c 0
 280.426757812 -54.775390625 266.827148438 -56.474609375 252.376953125 -56.474609375 c 2
 248.126953125 -56.474609375 l 2
 222.626953125 -56.474609375 199.676757812 -49.6748046875 180.9765625 -36.0751953125 c 0
 162.27734375 -22.474609375 146.9765625 -3.775390625 135.926757812 20.875 c 0
 123.176757812 49.775390625 117.2265625 85.474609375 117.2265625 127.125 c 0
 117.2265625 160.275390625 120.626953125 195.974609375 129.9765625 234.224609375 c 0
 141.876953125 283.525390625 156.327148438 330.275390625 173.327148438 372.775390625 c 0
 190.327148438 415.275390625 208.176757812 451.825195312 227.7265625 483.275390625 c 0
 247.27734375 514.724609375 270.2265625 541.075195312 292.327148438 563.174804688 c 0
 314.426757812 585.275390625 337.376953125 602.275390625 360.327148438 613.325195312 c 0
 383.27734375 624.375 405.376953125 629.474609375 427.4765625 629.474609375 c 0
 444.4765625 629.474609375 459.77734375 628.625 472.52734375 626.075195312 c 0
 485.27734375 623.525390625 498.02734375 618.424804688 508.2265625 611.625 c 0
 518.426757812 604.825195312 526.926757812 597.174804688 533.7265625 586.974609375 c 0
 540.52734375 576.775390625 546.4765625 562.325195312 550.7265625 545.325195312 c 0
 554.9765625 528.325195312 557.52734375 507.924804688 557.52734375 484.974609375 c 0
 557.52734375 436.525390625 548.176757812 372.775390625 530.327148438 293.724609375 c 0
 520.9765625 253.775390625 507.376953125 218.075195312 489.52734375 188.325195312 c 0
 480.176757812 173.025390625 469.9765625 161.125 458.926757812 152.625 c 0
 447.876953125 144.125 435.9765625 139.875 424.077148438 139.875 c 0
 409.626953125 139.875 399.426757812 144.125 393.4765625 151.775390625 c 0
 388.376953125 158.575195312 385.827148438 168.775390625 385.827148438 181.525390625 c 0
 385.827148438 186.625 385.827148438 192.575195312 386.676757812 199.375 c 2
 394.327148438 256.325195312 l 1
 367.126953125 206.174804688 l 2
 348.426757812 170.474609375 323.77734375 153.474609375 294.02734375 153.474609375 c 0xbf80
 266.827148438 153.474609375 248.126953125 161.974609375 237.926757812 179.825195312 c 0
 231.9765625 190.025390625 228.577148438 202.775390625 228.577148438 219.775390625 c 0
 228.577148438 234.224609375 231.126953125 251.224609375 235.376953125 270.775390625 c 0
 239.626953125 290.325195312 246.426757812 308.174804688 254.926757812 326.025390625 c 0
 263.426757812 343.875 271.926757812 357.474609375 282.126953125 369.375 c 0
 292.327148438 381.275390625 303.376953125 391.474609375 314.426757812 399.974609375 c 0
 325.4765625 408.474609375 337.376953125 413.575195312 348.426757812 416.974609375 c 0
 359.4765625 420.375 369.676757812 422.075195312 379.02734375 422.075195312 c 0
 391.77734375 422.075195312 404.52734375 419.525390625 416.426757812 413.575195312 c 0
 425.77734375 409.325195312 432.577148438 404.224609375 436.827148438 397.424804688 c 0
 437.676757812 394.875 438.52734375 392.325195312 438.52734375 390.625 c 0
 438.52734375 388.924804688 437.676757812 387.224609375 436.827148438 385.525390625 c 0
 431.7265625 377.875 426.626953125 373.625 421.52734375 371.924804688 c 0
 417.27734375 371.075195312 413.02734375 370.224609375 410.4765625 370.224609375 c 0
 406.2265625 370.224609375 396.876953125 371.924804688 383.27734375 376.174804688 c 0
 377.327148438 377.025390625 372.2265625 377.875 368.827148438 377.875 c 2
 360.327148438 377.875 l 2
 351.827148438 377.025390625 343.327148438 373.625 334.827148438 368.525390625 c 0
 326.327148438 363.424804688 318.676757812 358.325195312 311.876953125 350.674804688 c 0
 305.077148438 343.025390625 298.27734375 334.525390625 292.327148438 322.625 c 0
 286.376953125 310.724609375 282.126953125 297.974609375 278.7265625 283.525390625 c 0
 275.327148438 269.075195312 273.626953125 257.174804688 273.626953125 247.825195312 c 2
 273.626953125 237.625 l 2
 273.626953125 227.424804688 277.02734375 218.924804688 282.126953125 212.125 c 0
 288.077148438 204.474609375 296.577148438 201.075195312 307.626953125 201.075195312 c 0
 327.176757812 201.075195312 343.327148438 208.724609375 356.077148438 225.724609375 c 0
 367.126953125 241.025390625 377.327148438 264.825195312 385.827148438 298.825195312 c 0
 386.676757812 303.924804688 393.4765625 309.025390625 404.52734375 313.275390625 c 0
 413.02734375 316.674804688 419.827148438 318.375 425.77734375 318.375 c 0
 429.176757812 318.375 432.577148438 317.525390625 434.27734375 316.674804688 c 2
 435.126953125 315.825195312 l 1
 435.126953125 315.825195312 434.27734375 314.125 434.27734375 312.424804688 c 0
 424.077148438 281.825195312 417.27734375 258.025390625 415.577148438 240.174804688 c 0
 414.7265625 231.674804688 413.876953125 224.025390625 413.876953125 217.224609375 c 0
 413.876953125 210.424804688 414.7265625 205.325195312 416.426757812 201.075195312 c 0
 418.126953125 195.125 422.376953125 190.875 426.626953125 188.325195312 c 0
 430.876953125 186.625 435.126953125 184.924804688 439.376953125 184.924804688 c 0xdf80
 447.02734375 184.924804688 454.676757812 190.025390625 461.4765625 201.075195312 c 0xbf80
 466.577148438 209.575195312 471.676757812 219.775390625 475.926757812 232.525390625 c 0
 483.577148438 253.775390625 489.52734375 274.174804688 493.77734375 292.025390625 c 0
 499.7265625 320.924804688 505.676757812 348.974609375 509.077148438 375.325195312 c 0
 512.4765625 401.674804688 514.176757812 424.625 514.176757812 443.325195312 c 0
 514.176757812 458.625 512.4765625 473.075195312 509.926757812 486.674804688 c 0
 507.376953125 500.275390625 504.827148438 512.174804688 501.426757812 521.525390625 c 0
 498.02734375 530.875 492.926757812 539.375 486.126953125 546.174804688 c 0
 479.327148438 552.974609375 473.376953125 558.924804688 467.426757812 562.325195312 c 0
 461.4765625 565.724609375 455.52734375 569.125 447.876953125 570.825195312 c 0
 440.2265625 572.525390625 434.27734375 574.224609375 430.02734375 574.224609375 c 2
 416.426757812 574.224609375 l 2
 393.4765625 574.224609375 370.52734375 567.424804688 347.577148438 552.125 c 0
 324.626953125 536.825195312 302.52734375 516.424804688 282.126953125 490.075195312 c 0
 261.7265625 463.724609375 243.02734375 431.424804688 226.02734375 394.025390625 c 0
 209.02734375 356.625 195.426757812 314.974609375 185.2265625 269.924804688 c 0
 174.176757812 219.775390625 168.2265625 175.575195312 168.2265625 138.174804688 c 0
 168.2265625 117.775390625 169.926757812 100.775390625 173.327148438 86.3251953125 c 0
 178.426757812 65.9248046875 186.077148438 48.0751953125 195.426757812 33.625 c 0
 204.77734375 19.1748046875 215.827148438 9.8251953125 227.7265625 3.875 c 0
 239.626953125 -2.0751953125 254.077148438 -4.625 268.52734375 -4.625 c 0
 282.9765625 -4.625 297.426757812 -2.9248046875 310.176757812 -0.375 c 0
 322.926757812 2.1748046875 333.126953125 6.4248046875 342.4765625 10.6748046875 c 0
 351.827148438 14.9248046875 360.327148438 20.875 369.676757812 27.6748046875 c 0
 379.02734375 34.474609375 385.827148438 42.125 390.926757812 48.0751953125 c 0
 396.02734375 54.025390625 402.827148438 61.6748046875 409.626953125 70.1748046875 c 0
 413.876953125 76.125 417.27734375 80.375 420.676757812 83.775390625 c 0
 424.926757812 88.875 428.327148438 92.275390625 430.02734375 93.125 c 0
 431.7265625 93.125 433.426757812 94.8251953125 435.126953125 95.6748046875 c 0
 436.827148438 96.525390625 439.376953125 96.525390625 441.077148438 95.6748046875 c 0
 442.77734375 94.8251953125 445.327148438 93.125 446.176757812 92.275390625 c 0
 447.02734375 91.4248046875 448.7265625 88.025390625 448.7265625 86.3251953125 c 2
 448.7265625 84.625 l 2xdf80
435.126953125 315.825195312 m 1024
EndSplineSet
Validated: 524289
EndChar

StartChar: A
Encoding: 65 65 43
Width: 550
VWidth: 905
GlyphClass: 2
Flags: HMW
HStem: 290.4 36.55<422.884 422.884 422.884 431.384>
VStem: 427.134 61.2<111.9 162.9> 431.384 48.45 443.284 52.7
LayerCount: 2
Fore
SplineSet
420.334960938 290.400390625 m 1xa0
 356.584960938 287.849609375 297.084960938 281.049804688 244.384765625 270.849609375 c 1
 216.334960938 222.400390625 187.434570312 167.150390625 157.684570312 105.099609375 c 0
 150.034179688 89.7998046875 142.384765625 79.599609375 133.034179688 75.349609375 c 0
 128.784179688 73.650390625 123.684570312 71.9501953125 120.284179688 71.9501953125 c 0
 116.884765625 71.9501953125 114.334960938 72.7998046875 111.784179688 73.650390625 c 0
 109.234375 74.5 106.684570312 77.0498046875 105.834960938 79.599609375 c 0
 104.984375 82.150390625 104.134765625 85.5498046875 104.134765625 88.9501953125 c 0
 104.134765625 97.4501953125 108.384765625 109.349609375 115.184570312 124.650390625 c 0
 122.834960938 142.5 148.334960938 189.25 194.234375 264.049804688 c 1
 192.534179688 273.400390625 189.984375 275.099609375 188.284179688 270 c 1
 184.034179688 272.549804688 182.334960938 275.950195312 182.334960938 279.349609375 c 0
 182.334960938 280.200195312 183.184570312 281.900390625 183.184570312 283.599609375 c 0
 184.034179688 289.549804688 187.434570312 295.5 195.084960938 301.450195312 c 0
 202.734375 307.400390625 212.084960938 311.650390625 221.434570312 315.049804688 c 1
 222.284179688 322.700195312 223.984375 323.549804688 224.834960938 316.75 c 1
 317.484375 479.950195312 386.334960938 588.75 431.384765625 643.150390625 c 0
 440.734375 654.200195312 449.234375 661 455.184570312 665.25 c 0
 461.134765625 669.5 467.084960938 672.049804688 472.184570312 672.049804688 c 2
 473.034179688 672.049804688 l 1
 476.434570312 672.049804688 l 2
 482.384765625 672.049804688 486.634765625 670.349609375 490.884765625 667.799804688 c 0
 494.284179688 666.099609375 495.984375 661 495.984375 655.049804688 c 2x90
 495.984375 650.799804688 l 1
 490.034179688 580.25 486.634765625 480.799804688 483.234375 351.599609375 c 0
 481.534179688 301.450195312 479.834960938 260.650390625 479.834960938 226.650390625 c 0xa0
 479.834960938 172.25 482.384765625 139.099609375 485.784179688 127.200195312 c 0
 487.484375 122.099609375 488.334960938 117 488.334960938 113.599609375 c 0xc0
 488.334960938 110.200195312 487.484375 106.799804688 486.634765625 103.400390625 c 0
 484.084960938 95.75 478.984375 90.650390625 474.734375 85.5498046875 c 0
 470.484375 80.4501953125 465.384765625 76.2001953125 459.434570312 74.5 c 0
 455.184570312 72.7998046875 452.634765625 71.9501953125 450.084960938 71.9501953125 c 0
 446.684570312 71.9501953125 442.434570312 72.7998046875 439.884765625 74.5 c 0
 433.934570312 77.900390625 429.684570312 87.25 427.984375 101.700195312 c 0
 427.984375 108.5 427.134765625 124.650390625 427.134765625 150.150390625 c 0
 427.134765625 175.650390625 429.684570312 223.25 431.384765625 290.400390625 c 1
 427.984375 298.049804688 424.584960938 298.049804688 420.334960938 290.400390625 c 1xa0
423.734375 574.299804688 m 2
 392.284179688 536.049804688 344.684570312 455.299804688 280.934570312 331.200195312 c 1
 272.434570312 313.349609375 l 1
 291.134765625 315.900390625 l 2
 340.434570312 321.849609375 383.784179688 326.099609375 422.884765625 326.950195312 c 2
 433.084960938 327.799804688 l 1
 443.284179688 597.25 l 1
 423.734375 574.299804688 l 2
EndSplineSet
Validated: 524289
EndChar

StartChar: B
Encoding: 66 66 44
Width: 550
VWidth: 899
GlyphClass: 2
Flags: HMW
HStem: 313.03 39.95<297.428 300.828 300.828 301.678> 595.23 36.55<362.028 376.478 376.478 379.028>
VStem: 433.428 61.2<228.88 232.705 228.88 232.705> 469.128 52.7<503.005 507.255>
LayerCount: 2
Fore
SplineSet
492.927734375 220.380859375 m 2xd0
 488.677734375 199.98046875 479.328125 179.580078125 464.877929688 160.030273438 c 0
 450.427734375 140.48046875 431.728515625 121.780273438 410.478515625 104.780273438 c 0
 390.078125 87.7802734375 364.578125 73.330078125 335.677734375 61.4306640625 c 0
 306.778320312 49.5302734375 276.177734375 41.0302734375 243.028320312 37.630859375 c 1
 237.768554688 33.3271484375 232.509765625 31.17578125 227.25 31.17578125 c 2
 214.978515625 35.080078125 l 1
 209.71875 30.77734375 204.728515625 28.6259765625 199.705078125 28.6259765625 c 0
 195.796875 28.6259765625 191.869140625 29.927734375 187.778320312 32.5302734375 c 0
 170.778320312 30.830078125 158.877929688 29.98046875 150.377929688 29.98046875 c 0
 145.278320312 29.98046875 140.177734375 30.830078125 135.078125 31.6806640625 c 2
 133.377929688 31.6806640625 l 1
 130.828125 31.6806640625 l 2
 124.028320312 31.6806640625 118.927734375 34.23046875 116.377929688 38.48046875 c 0
 114.677734375 40.1806640625 113.828125 43.580078125 113.828125 47.830078125 c 0
 113.828125 52.080078125 114.677734375 56.330078125 116.377929688 61.4306640625 c 0
 124.028320312 85.23046875 135.078125 130.280273438 149.528320312 197.430664062 c 0
 163.978515625 264.580078125 178.427734375 334.280273438 192.028320312 405.680664062 c 0
 199.677734375 443.080078125 205.627929688 468.580078125 208.177734375 481.330078125 c 0
 210.728515625 494.080078125 214.978515625 511.930664062 220.927734375 534.030273438 c 0
 225.177734375 541.680664062 228.578125 556.98046875 232.828125 579.080078125 c 0
 235.377929688 592.680664062 240.478515625 602.880859375 247.278320312 608.830078125 c 0
 254.078125 614.780273438 260.877929688 618.180664062 268.528320312 618.180664062 c 2
 271.927734375 618.180664062 l 1
 272.778320312 618.180664062 l 2
 282.127929688 620.73046875 290.627929688 623.280273438 299.127929688 624.98046875 c 0
 315.278320312 628.380859375 329.728515625 630.930664062 344.177734375 630.930664062 c 0
 351.828125 630.930664062 357.778320312 631.780273438 362.028320312 631.780273438 c 2
 376.478515625 631.780273438 l 1
 384.978515625 631.780273438 l 2
 416.427734375 631.780273438 443.627929688 625.830078125 466.578125 612.23046875 c 0
 489.528320312 598.630859375 504.828125 579.930664062 514.177734375 555.280273438 c 0
 519.278320312 540.830078125 521.828125 526.380859375 521.828125 509.380859375 c 0
 521.828125 496.630859375 520.127929688 482.180664062 516.728515625 467.73046875 c 0
 509.927734375 436.280273438 497.177734375 409.080078125 478.478515625 386.98046875 c 0
 459.778320312 364.880859375 437.677734375 348.73046875 413.028320312 338.530273438 c 1
 405.377929688 329.180664062 398.578125 325.780273438 390.927734375 329.180664062 c 1
 396.418945312 321.859375 401.47265625 318.041015625 406.715820312 318.041015625 c 0
 408.778320312 318.041015625 410.869140625 318.630859375 413.028320312 319.830078125 c 0
 427.478515625 313.880859375 441.927734375 304.530273438 455.528320312 293.48046875 c 0
 469.127929688 282.430664062 479.328125 269.680664062 486.978515625 255.23046875 c 0
 492.078125 245.880859375 494.627929688 236.530273438 494.627929688 228.880859375 c 2xe0
 492.927734375 220.380859375 l 2xd0
288.927734375 584.180664062 m 2
 283.828125 582.48046875 l 1
 268.528320312 519.580078125 258.328125 475.380859375 252.377929688 449.030273438 c 0
 246.427734375 422.680664062 240.478515625 391.23046875 232.828125 355.530273438 c 1
 262.578125 353.830078125 287.228515625 352.98046875 307.627929688 352.98046875 c 0
 322.927734375 352.98046875 337.377929688 354.680664062 350.127929688 357.23046875 c 0
 362.877929688 359.780273438 374.778320312 363.180664062 384.127929688 368.280273438 c 0
 393.478515625 373.380859375 402.828125 379.330078125 411.328125 386.98046875 c 0
 419.828125 394.630859375 427.478515625 401.430664062 433.427734375 409.080078125 c 0
 439.377929688 416.73046875 444.478515625 424.380859375 448.728515625 432.880859375 c 0
 452.978515625 441.380859375 456.377929688 449.880859375 458.927734375 456.680664062 c 0
 461.478515625 463.48046875 464.877929688 471.130859375 466.578125 479.630859375 c 0
 468.278320312 488.130859375 469.127929688 495.780273438 469.127929688 503.430664062 c 0xd0
 469.127929688 511.080078125 468.278320312 517.030273438 467.427734375 522.98046875 c 0
 464.877929688 537.430664062 459.778320312 548.48046875 452.127929688 557.830078125 c 0
 444.478515625 567.180664062 435.978515625 573.98046875 424.927734375 579.930664062 c 0
 407.927734375 590.130859375 389.228515625 595.23046875 368.828125 595.23046875 c 0
 342.478515625 595.23046875 315.278320312 591.830078125 288.927734375 584.180664062 c 2
406.228515625 271.380859375 m 0
 396.877929688 279.880859375 383.278320312 287.530273438 365.427734375 295.180664062 c 0
 347.578125 302.830078125 326.328125 308.780273438 301.677734375 313.030273438 c 1
 300.828125 313.030273438 l 2
 265.127929688 313.030273438 240.478515625 311.330078125 224.328125 311.330078125 c 1
 205.627929688 214.430664062 191.177734375 142.180664062 181.828125 95.4306640625 c 1
 196.278320312 96.2802734375 209.877929688 97.130859375 222.627929688 97.130859375 c 0
 235.377929688 97.130859375 244.728515625 97.98046875 250.677734375 97.98046875 c 0
 273.627929688 98.830078125 295.728515625 103.930664062 317.828125 112.430664062 c 0
 339.927734375 120.930664062 358.627929688 129.430664062 373.927734375 141.330078125 c 0
 389.228515625 153.23046875 401.978515625 165.98046875 412.177734375 178.73046875 c 0
 423.228515625 191.48046875 430.028320312 204.23046875 432.578125 216.130859375 c 0
 432.578125 218.680664062 433.427734375 222.080078125 433.427734375 224.630859375 c 0xe0
 433.427734375 240.780273438 424.078125 256.080078125 406.228515625 271.380859375 c 0
EndSplineSet
Validated: 524289
EndChar

StartChar: C
Encoding: 67 67 45
Width: 550
VWidth: 903
GlyphClass: 2
Flags: HMW
HStem: 26.9 56.95<244.904 287.404 254.254 287.404> 609.15 50.15<468.454 472.279> 649.1 17.85G
VStem: 130.154 65.45<160.775 215.175>
LayerCount: 2
Fore
SplineSet
260.203125 26.900390625 m 2xd0
 254.25390625 26.900390625 l 2
 235.553710938 26.900390625 218.553710938 30.2998046875 202.403320312 37.9501953125 c 0
 186.25390625 45.599609375 173.50390625 54.9501953125 163.303710938 67.7001953125 c 0
 153.103515625 80.4501953125 145.453125 94.900390625 139.50390625 112.75 c 0
 133.553710938 130.599609375 130.153320312 150.150390625 130.153320312 171.400390625 c 0
 130.153320312 188.400390625 131.853515625 205.400390625 136.103515625 223.25 c 0
 145.453125 264.900390625 158.203125 305.700195312 175.203125 344.799804688 c 0
 192.203125 383.900390625 210.053710938 420.450195312 230.453125 451.900390625 c 0
 249.153320312 483.349609375 269.553710938 512.25 291.653320312 538.599609375 c 0
 313.75390625 564.950195312 335.853515625 586.200195312 357.103515625 604.049804688 c 0
 378.353515625 621.900390625 400.453125 635.5 420.853515625 644.849609375 c 0
 441.25390625 654.200195312 459.953125 659.299804688 476.953125 659.299804688 c 0
 494.803710938 659.299804688 510.103515625 656.75 524.553710938 652.5 c 1
 527.103515625 657.599609375 530.50390625 656.75 533.053710938 649.099609375 c 1xb0
 534.75390625 658.450195312 536.453125 661.849609375 537.303710938 657.599609375 c 1
 540.703125 665.25 544.953125 671.200195312 550.903320312 675.450195312 c 0
 556.853515625 679.700195312 561.953125 682.25 567.903320312 682.25 c 2
 572.153320312 683.099609375 l 2
 576.403320312 683.099609375 580.653320312 681.400390625 584.903320312 678 c 0
 590.00390625 673.75 592.553710938 667.799804688 592.553710938 659.299804688 c 0
 592.553710938 645.700195312 590.853515625 629.549804688 587.453125 610.849609375 c 0
 586.603515625 603.200195312 584.903320312 593 581.50390625 581.099609375 c 0
 578.103515625 569.200195312 575.553710938 561.549804688 575.553710938 559.849609375 c 0
 573.853515625 548.799804688 567.053710938 537.75 557.703125 526.700195312 c 0
 548.353515625 515.650390625 540.703125 509.700195312 534.75390625 509.700195312 c 2
 530.50390625 509.700195312 l 2
 524.553710938 509.700195312 519.453125 511.400390625 515.203125 515.650390625 c 0
 511.803710938 518.200195312 510.103515625 522.450195312 510.103515625 527.549804688 c 0
 510.103515625 528.400390625 510.953125 530.950195312 510.953125 533.5 c 0
 511.803710938 538.599609375 516.053710938 553.049804688 522.00390625 576.849609375 c 0
 521.153320312 582.799804688 519.453125 584.5 517.75390625 581.099609375 c 1
 515.203125 582.799804688 510.103515625 587.900390625 502.453125 594.700195312 c 0
 500.75390625 596.400390625 497.353515625 598.950195312 493.103515625 601.5 c 0
 485.453125 606.599609375 476.953125 609.150390625 467.603515625 609.150390625 c 0
 450.603515625 609.150390625 431.053710938 603.200195312 410.653320312 590.450195312 c 0
 390.25390625 577.700195312 369.853515625 559.849609375 349.453125 537.75 c 0
 329.053710938 515.650390625 307.803710938 490.150390625 289.103515625 462.099609375 c 0
 270.403320312 434.049804688 252.553710938 400.900390625 237.25390625 365.200195312 c 0
 220.25390625 329.5 208.353515625 292.099609375 200.703125 256.400390625 c 0
 197.303710938 239.400390625 195.603515625 223.25 195.603515625 207.099609375 c 0
 195.603515625 196.900390625 196.453125 186.700195312 198.153320312 176.5 c 0
 201.553710938 150.150390625 210.053710938 128.049804688 225.353515625 111.049804688 c 0
 239.803710938 93.2001953125 257.653320312 83.849609375 278.903320312 83.849609375 c 0
 295.903320312 83.849609375 311.203125 85.5498046875 328.203125 89.7998046875 c 0
 345.203125 94.0498046875 359.653320312 99.150390625 373.25390625 105.950195312 c 0
 386.853515625 112.75 398.75390625 117.849609375 408.953125 124.650390625 c 0
 419.153320312 131.450195312 428.50390625 138.25 437.853515625 145.900390625 c 0
 444.653320312 150.150390625 450.603515625 154.400390625 454.853515625 156.099609375 c 0
 459.103515625 157.799804688 463.353515625 159.5 467.603515625 159.5 c 0
 470.153320312 159.5 472.703125 158.650390625 474.403320312 156.950195312 c 0
 477.803710938 152.700195312 479.50390625 149.299804688 479.50390625 145.049804688 c 0
 479.50390625 135.700195312 472.703125 122.950195312 458.25390625 107.650390625 c 0
 407.25390625 54.099609375 341.803710938 26.900390625 260.203125 26.900390625 c 2xd0
EndSplineSet
Validated: 524289
EndChar

StartChar: D
Encoding: 68 68 46
Width: 550
VWidth: 902
GlyphClass: 2
Flags: HMW
HStem: 26.1031 51.85<285.584 325.109 296.209 325.109> 657.653 17.85G<282.609 286.009 282.609 282.609>
VStem: 282.609 3.4<637.253 637.253 657.653 657.653> 468.759 55.25<342.303 374.603>
LayerCount: 2
Fore
SplineSet
286.0078125 657.653320312 m 1
 282.608398438 657.653320312 l 1
 283.458007812 669.552734375 285.158203125 674.653320312 286.0078125 672.953125 c 2
 286.0078125 657.653320312 l 1
286.0078125 636.403320312 m 1
 295.358398438 635.552734375 306.408203125 633.002929688 317.458007812 630.453125 c 0
 331.908203125 627.052734375 345.5078125 622.802734375 359.958007812 616.853515625 c 0
 374.408203125 610.903320312 388.858398438 602.403320312 405.0078125 592.203125 c 0
 421.158203125 582.002929688 435.608398438 570.103515625 450.05859375 556.502929688 c 0
 464.5078125 542.903320312 476.408203125 525.903320312 488.30859375 505.502929688 c 0
 500.208007812 485.103515625 508.708007812 463.853515625 514.658203125 440.903320312 c 0
 520.608398438 417.953125 524.0078125 390.752929688 524.0078125 361.002929688 c 0
 524.0078125 323.603515625 519.7578125 283.653320312 509.55859375 241.153320312 c 0
 504.458007812 222.453125 497.658203125 202.052734375 488.30859375 182.502929688 c 0
 478.958007812 162.953125 467.908203125 143.403320312 453.458007812 124.703125 c 0
 439.0078125 106.002929688 424.55859375 89.0029296875 408.408203125 74.552734375 c 0
 393.108398438 60.103515625 376.108398438 47.353515625 358.2578125 38.853515625 c 0
 340.408203125 30.353515625 320.858398438 26.103515625 303.0078125 26.103515625 c 2
 296.208007812 26.103515625 l 2
 274.958007812 26.103515625 253.708007812 27.802734375 232.458007812 29.5029296875 c 0
 211.208007812 31.203125 194.208007812 34.603515625 180.608398438 38.0029296875 c 0
 167.0078125 41.4033203125 154.2578125 44.802734375 143.208007812 48.203125 c 0
 132.158203125 51.603515625 125.358398438 52.453125 122.80859375 52.453125 c 0
 116.0078125 52.453125 110.908203125 55.0029296875 108.358398438 59.2529296875 c 0
 106.658203125 60.953125 105.80859375 65.203125 105.80859375 69.453125 c 0
 105.80859375 73.703125 106.658203125 77.953125 108.358398438 83.052734375 c 0
 116.0078125 110.252929688 127.908203125 158.703125 144.05859375 228.403320312 c 0
 160.208007812 298.103515625 174.658203125 372.903320312 190.80859375 453.653320312 c 0
 196.7578125 485.103515625 201.858398438 505.502929688 204.408203125 515.703125 c 0
 206.958007812 525.903320312 210.358398438 541.203125 215.458007812 562.453125 c 0
 220.55859375 583.703125 223.958007812 596.453125 224.80859375 600.703125 c 0
 227.358398438 613.453125 232.458007812 623.653320312 239.2578125 629.603515625 c 0
 246.05859375 635.552734375 252.858398438 638.953125 260.5078125 638.953125 c 0
 267.30859375 638.953125 274.958007812 638.103515625 282.608398438 637.252929688 c 1
 278.358398438 608.353515625 273.2578125 586.252929688 268.158203125 571.802734375 c 0
 250.30859375 498.703125 234.158203125 420.502929688 219.708007812 339.752929688 c 0
 212.908203125 296.403320312 206.108398438 259.002929688 198.458007812 229.252929688 c 0
 188.2578125 180.802734375 180.608398438 140.853515625 174.658203125 111.103515625 c 0
 176.358398438 103.453125 179.7578125 101.752929688 181.458007812 107.703125 c 1
 201.0078125 96.6533203125 221.408203125 89.0029296875 242.658203125 84.7529296875 c 0
 263.908203125 80.5029296875 289.408203125 77.953125 317.458007812 77.953125 c 0
 332.7578125 77.953125 348.05859375 83.052734375 363.358398438 94.953125 c 0
 378.658203125 106.853515625 392.2578125 121.302734375 404.158203125 139.153320312 c 0
 416.05859375 157.002929688 426.2578125 175.703125 436.458007812 196.103515625 c 0
 446.658203125 216.502929688 454.30859375 237.752929688 458.55859375 257.302734375 c 0
 465.358398438 286.203125 468.7578125 313.403320312 468.7578125 338.903320312 c 0
 468.7578125 410.302734375 444.108398438 468.103515625 393.108398438 511.453125 c 0
 371.858398438 530.153320312 338.708007812 550.552734375 295.358398438 571.802734375 c 1
 295.358398438 576.052734375 l 1
 292.80859375 576.052734375 l 1
 292.80859375 576.903320312 l 1
 291.108398438 576.903320312 l 1
 291.108398438 577.752929688 l 1
 289.408203125 577.752929688 l 1
 289.408203125 578.603515625 l 1
 286.0078125 578.603515625 l 1
 286.0078125 636.403320312 l 1
EndSplineSet
Validated: 524289
EndChar

StartChar: E
Encoding: 69 69 47
Width: 550
VWidth: 899
GlyphClass: 2
Flags: HMW
HStem: 32.5 53.55<179.687 248.112> 44.4 56.1<408.762 448.287 414.287 448.287> 314.7 52.7<228.137 260.437> 331.7 48.45<475.912 500.987> 572.25 50.15<435.537 453.812 415.137 459.337>
VStem: 113.387 65.45<72.875 112.825>
LayerCount: 2
Fore
SplineSet
424.487304688 44.400390625 m 2x4c
 414.287109375 44.400390625 l 2
 403.237304688 44.400390625 385.38671875 43.5498046875 359.037109375 41.849609375 c 0
 278.287109375 35.900390625 220.487304688 32.5 188.186523438 32.5 c 0xac
 171.186523438 32.5 159.287109375 33.349609375 148.237304688 34.2001953125 c 0
 138.88671875 34.2001953125 131.237304688 40.150390625 123.586914062 49.5 c 0
 117.63671875 57.150390625 113.38671875 67.349609375 113.38671875 78.400390625 c 0
 113.38671875 89.4501953125 119.336914062 118.349609375 130.38671875 165.099609375 c 0
 138.88671875 202.5 148.237304688 243.299804688 159.287109375 286.650390625 c 0
 170.336914062 330 179.686523438 379.299804688 190.737304688 432.849609375 c 0
 197.537109375 466.849609375 202.63671875 488.950195312 205.186523438 500 c 0
 207.737304688 511.049804688 211.987304688 527.200195312 217.936523438 548.450195312 c 0
 223.88671875 569.700195312 226.436523438 582.450195312 227.287109375 588.400390625 c 0
 230.686523438 601.150390625 235.787109375 610.5 242.586914062 617.299804688 c 0
 249.38671875 624.099609375 257.037109375 627.5 264.686523438 627.5 c 1
 265.537109375 620.700195312 267.237304688 620.700195312 268.086914062 627.5 c 0
 271.487304688 627.5 274.037109375 626.650390625 276.586914062 625.799804688 c 0
 279.13671875 624.950195312 281.686523438 622.400390625 282.537109375 619 c 0
 283.38671875 609.650390625 285.086914062 607.099609375 285.936523438 611.349609375 c 1
 287.63671875 605.400390625 290.186523438 605.400390625 291.88671875 613.049804688 c 1
 332.686523438 619 384.537109375 622.400390625 445.737304688 622.400390625 c 0
 461.88671875 622.400390625 475.487304688 621.549804688 489.936523438 621.549804688 c 0
 520.537109375 620.700195312 544.336914062 618.150390625 562.186523438 616.450195312 c 0
 571.537109375 614.75 577.487304688 612.200195312 579.186523438 609.650390625 c 0
 579.186523438 608.799804688 580.037109375 606.25 580.037109375 604.549804688 c 0
 580.037109375 602.849609375 579.186523438 599.450195312 579.186523438 596.049804688 c 0
 579.186523438 592.650390625 577.487304688 588.400390625 575.787109375 585 c 0
 571.537109375 577.349609375 567.287109375 571.400390625 561.336914062 569.700195312 c 0
 558.787109375 568 556.237304688 567.150390625 554.537109375 567.150390625 c 0
 552.836914062 567.150390625 551.13671875 568 549.436523438 568 c 0
 512.88671875 570.549804688 477.186523438 572.25 441.487304688 572.25 c 0
 429.586914062 572.25 416.836914062 571.400390625 404.086914062 571.400390625 c 0
 357.336914062 570.549804688 317.38671875 567.150390625 281.686523438 561.200195312 c 1
 279.987304688 553.549804688 276.586914062 553.549804688 274.88671875 560.349609375 c 1
 257.88671875 496.599609375 244.287109375 432 230.686523438 366.549804688 c 1
 234.936523438 360.599609375 238.336914062 360.599609375 242.586914062 367.400390625 c 1
 278.287109375 367.400390625 328.436523438 369.099609375 390.487304688 373.349609375 c 0
 453.38671875 377.599609375 488.237304688 380.150390625 496.737304688 380.150390625 c 0x1c
 505.237304688 380.150390625 510.336914062 377.599609375 512.037109375 375.900390625 c 0
 513.737304688 372.5 513.737304688 367.400390625 512.88671875 360.599609375 c 0
 511.186523438 351.25 506.936523438 343.599609375 502.686523438 339.349609375 c 0
 497.586914062 334.25 489.936523438 331.700195312 480.586914062 331.700195312 c 0
 471.237304688 331.700195312 432.13671875 329.150390625 364.987304688 323.200195312 c 0
 297.836914062 317.25 252.787109375 314.700195312 228.13671875 314.700195312 c 1xac
 225.586914062 307.049804688 221.336914062 307.049804688 219.63671875 313.849609375 c 1
 211.13671875 276.450195312 204.336914062 240.75 196.686523438 205.900390625 c 0
 184.787109375 153.200195312 178.836914062 119.200195312 178.836914062 106.450195312 c 0
 178.836914062 103.049804688 179.686523438 97.9501953125 179.686523438 92 c 0
 181.38671875 84.349609375 183.936523438 84.349609375 185.63671875 90.2998046875 c 1
 189.88671875 88.599609375 195.836914062 86.900390625 204.336914062 86.900390625 c 0
 211.987304688 86.900390625 223.88671875 86.0498046875 240.037109375 86.0498046875 c 0
 256.186523438 86.0498046875 278.287109375 86.900390625 305.487304688 87.75 c 0
 369.237304688 91.150390625 411.737304688 94.5498046875 431.287109375 98.7998046875 c 0
 438.086914062 99.650390625 443.186523438 100.5 446.586914062 100.5 c 0
 449.987304688 100.5 453.38671875 99.650390625 455.086914062 98.7998046875 c 0
 456.787109375 97.9501953125 458.487304688 96.25 459.336914062 95.400390625 c 0
 460.186523438 94.5498046875 461.037109375 92 461.037109375 89.4501953125 c 0
 461.037109375 86.900390625 461.88671875 84.349609375 461.88671875 82.650390625 c 0
 461.88671875 80.9501953125 461.037109375 77.5498046875 461.037109375 75.849609375 c 0
 459.336914062 66.5 455.086914062 58.849609375 448.287109375 52.0498046875 c 0
 444.037109375 46.099609375 437.237304688 43.5498046875 429.586914062 43.5498046875 c 0
 427.88671875 43.5498046875 426.186523438 44.400390625 424.487304688 44.400390625 c 2x4c
EndSplineSet
Validated: 524289
EndChar

StartChar: F
Encoding: 70 70 48
Width: 550
VWidth: 900
GlyphClass: 2
Flags: HMW
HStem: 324.65 51<312.267 323.317> 576.25 53.55
LayerCount: 2
Fore
SplineSet
564.716796875 625.549804688 m 0
 574.067382812 624.700195312 579.166992188 622.150390625 580.016601562 620.450195312 c 0
 581.716796875 617.900390625 582.567382812 612.799804688 581.716796875 606 c 0
 580.016601562 598.349609375 574.916992188 590.700195312 568.966796875 584.75 c 0
 563.8671875 578.799804688 557.067382812 576.25 547.716796875 576.25 c 2
 546.016601562 576.25 l 2
 517.966796875 577.950195312 489.067382812 578.799804688 459.317382812 578.799804688 c 0
 404.067382812 578.799804688 342.8671875 575.400390625 275.716796875 569.450195312 c 1
 262.1171875 512.5 252.766601562 473.400390625 247.666992188 451.299804688 c 0
 242.567382812 429.200195312 236.6171875 402 229.817382812 369.700195312 c 1
 234.067382812 363.75 239.166992188 363.75 243.416992188 371.400390625 c 1
 264.666992188 373.950195312 287.6171875 375.650390625 312.266601562 375.650390625 c 2
 330.1171875 375.650390625 l 2
 361.567382812 374.799804688 389.6171875 372.25 415.1171875 369.700195312 c 0
 440.6171875 367.150390625 460.166992188 364.599609375 474.6171875 362.049804688 c 0
 479.716796875 361.200195312 483.1171875 358.650390625 485.666992188 357.799804688 c 0
 488.216796875 356.950195312 490.766601562 355.25 490.766601562 355.25 c 2
 491.6171875 353.549804688 492.466796875 351 492.466796875 347.599609375 c 2
 492.466796875 342.5 l 2
 490.766601562 334.849609375 486.516601562 327.200195312 481.416992188 321.25 c 0
 478.016601562 316.150390625 472.067382812 313.599609375 464.416992188 313.599609375 c 2
 462.716796875 313.599609375 l 2
 448.266601562 316.150390625 426.166992188 319.549804688 398.966796875 321.25 c 0
 371.766601562 322.950195312 340.317382812 324.650390625 306.317382812 324.650390625 c 0
 274.016601562 324.650390625 247.666992188 322.099609375 225.567382812 318.700195312 c 1
 223.8671875 311.049804688 221.317382812 311.049804688 219.6171875 317.849609375 c 1
 202.6171875 226.049804688 185.6171875 141.049804688 168.6171875 62.849609375 c 0
 165.216796875 53.5 159.266601562 45.849609375 150.766601562 39.900390625 c 0
 142.266601562 33.9501953125 133.766601562 31.400390625 125.266601562 31.400390625 c 0
 124.416992188 31.400390625 122.716796875 32.25 122.716796875 32.25 c 2
 115.916992188 32.25 110.817382812 34.7998046875 108.266601562 39.0498046875 c 0
 106.567382812 40.75 105.716796875 44.150390625 105.716796875 48.400390625 c 0
 105.716796875 52.650390625 106.567382812 56.900390625 108.266601562 62 c 0
 115.916992188 86.650390625 126.1171875 135.099609375 142.266601562 205.650390625 c 0
 158.416992188 276.200195312 173.716796875 349.299804688 188.166992188 424.099609375 c 0
 195.817382812 461.5 201.766601562 487.849609375 204.317382812 500.599609375 c 0
 206.8671875 513.349609375 210.266601562 530.349609375 216.216796875 552.450195312 c 0
 220.466796875 560.950195312 224.716796875 576.25 228.966796875 598.349609375 c 0
 231.516601562 611.099609375 236.6171875 621.299804688 243.416992188 627.25 c 0
 250.216796875 633.200195312 257.8671875 636.599609375 265.516601562 636.599609375 c 2
 268.916992188 636.599609375 l 2
 273.166992188 636.599609375 275.716796875 635.75 278.266601562 634.900390625 c 0
 280.817382812 634.049804688 283.3671875 631.5 284.216796875 628.099609375 c 0
 284.216796875 618.75 285.916992188 617.049804688 286.766601562 621.299804688 c 1
 351.3671875 627.25 411.716796875 629.799804688 467.817382812 629.799804688 c 0
 506.067382812 629.799804688 538.3671875 628.099609375 564.716796875 625.549804688 c 0
EndSplineSet
Validated: 524289
EndChar

StartChar: G
Encoding: 71 71 49
Width: 550
VWidth: 901
GlyphClass: 2
Flags: HMW
HStem: 25.625 56.95<243.057 284.707 252.407 284.707> 297.625 50.15<465.332 499.757> 618.075 49.3<469.582 472.982>
VStem: 128.307 66.3<159.5 213.9>
LayerCount: 2
Fore
SplineSet
572.0078125 635.924804688 m 0
 578.807617188 631.674804688 583.057617188 627.424804688 584.7578125 624.875 c 0
 587.307617188 620.625 588.157226562 616.375 588.157226562 611.275390625 c 0
 588.157226562 604.474609375 586.45703125 595.974609375 581.357421875 586.625 c 0
 579.657226562 581.525390625 573.70703125 577.275390625 567.7578125 574.724609375 c 0
 564.357421875 573.875 561.807617188 573.025390625 560.107421875 573.025390625 c 0
 558.407226562 573.025390625 555.0078125 574.724609375 551.607421875 574.724609375 c 0
 549.057617188 575.575195312 543.107421875 579.825195312 533.7578125 587.474609375 c 0
 524.407226562 595.125 513.357421875 601.924804688 501.45703125 607.875 c 0
 489.557617188 614.674804688 478.5078125 618.075195312 467.45703125 618.075195312 c 0
 450.45703125 618.075195312 431.7578125 611.275390625 411.357421875 598.525390625 c 0
 390.95703125 585.775390625 370.557617188 567.924804688 349.307617188 544.974609375 c 0
 328.057617188 522.025390625 306.807617188 495.674804688 288.107421875 465.924804688 c 0
 269.407226562 436.174804688 251.557617188 403.025390625 236.2578125 366.474609375 c 0
 219.2578125 329.924804688 206.5078125 292.525390625 198.857421875 255.125 c 0
 195.45703125 238.125 194.607421875 221.974609375 194.607421875 205.825195312 c 0
 194.607421875 195.625 194.607421875 185.424804688 196.307617188 175.224609375 c 0
 199.70703125 148.875 209.907226562 127.625 224.357421875 109.775390625 c 0
 239.657226562 91.9248046875 256.657226562 82.5751953125 277.907226562 82.5751953125 c 0
 291.5078125 82.5751953125 305.107421875 87.6748046875 320.407226562 97.875 c 0
 335.70703125 108.075195312 351.0078125 119.974609375 363.7578125 134.424804688 c 0
 376.5078125 148.875 389.2578125 164.174804688 402.0078125 182.025390625 c 0
 414.7578125 199.875 425.807617188 217.724609375 435.157226562 234.724609375 c 0
 444.5078125 251.724609375 453.0078125 267.025390625 458.95703125 281.474609375 c 0
 460.657226562 285.724609375 463.20703125 290.825195312 464.907226562 297.625 c 1
 458.95703125 295.924804688 453.857421875 295.924804688 448.7578125 296.775390625 c 0
 417.307617188 295.075195312 386.70703125 291.674804688 355.2578125 286.575195312 c 0
 323.807617188 281.474609375 301.70703125 275.525390625 288.107421875 267.875 c 0
 285.557617188 266.174804688 283.0078125 264.474609375 281.307617188 264.474609375 c 0
 279.607421875 264.474609375 277.907226562 265.325195312 276.20703125 267.025390625 c 0
 272.807617188 270.424804688 270.2578125 274.674804688 270.2578125 279.775390625 c 2
 270.2578125 281.474609375 l 2
 271.107421875 299.325195312 282.157226562 313.775390625 303.407226562 323.974609375 c 0
 317.857421875 331.625 348.45703125 338.424804688 393.5078125 342.674804688 c 0
 427.5078125 346.075195312 454.70703125 347.775390625 475.95703125 347.775390625 c 0
 498.057617188 347.775390625 510.807617188 346.924804688 515.907226562 345.224609375 c 2
 521.0078125 341.825195312 l 2
 522.70703125 340.125 524.407226562 337.575195312 524.407226562 333.325195312 c 2
 524.407226562 330.775390625 l 2
 523.557617188 322.275390625 521.0078125 315.474609375 517.607421875 310.375 c 0
 514.20703125 305.275390625 509.95703125 301.025390625 504.0078125 299.325195312 c 0
 502.307617188 297.625 500.607421875 297.625 498.907226562 297.625 c 0
 498.057617188 291.674804688 496.357421875 285.724609375 493.807617188 278.075195312 c 0
 491.2578125 270.424804688 489.557617188 263.625 488.70703125 259.375 c 0
 484.45703125 247.474609375 478.5078125 233.875 470.857421875 217.724609375 c 0
 463.20703125 201.575195312 453.0078125 185.424804688 441.107421875 167.575195312 c 0
 429.20703125 149.724609375 416.45703125 131.875 401.157226562 114.875 c 0
 385.857421875 97.875 370.557617188 82.5751953125 354.407226562 68.974609375 c 0
 338.2578125 55.375 322.107421875 44.3251953125 304.2578125 36.6748046875 c 0
 286.407226562 29.025390625 270.2578125 25.625 254.107421875 25.625 c 2
 252.407226562 25.625 l 2
 233.70703125 25.625 216.70703125 29.025390625 200.557617188 36.6748046875 c 0
 184.407226562 44.3251953125 172.5078125 53.6748046875 162.307617188 66.4248046875 c 0
 152.107421875 79.1748046875 144.45703125 93.625 138.5078125 111.474609375 c 0
 132.557617188 129.325195312 128.307617188 148.875 128.307617188 170.125 c 0
 128.307617188 187.125 130.857421875 204.125 135.107421875 221.974609375 c 0
 145.307617188 265.325195312 158.057617188 306.974609375 175.057617188 346.924804688 c 0
 192.057617188 386.875 209.907226562 423.424804688 230.307617188 455.724609375 c 0
 249.0078125 488.025390625 269.407226562 517.775390625 291.5078125 544.974609375 c 0
 313.607421875 572.174804688 334.857421875 594.275390625 356.95703125 612.125 c 0
 379.057617188 629.974609375 400.307617188 643.575195312 420.70703125 652.924804688 c 0
 441.107421875 662.275390625 460.657226562 667.375 478.5078125 667.375 c 0
 497.20703125 667.375 520.157226562 662.275390625 543.107421875 651.224609375 c 0
 555.857421875 645.275390625 565.20703125 640.174804688 572.0078125 635.924804688 c 0
EndSplineSet
Validated: 524289
EndChar

StartChar: H
Encoding: 72 72 50
Width: 550
VWidth: 900
GlyphClass: 2
Flags: HMW
HStem: 315.3 52.7<233.528 269.653 233.528 269.653>
LayerCount: 2
Fore
SplineSet
233.528320312 315.299804688 m 1
 231.828125 308.5 230.127929688 302.549804688 229.278320312 299.150390625 c 0
 228.427734375 295.75 226.728515625 292.349609375 226.728515625 289.799804688 c 0
 210.578125 232.849609375 193.578125 157.200195312 174.877929688 62.849609375 c 0
 171.478515625 53.5 165.528320312 45.849609375 157.028320312 39.900390625 c 0
 148.528320312 33.9501953125 139.177734375 31.400390625 131.528320312 31.400390625 c 0
 130.677734375 31.400390625 128.978515625 32.25 128.978515625 32.25 c 2
 123.028320312 32.25 117.927734375 34.7998046875 114.528320312 39.0498046875 c 0
 112.828125 40.75 111.978515625 44.150390625 111.978515625 48.400390625 c 0
 111.978515625 52.650390625 112.828125 56.900390625 114.528320312 62 c 0
 118.778320312 76.4501953125 128.127929688 114.700195312 142.578125 175.900390625 c 0
 150.228515625 208.200195312 162.127929688 260.900390625 180.828125 334 c 0
 190.177734375 369.700195312 196.978515625 396.049804688 201.228515625 413.900390625 c 0
 205.478515625 431.75 210.578125 457.25 218.228515625 492.099609375 c 0
 224.177734375 521 228.427734375 537.150390625 228.427734375 540.549804688 c 0
 230.127929688 548.200195312 231.828125 557.549804688 235.228515625 570.299804688 c 0
 238.627929688 583.049804688 240.328125 592.400390625 242.028320312 598.349609375 c 0
 245.427734375 611.099609375 251.377929688 621.299804688 258.177734375 627.25 c 0
 264.978515625 633.200195312 272.627929688 636.599609375 280.278320312 636.599609375 c 1
 280.278320312 629.799804688 281.978515625 629.799804688 281.978515625 636.599609375 c 1
 288.778320312 636.599609375 293.877929688 634.900390625 297.278320312 630.650390625 c 0
 298.978515625 628.099609375 300.677734375 623.849609375 300.677734375 619.599609375 c 0
 300.677734375 615.349609375 299.828125 610.25 298.978515625 605.150390625 c 0
 298.127929688 600.049804688 293.877929688 588.150390625 288.778320312 569.450195312 c 0
 283.677734375 550.75 279.427734375 533.75 276.028320312 517.599609375 c 0
 272.627929688 501.450195312 268.377929688 480.200195312 262.427734375 449.599609375 c 0
 256.478515625 419 251.377929688 391.799804688 245.427734375 367.150390625 c 1
 249.677734375 361.200195312 252.228515625 361.200195312 256.478515625 368 c 1
 282.828125 368 310.028320312 368.849609375 338.078125 372.25 c 0
 366.127929688 375.650390625 390.778320312 379.900390625 413.728515625 383.299804688 c 0
 436.677734375 386.700195312 454.528320312 389.25 467.278320312 390.099609375 c 1
 468.978515625 399.450195312 470.677734375 407.950195312 471.528320312 415.599609375 c 0
 472.377929688 423.25 474.927734375 428.349609375 475.778320312 432.599609375 c 0
 480.877929688 449.599609375 485.127929688 472.549804688 490.228515625 503.150390625 c 0
 492.778320312 514.200195312 497.877929688 531.200195312 503.828125 555 c 0
 509.778320312 578.799804688 514.877929688 593.25 515.728515625 598.349609375 c 0
 519.127929688 611.099609375 524.228515625 621.299804688 531.877929688 627.25 c 0
 539.528320312 633.200195312 546.328125 636.599609375 553.978515625 636.599609375 c 1
 553.978515625 629.799804688 555.677734375 629.799804688 556.528320312 636.599609375 c 1
 564.177734375 636.599609375 570.127929688 634.900390625 573.528320312 630.650390625 c 0
 575.228515625 628.099609375 576.927734375 623.849609375 576.927734375 619.599609375 c 0
 576.927734375 615.349609375 576.078125 608.549804688 574.377929688 600.900390625 c 0
 572.677734375 593.25 567.578125 573.700195312 559.078125 539.700195312 c 0
 550.578125 505.700195312 543.778320312 476.799804688 537.828125 451.299804688 c 0
 531.877929688 425.799804688 524.228515625 389.25 514.028320312 341.650390625 c 0
 506.377929688 302.549804688 493.627929688 250.700195312 476.627929688 186.950195312 c 0
 460.478515625 122.349609375 451.127929688 80.7001953125 446.877929688 62.849609375 c 0
 444.328125 53.5 438.377929688 45.849609375 430.728515625 39.900390625 c 0
 423.078125 33.9501953125 415.427734375 31.400390625 407.778320312 31.400390625 c 0
 406.927734375 31.400390625 405.228515625 32.25 405.228515625 32.25 c 2
 399.278320312 32.25 394.177734375 34.7998046875 391.627929688 39.0498046875 c 0
 390.778320312 40.75 389.078125 44.150390625 389.078125 48.400390625 c 0
 389.078125 52.650390625 389.927734375 56.900390625 391.627929688 62 c 0
 413.728515625 141.049804688 434.127929688 229.450195312 454.528320312 328.049804688 c 1
 454.528320312 326.349609375 457.078125 330.599609375 457.927734375 341.650390625 c 1
 453.677734375 334 449.427734375 334 445.177734375 340.799804688 c 1
 436.677734375 340.799804688 405.228515625 336.549804688 352.528320312 328.049804688 c 0
 299.828125 319.549804688 260.728515625 315.299804688 239.478515625 315.299804688 c 2
 233.528320312 315.299804688 l 1
EndSplineSet
Validated: 524289
EndChar

StartChar: I
Encoding: 73 73 51
Width: 550
VWidth: 900
GlyphClass: 2
Flags: HMW
HStem: 38.3343 47.6<122.573 142.123> 45.1343 45.05<337.199 338.898 318.073 351.649> 581.484 50.15<263.248 264.523 264.523 268.773 263.248 301.073>
LayerCount: 2
Fore
SplineSet
371.623046875 44.2841796875 m 0x60
 368.22265625 44.2841796875 358.874023438 45.134765625 344.423828125 45.134765625 c 0
 329.973632812 45.134765625 311.2734375 44.2841796875 286.624023438 43.4345703125 c 1
 268.991210938 38.900390625 251.358398438 36.45703125 233.7265625 36.45703125 c 2
 197.373046875 40.0341796875 l 1
 163.373046875 39.1845703125 140.422851562 38.333984375 128.5234375 38.333984375 c 0xa0
 116.623046875 38.333984375 109.823242188 40.0341796875 106.422851562 43.4345703125 c 0
 104.72265625 45.134765625 103.873046875 48.5341796875 103.873046875 51.083984375 c 0
 103.873046875 52.7841796875 104.72265625 55.333984375 104.72265625 57.0341796875 c 0
 105.573242188 64.6845703125 108.97265625 72.333984375 114.922851562 77.4345703125 c 0
 120.873046875 82.5341796875 131.073242188 85.9345703125 142.123046875 85.9345703125 c 0
 165.073242188 86.7841796875 205.0234375 88.484375 262.823242188 90.1845703125 c 1x60
 290.0234375 191.333984375 313.823242188 296.734375 335.073242188 405.534179688 c 0
 340.172851562 431.034179688 342.72265625 445.484375 342.72265625 449.734375 c 0
 344.422851562 459.083984375 348.672851562 476.083984375 354.623046875 502.434570312 c 0
 356.323242188 510.083984375 358.873046875 521.984375 363.123046875 538.984375 c 0
 367.373046875 555.984375 371.623046875 566.184570312 371.623046875 568.734375 c 1
 371.623046875 566.184570312 373.323242188 569.583984375 374.172851562 580.634765625 c 1
 343.573242188 580.634765625 318.922851562 581.484375 301.073242188 581.484375 c 2
 264.5234375 581.484375 l 2
 257.72265625 581.484375 252.623046875 580.634765625 252.623046875 580.634765625 c 2
 244.123046875 580.634765625 238.172851562 582.333984375 235.623046875 586.583984375 c 0
 233.922851562 588.284179688 233.073242188 591.684570312 233.073242188 595.934570312 c 2
 233.073242188 601.884765625 l 2
 233.922851562 609.534179688 238.172851562 616.333984375 244.123046875 622.284179688 c 0
 250.073242188 628.234375 257.72265625 631.634765625 268.7734375 631.634765625 c 0
 310.422851562 632.484375 348.672851562 633.333984375 384.373046875 633.333984375 c 0
 454.922851562 633.333984375 514.422851562 630.784179688 563.72265625 624.833984375 c 0
 570.5234375 624.833984375 575.623046875 622.284179688 579.0234375 619.734375 c 0
 582.422851562 617.184570312 584.123046875 613.784179688 584.123046875 608.684570312 c 0
 584.123046875 606.984375 583.2734375 604.434570312 583.2734375 602.734375 c 0
 581.573242188 595.083984375 576.47265625 586.583984375 569.672851562 578.934570312 c 0
 567.123046875 575.534179688 563.72265625 572.984375 559.47265625 571.284179688 c 0
 556.922851562 570.434570312 554.373046875 569.583984375 552.672851562 569.583984375 c 0
 550.97265625 569.583984375 550.123046875 570.434570312 548.422851562 570.434570312 c 0
 533.97265625 572.134765625 493.172851562 575.534179688 427.72265625 579.784179688 c 1
 423.47265625 556.833984375 420.073242188 541.534179688 416.672851562 533.034179688 c 0
 403.073242188 478.634765625 390.323242188 420.833984375 379.2734375 360.484375 c 0
 371.623046875 320.534179688 360.573242188 269.534179688 346.123046875 210.034179688 c 0
 331.672851562 150.534179688 322.323242188 110.583984375 318.073242188 90.1845703125 c 1
 329.123046875 90.1845703125 l 2
 348.672851562 90.1845703125 388.623046875 89.333984375 447.2734375 89.333984375 c 0
 454.922851562 89.333984375 460.873046875 87.634765625 461.72265625 85.9345703125 c 0xa0
 462.573242188 84.234375 463.422851562 80.833984375 463.422851562 76.583984375 c 2
 463.422851562 69.7841796875 l 2
 461.72265625 61.2841796875 457.47265625 54.484375 453.22265625 48.5341796875 c 0
 451.5234375 45.134765625 448.97265625 43.4345703125 446.422851562 42.583984375 c 0
 443.873046875 41.734375 441.323242188 40.0341796875 439.623046875 40.0341796875 c 0
 437.922851562 40.0341796875 435.373046875 40.884765625 433.672851562 40.884765625 c 0
 420.922851562 42.583984375 401.373046875 44.2841796875 371.623046875 44.2841796875 c 0x60
EndSplineSet
Validated: 524289
EndChar

StartChar: J
Encoding: 74 74 52
Width: 550
VWidth: 898
GlyphClass: 2
Flags: HMW
HStem: 19.075 65.45<263.752 270.127> 568.175 55.25<553.602 568.902> 580.075 50.15<267.152 270.552 270.552 272.252 267.152 319.852>
VStem: 130.302 53.55<176.325 193.75 184.4 186.1>
LayerCount: 2
Fore
SplineSet
290.1015625 93.025390625 m 0xb0
 295.202148438 98.974609375 300.301757812 107.474609375 306.251953125 119.375 c 0
 317.301757812 144.025390625 330.051757812 183.974609375 342.801757812 239.224609375 c 0
 345.3515625 250.275390625 354.702148438 290.224609375 368.301757812 359.924804688 c 0
 381.901367188 427.075195312 396.3515625 500.174804688 414.202148438 578.375 c 1
 374.251953125 580.075195312 343.651367188 580.075195312 319.8515625 580.075195312 c 2
 270.551757812 580.075195312 l 2
 261.202148438 580.075195312 256.952148438 579.224609375 256.952148438 579.224609375 c 2
 248.452148438 579.224609375 242.501953125 580.924804688 239.952148438 585.174804688 c 0
 238.251953125 586.875 235.702148438 590.275390625 235.702148438 594.525390625 c 0
 235.702148438 596.224609375 236.551757812 598.775390625 236.551757812 600.474609375 c 0
 237.401367188 608.125 241.651367188 614.924804688 247.6015625 620.875 c 0
 253.551757812 626.825195312 262.051757812 630.224609375 272.251953125 630.224609375 c 0
 313.901367188 631.075195312 352.151367188 631.924804688 387.001953125 631.924804688 c 0
 456.702148438 631.924804688 516.202148438 629.375 565.501953125 623.424804688 c 0xd0
 572.301757812 623.424804688 577.401367188 620.875 580.801757812 618.325195312 c 0
 584.202148438 615.775390625 585.051757812 612.375 585.051757812 607.275390625 c 0
 585.051757812 605.575195312 584.202148438 603.025390625 584.202148438 601.325195312 c 0
 582.501953125 593.674804688 578.251953125 585.174804688 571.452148438 577.525390625 c 0
 568.051757812 574.125 565.501953125 571.575195312 561.251953125 569.875 c 0
 559.551757812 569.025390625 556.151367188 568.174804688 554.452148438 568.174804688 c 0
 552.751953125 568.174804688 550.202148438 569.025390625 548.501953125 569.025390625 c 0
 530.651367188 571.575195312 501.751953125 574.974609375 458.401367188 576.674804688 c 1
 453.301757812 554.575195312 447.3515625 527.375 441.401367188 493.375 c 0
 436.301757812 455.974609375 430.3515625 425.375 424.401367188 402.424804688 c 0
 419.301757812 375.224609375 413.3515625 345.474609375 406.551757812 311.474609375 c 0
 399.751953125 277.474609375 392.952148438 248.575195312 386.151367188 223.924804688 c 0
 371.702148438 172.924804688 356.401367188 132.125 341.952148438 101.525390625 c 0
 327.501953125 70.9248046875 314.751953125 48.8251953125 302.001953125 36.9248046875 c 0
 289.251953125 25.025390625 276.501953125 19.0751953125 263.751953125 19.0751953125 c 0
 248.452148438 19.0751953125 233.151367188 22.474609375 219.551757812 28.4248046875 c 0
 205.1015625 34.375 193.202148438 42.875 183.8515625 53.0751953125 c 0
 174.501953125 63.275390625 166.001953125 75.1748046875 158.3515625 87.9248046875 c 0
 150.702148438 100.674804688 145.6015625 113.424804688 141.3515625 126.174804688 c 0
 137.1015625 138.924804688 133.702148438 149.125 132.8515625 158.474609375 c 0
 132.001953125 167.825195312 130.301757812 172.924804688 130.301757812 176.325195312 c 2
 130.301757812 183.974609375 l 2
 130.301757812 188.224609375 132.001953125 193.325195312 133.702148438 199.275390625 c 0
 135.401367188 205.224609375 137.952148438 211.174804688 140.501953125 216.275390625 c 0
 143.051757812 221.375 146.452148438 226.474609375 151.551757812 229.875 c 0
 156.651367188 233.275390625 162.6015625 236.674804688 168.551757812 237.525390625 c 0
 171.1015625 237.525390625 173.651367188 238.375 175.3515625 238.375 c 0
 179.6015625 238.375 183.001953125 236.674804688 184.702148438 234.125 c 0
 186.401367188 231.575195312 188.1015625 227.325195312 188.1015625 223.075195312 c 0
 188.1015625 221.375 187.251953125 217.974609375 187.251953125 215.424804688 c 0
 185.551757812 207.775390625 183.8515625 198.424804688 183.8515625 189.075195312 c 0
 183.8515625 179.724609375 185.551757812 169.525390625 188.1015625 157.625 c 0
 190.651367188 145.724609375 194.901367188 133.825195312 200.8515625 122.775390625 c 0
 206.801757812 111.724609375 217.001953125 103.224609375 229.751953125 95.5751953125 c 0
 241.651367188 87.9248046875 255.251953125 84.525390625 272.251953125 84.525390625 c 0
 278.202148438 84.525390625 285.001953125 87.0751953125 290.1015625 93.025390625 c 0xb0
EndSplineSet
Validated: 524289
EndChar

StartChar: K
Encoding: 75 75 53
Width: 550
VWidth: 902
GlyphClass: 2
Flags: HMW
HStem: 33.65 17.85G<134.265 138.94> 643.1 17G<547.79 550.34>
LayerCount: 2
Fore
SplineSet
115.140625 60.849609375 m 0
 115.140625 63.400390625 115.990234375 67.650390625 117.689453125 71.900390625 c 0
 125.33984375 97.400390625 136.389648438 145.849609375 152.540039062 216.400390625 c 0
 167.83984375 287.799804688 182.290039062 360.900390625 197.58984375 436.549804688 c 0
 205.240234375 473.950195312 211.189453125 499.450195312 213.740234375 512.200195312 c 0
 215.439453125 524.950195312 220.540039062 543.650390625 226.490234375 568.299804688 c 0
 232.439453125 592.099609375 236.689453125 607.400390625 237.540039062 613.349609375 c 0
 240.939453125 628.650390625 246.040039062 639.700195312 252.83984375 647.349609375 c 0
 259.639648438 655 266.439453125 659.25 274.08984375 659.25 c 1
 274.939453125 666.049804688 276.639648438 666.049804688 276.639648438 659.25 c 1
 283.439453125 659.25 288.540039062 656.700195312 291.939453125 649.900390625 c 0
 293.639648438 645.650390625 294.490234375 640.549804688 294.490234375 632.900390625 c 0
 294.490234375 628.650390625 293.639648438 625.25 292.790039062 621 c 0
 290.240234375 607.400390625 283.439453125 577.650390625 272.389648438 531.75 c 0
 261.33984375 485 250.290039062 436.549804688 239.240234375 384.700195312 c 1
 359.939453125 502.849609375 l 2
 394.790039062 539.400390625 428.790039062 571.700195312 464.490234375 598.049804688 c 0
 492.540039062 621.849609375 510.389648438 637.150390625 518.040039062 643.099609375 c 0
 525.689453125 650.75 533.33984375 655.849609375 539.290039062 657.549804688 c 0
 543.540039062 659.25 546.939453125 660.099609375 548.639648438 660.099609375 c 0
 552.040039062 660.099609375 555.439453125 656.700195312 557.990234375 649.900390625 c 0
 559.689453125 645.650390625 560.540039062 640.549804688 560.540039062 634.599609375 c 0
 560.540039062 626.950195312 552.889648438 617.599609375 538.439453125 605.700195312 c 0
 528.240234375 595.5 494.240234375 564.900390625 435.58984375 513.049804688 c 1
 381.189453125 458.650390625 330.189453125 408.5 283.439453125 363.450195312 c 1
 287.689453125 355.799804688 l 2
 299.58984375 336.25 320.83984375 303.950195312 351.439453125 260.599609375 c 0
 382.040039062 214.700195312 407.540039062 175.599609375 428.790039062 142.450195312 c 0
 450.021484375 112.725585938 462.772460938 93.18359375 464.491210938 85.51953125 c 0
 464.392578125 76.4482421875 462.665039062 67.423828125 458.541015625 60 c 0
 455.140625 52.349609375 450.890625 45.5498046875 444.940429688 41.2998046875 c 0
 438.991210938 37.0498046875 434.741210938 34.5 430.491210938 34.5 c 0
 423.690429688 34.5 417.741210938 41.2998046875 412.640625 55.75 c 0
 409.241210938 63.400390625 395.640625 82.9501953125 372.690429688 114.400390625 c 0
 349.741210938 145.849609375 325.090820312 181.549804688 298.741210938 218.950195312 c 0
 272.390625 260.599609375 253.690429688 292.900390625 242.640625 315.849609375 c 2
 230.741210938 338.799804688 l 1
 221.390625 295.450195312 l 1
 178.041015625 72.75 l 2
 174.640625 60 168.690429688 50.650390625 160.190429688 43.849609375 c 0
 151.690429688 37.0498046875 143.190429688 33.650390625 134.690429688 33.650390625 c 0
 133.840820312 33.650390625 132.140625 34.5 132.140625 34.5 c 2
 125.340820312 34.5 120.241210938 37.900390625 117.690429688 45.5498046875 c 0
 115.991210938 49.7998046875 115.140625 54.900390625 115.140625 60.849609375 c 0
EndSplineSet
Validated: 524289
EndChar

StartChar: L
Encoding: 76 76 54
Width: 550
VWidth: 900
GlyphClass: 2
Flags: HMW
HStem: 37.275 53.5468
LayerCount: 2
Fore
SplineSet
466.024414062 111.224609375 m 0
 468.575195312 103.575195312 469.423828125 95.9248046875 468.57421875 87.4248046875 c 0
 466.874023438 79.775390625 462.624023438 72.974609375 458.374023438 68.724609375 c 0
 454.124023438 64.474609375 445.624023438 60.224609375 433.723632812 58.525390625 c 0
 397.173828125 50.875 346.173828125 45.775390625 280.723632812 42.375 c 0
 213.57421875 38.974609375 162.57421875 37.275390625 128.57421875 37.275390625 c 0
 121.774414062 37.275390625 116.673828125 39.8251953125 114.124023438 44.0751953125 c 0
 112.423828125 45.775390625 111.57421875 49.1748046875 111.57421875 53.4248046875 c 0
 111.57421875 57.6748046875 112.423828125 61.9248046875 114.124023438 67.025390625 c 0
 125.173828125 93.375 135.374023438 125.674804688 146.423828125 164.775390625 c 0
 165.973632812 225.125 183.82421875 283.775390625 199.124023438 339.875 c 0
 206.774414062 366.224609375 216.973632812 412.974609375 229.723632812 480.125 c 0
 242.473632812 547.275390625 249.274414062 584.674804688 250.124023438 590.625 c 0
 253.524414062 604.224609375 258.624023438 614.424804688 265.423828125 620.375 c 0
 272.223632812 626.325195312 279.024414062 629.724609375 285.82421875 629.724609375 c 1
 286.673828125 622.924804688 288.374023438 622.924804688 288.374023438 629.724609375 c 1
 294.32421875 629.724609375 299.423828125 627.174804688 302.82421875 622.924804688 c 0
 304.524414062 621.224609375 305.374023438 617.825195312 305.374023438 612.724609375 c 0
 305.374023438 607.625 304.524414062 602.525390625 303.673828125 598.275390625 c 0
 300.274414062 582.125 296.024414062 560.025390625 289.223632812 531.974609375 c 0
 281.57421875 489.474609375 273.07421875 453.775390625 264.57421875 424.875 c 0
 255.223632812 380.674804688 246.723632812 343.275390625 238.223632812 312.674804688 c 0
 233.124023438 288.875 224.624023438 254.025390625 211.874023438 208.974609375 c 0
 198.274414062 163.924804688 188.923828125 128.224609375 182.973632812 102.724609375 c 0
 182.474609375 96.2275390625 181.680664062 92.375 180.938476562 90.8212890625 c 1
 192.874023438 90.7646484375 200.12890625 89.974609375 204.224609375 89.974609375 c 0
 241.625 89.974609375 285.825195312 93.375 336.825195312 99.3251953125 c 0
 391.224609375 105.275390625 430.325195312 111.224609375 451.575195312 116.325195312 c 1
 457.524414062 116.325195312 l 2
 461.774414062 116.325195312 464.325195312 114.625 466.024414062 111.224609375 c 0
EndSplineSet
Validated: 524289
EndChar

StartChar: M
Encoding: 77 77 55
Width: 550
VWidth: 901
GlyphClass: 2
Flags: HMW
HStem: 615.944 17G
VStem: 111.293 0.85<39.2187 43.0437> 431.743 52.7<84.6937 122.944 95.3187 111.894>
LayerCount: 2
Fore
SplineSet
278.743164062 45.59375 m 1
 272.793945312 45.59375 268.543945312 47.2939453125 265.993164062 50.693359375 c 0
 263.443359375 54.943359375 260.893554688 60.8935546875 260.893554688 67.693359375 c 0
 260.893554688 94.8935546875 265.143554688 156.943359375 272.793945312 254.693359375 c 0
 280.443359375 352.443359375 287.243164062 445.943359375 294.893554688 536.043945312 c 0
 296.59375 570.043945312 300.84375 602.34375 303.393554688 632.943359375 c 1
 294.893554688 604.893554688 285.543945312 575.143554688 276.193359375 542.84375 c 0
 263.443359375 501.193359375 250.693359375 451.043945312 235.393554688 394.09375 c 0
 226.893554688 360.943359375 215.84375 320.143554688 202.243164062 269.994140625 c 0
 194.59375 241.943359375 186.943359375 216.443359375 180.143554688 193.494140625 c 0
 171.643554688 167.994140625 164.84375 147.59375 160.59375 132.293945312 c 0
 156.34375 117.84375 152.09375 106.793945312 151.243164062 100.84375 c 0
 147.84375 82.994140625 141.893554688 68.5439453125 133.393554688 58.34375 c 0
 125.743164062 48.1435546875 119.793945312 43.0439453125 112.143554688 43.0439453125 c 1
 112.143554688 35.3935546875 111.293945312 35.3935546875 111.293945312 43.0439453125 c 1
 110.443359375 43.0439453125 108.743164062 44.744140625 107.893554688 45.59375 c 0
 104.493164062 47.2939453125 101.943359375 56.6435546875 101.943359375 72.7939453125 c 0
 101.943359375 79.59375 104.493164062 88.943359375 107.043945312 100.84375 c 0
 108.743164062 107.643554688 111.293945312 118.693359375 116.393554688 134.84375 c 0
 121.493164062 151.84375 129.143554688 173.943359375 138.493164062 202.84375 c 0
 147.84375 233.443359375 156.34375 256.393554688 160.59375 272.543945312 c 2
 200.543945312 401.744140625 l 2
 207.34375 426.393554688 214.993164062 456.994140625 226.043945312 492.693359375 c 0
 246.443359375 562.393554688 261.743164062 603.193359375 271.09375 617.643554688 c 0
 277.043945312 628.693359375 283.84375 637.193359375 293.193359375 642.293945312 c 0
 302.543945312 647.393554688 311.043945312 649.943359375 317.84375 649.943359375 c 2
 321.243164062 649.943359375 l 1
 322.09375 649.943359375 l 2
 329.743164062 649.943359375 335.693359375 648.244140625 339.943359375 643.994140625 c 0
 344.193359375 638.893554688 345.043945312 630.393554688 345.043945312 618.494140625 c 2
 345.043945312 611.693359375 l 2
 345.043945312 566.643554688 335.693359375 462.09375 316.993164062 298.893554688 c 0
 308.493164062 219.84375 303.393554688 167.994140625 301.693359375 142.494140625 c 1
 307.643554688 133.994140625 314.443359375 132.293945312 320.393554688 138.244140625 c 1
 342.493164062 222.393554688 362.893554688 297.193359375 382.443359375 364.34375 c 0
 396.893554688 412.793945312 413.043945312 461.244140625 430.893554688 509.693359375 c 0
 448.743164062 557.293945312 462.34375 593.84375 474.243164062 619.34375 c 0
 477.643554688 627.84375 482.743164062 634.643554688 488.693359375 639.744140625 c 0
 495.493164062 644.84375 501.443359375 648.244140625 506.543945312 649.09375 c 0
 511.643554688 649.09375 516.743164062 649.943359375 519.293945312 649.943359375 c 2
 526.09375 649.943359375 l 1
 529.493164062 649.943359375 l 1
 539.693359375 649.943359375 l 2
 541.393554688 649.943359375 545.643554688 649.09375 549.043945312 648.244140625 c 0
 552.443359375 646.543945312 554.993164062 643.994140625 555.84375 642.293945312 c 0
 556.693359375 640.59375 557.543945312 637.193359375 558.393554688 632.09375 c 0
 559.243164062 628.693359375 560.09375 624.443359375 560.09375 619.34375 c 2
 560.09375 616.793945312 l 2
 558.393554688 598.943359375 545.643554688 515.643554688 520.993164062 366.043945312 c 0
 497.193359375 217.293945312 484.443359375 133.143554688 484.443359375 112.744140625 c 0
 484.443359375 77.8935546875 475.09375 56.6435546875 458.09375 48.1435546875 c 0
 454.693359375 46.443359375 452.143554688 45.59375 449.59375 45.59375 c 0
 447.043945312 45.59375 442.793945312 47.2939453125 440.243164062 49.84375 c 0
 434.293945312 54.09375 431.743164062 65.994140625 431.743164062 84.693359375 c 2
 431.743164062 88.943359375 l 2
 431.743164062 134.84375 459.793945312 301.443359375 515.043945312 588.744140625 c 1
 509.09375 597.244140625 501.443359375 598.943359375 494.643554688 594.693359375 c 1
 460.643554688 507.994140625 435.143554688 430.643554688 416.443359375 360.09375 c 0
 397.743164062 294.643554688 379.043945312 231.744140625 359.493164062 173.09375 c 0
 339.943359375 114.443359375 327.193359375 78.744140625 320.393554688 65.994140625 c 0
 314.443359375 52.3935546875 300.84375 45.59375 282.143554688 45.59375 c 1
 281.293945312 38.7939453125 279.59375 38.7939453125 278.743164062 45.59375 c 1
EndSplineSet
Validated: 524289
EndChar

StartChar: N
Encoding: 78 78 56
Width: 550
VWidth: 901
GlyphClass: 2
Flags: HMW
HStem: 41.175 17.85G<121.888 127.413> 633.625 17G<278.713 281.263 559.213 565.163>
LayerCount: 2
Fore
SplineSet
488.23828125 212.875 m 0
 476.337890625 164.424804688 466.98828125 127.875 460.188476562 104.924804688 c 0
 452.538085938 81.125 447.438476562 66.6748046875 444.887695312 60.724609375 c 0
 438.938476562 46.275390625 427.038085938 39.474609375 408.337890625 39.474609375 c 1
 407.48828125 32.6748046875 405.788085938 32.6748046875 404.938476562 39.474609375 c 1
 398.98828125 39.474609375 394.73828125 41.1748046875 392.188476562 45.4248046875 c 0
 388.788085938 49.6748046875 386.23828125 55.625 386.23828125 62.4248046875 c 0
 384.538085938 73.474609375 378.587890625 98.974609375 367.538085938 137.224609375 c 2
 334.387695312 260.474609375 l 2
 323.337890625 302.125 311.438476562 348.025390625 300.387695312 399.875 c 0
 289.337890625 451.724609375 282.538085938 495.924804688 279.137695312 531.625 c 0
 277.438476562 557.125 274.038085938 581.775390625 272.337890625 606.424804688 c 1
 268.087890625 583.474609375 263.837890625 558.825195312 259.587890625 533.325195312 c 0
 249.387695312 471.275390625 238.337890625 412.625 226.438476562 359.075195312 c 0
 213.688476562 304.674804688 200.087890625 249.424804688 185.637695312 193.325195312 c 0
 171.188476562 138.924804688 162.688476562 104.924804688 160.98828125 93.025390625 c 0
 158.438476562 74.3251953125 152.48828125 60.724609375 144.837890625 53.0751953125 c 0
 138.038085938 45.4248046875 131.23828125 41.1748046875 123.587890625 41.1748046875 c 0
 120.188476562 41.1748046875 117.637695312 42.875 115.938476562 44.5751953125 c 0
 114.23828125 46.275390625 112.538085938 53.9248046875 112.538085938 65.8251953125 c 0
 112.538085938 72.625 114.23828125 81.125 116.788085938 92.1748046875 c 0
 118.48828125 104.075195312 130.387695312 148.275390625 149.087890625 224.775390625 c 2
 199.23828125 427.924804688 l 2
 212.837890625 486.575195312 224.73828125 542.674804688 234.087890625 595.375 c 0
 235.788085938 606.424804688 238.337890625 615.775390625 242.587890625 623.424804688 c 0
 245.98828125 631.924804688 250.23828125 637.875 255.337890625 642.125 c 0
 261.288085938 645.525390625 265.538085938 648.075195312 269.788085938 648.924804688 c 0
 274.038085938 649.775390625 277.438476562 650.625 279.98828125 650.625 c 0
 282.538085938 650.625 285.938476562 649.775390625 287.637695312 649.775390625 c 0
 295.288085938 649.775390625 301.23828125 648.075195312 305.48828125 643.825195312 c 0
 308.887695312 639.575195312 311.438476562 631.075195312 311.438476562 619.174804688 c 0
 313.137695312 582.625 327.587890625 512.924804688 353.087890625 410.075195312 c 0
 377.73828125 307.224609375 399.837890625 224.775390625 418.538085938 161.875 c 0
 421.938476562 149.125 425.337890625 138.075195312 428.73828125 129.575195312 c 1
 431.288085938 138.924804688 434.688476562 149.974609375 437.23828125 163.575195312 c 0
 449.98828125 217.125 467.837890625 296.174804688 489.087890625 399.025390625 c 0
 512.038085938 501.875 524.788085938 569.025390625 528.188476562 603.025390625 c 0
 529.887695312 615.775390625 534.137695312 626.825195312 540.938476562 636.174804688 c 0
 548.587890625 645.525390625 555.387695312 650.625 563.038085938 650.625 c 0
 567.288085938 650.625 571.538085938 649.775390625 573.23828125 648.924804688 c 0
 574.938476562 648.075195312 577.48828125 646.375 578.337890625 644.674804688 c 0
 579.188476562 640.424804688 580.038085938 633.625 580.038085938 623.424804688 c 0
 580.038085938 621.724609375 579.188476562 615.775390625 578.337890625 607.275390625 c 0
 578.337890625 597.924804688 568.137695312 552.875 549.438476562 472.125 c 0
 531.587890625 388.825195312 511.188476562 302.125 488.23828125 212.875 c 0
EndSplineSet
Validated: 524289
EndChar

StartChar: O
Encoding: 79 79 57
Width: 550
VWidth: 900
GlyphClass: 2
Flags: HMW
HStem: 29.775 61.2<263.704 264.554> 601.825 37.4<411.604 412.879>
VStem: 143.854 59.5<167.9 204.45> 489.804 55.25<489.625 503.225 489.625 504.075>
LayerCount: 2
Fore
SplineSet
523.803710938 362.125 m 0
 517.00390625 329.825195312 508.50390625 297.525390625 499.154296875 264.375 c 0
 489.803710938 231.224609375 480.454101562 205.724609375 471.104492188 187.025390625 c 0
 459.204101562 160.674804688 446.454101562 138.575195312 432.854492188 119.875 c 0
 420.104492188 102.025390625 406.50390625 86.724609375 393.75390625 74.8251953125 c 0
 381.00390625 62.9248046875 367.404296875 54.4248046875 352.104492188 47.625 c 0
 336.803710938 40.8251953125 321.50390625 35.724609375 306.204101562 33.1748046875 c 0
 290.904296875 30.625 273.904296875 29.775390625 255.204101562 29.775390625 c 0
 227.154296875 29.775390625 202.50390625 39.974609375 183.803710938 58.6748046875 c 0
 165.104492188 77.375 152.354492188 102.875 146.404296875 136.025390625 c 0
 144.704101562 148.775390625 143.854492188 161.525390625 143.854492188 174.275390625 c 0
 143.854492188 187.025390625 147.25390625 210.825195312 153.204101562 246.525390625 c 0
 154.053710938 249.075195312 155.75390625 254.174804688 156.604492188 260.974609375 c 0
 162.553710938 286.474609375 166.803710938 306.875 171.053710938 322.174804688 c 0
 175.303710938 337.474609375 180.404296875 357.875 188.053710938 383.375 c 0
 202.50390625 430.974609375 221.204101562 476.025390625 245.854492188 518.525390625 c 0
 264.553710938 554.224609375 290.053710938 583.125 324.053710938 605.224609375 c 0
 358.053710938 627.325195312 393.75390625 639.224609375 429.454101562 639.224609375 c 0
 447.303710938 639.224609375 464.303710938 634.974609375 480.454101562 627.325195312 c 0
 496.604492188 619.674804688 509.354492188 608.625 520.404296875 593.325195312 c 0
 531.454101562 578.025390625 538.25390625 558.474609375 542.50390625 534.674804688 c 0
 544.204101562 522.775390625 545.053710938 510.025390625 545.053710938 496.424804688 c 0
 545.053710938 482.825195312 543.354492188 468.375 541.654296875 452.224609375 c 0
 537.404296875 424.174804688 530.604492188 394.424804688 523.803710938 362.125 c 0
310.454101562 96.9248046875 m 0
 324.053710938 101.174804688 337.654296875 107.125 351.25390625 115.625 c 0
 364.854492188 124.125 376.75390625 136.025390625 388.654296875 150.474609375 c 0
 400.553710938 164.924804688 410.75390625 181.075195312 420.104492188 199.775390625 c 0
 424.354492188 206.575195312 430.303710938 223.575195312 437.954101562 251.625 c 0
 445.604492188 278.825195312 454.954101562 311.125 464.303710938 348.525390625 c 0
 473.654296875 385.924804688 481.303710938 423.325195312 487.25390625 459.025390625 c 0
 488.954101562 470.075195312 489.803710938 481.125 489.803710938 491.325195312 c 0
 489.803710938 516.825195312 485.553710938 539.775390625 474.50390625 558.474609375 c 0
 465.154296875 574.625 454.104492188 585.674804688 440.50390625 593.325195312 c 0
 431.154296875 599.275390625 419.25390625 601.825195312 406.50390625 601.825195312 c 0
 378.454101562 601.825195312 352.104492188 589.924804688 328.303710938 565.275390625 c 0
 305.354492188 542.325195312 285.803710938 510.025390625 268.803710938 468.375 c 0
 245.854492188 413.974609375 227.154296875 349.375 212.704101562 275.424804688 c 0
 206.75390625 241.424804688 203.354492188 215.075195312 203.354492188 193.825195312 c 0
 203.354492188 169.174804688 206.75390625 148.775390625 212.704101562 132.625 c 0
 216.954101562 120.724609375 224.604492188 110.525390625 234.803710938 102.875 c 0
 245.00390625 95.224609375 256.904296875 90.974609375 270.50390625 90.974609375 c 0
 284.104492188 90.974609375 296.854492188 92.6748046875 310.454101562 96.9248046875 c 0
EndSplineSet
Validated: 524289
EndChar

StartChar: P
Encoding: 80 80 58
Width: 550
VWidth: 900
GlyphClass: 2
Flags: HMW
HStem: 245.6 58.65<293.473 313.023 291.773 324.073> 595.8 38.25<379.748 418.423>
VStem: 236.948 2.55 488.548 52.7<507.825 508.675>
LayerCount: 2
Fore
SplineSet
288.797851562 588.150390625 m 1
 285.397460938 572 280.297851562 549.049804688 272.647460938 518.450195312 c 0
 264.998046875 487.849609375 257.34765625 456.400390625 250.547851562 424.099609375 c 0
 243.748046875 391.799804688 236.09765625 356.950195312 228.447265625 321.25 c 1
 236.09765625 317.849609375 l 2
 254.797851562 308.5 277.748046875 304.25 305.797851562 304.25 c 0
 320.248046875 304.25 332.998046875 305.950195312 345.748046875 308.5 c 0
 358.498046875 311.049804688 369.547851562 314.450195312 379.748046875 318.700195312 c 0
 389.947265625 322.950195312 398.447265625 328.900390625 406.947265625 335.700195312 c 0
 415.447265625 342.5 423.947265625 349.299804688 429.897460938 356.099609375 c 0
 435.84765625 362.900390625 441.797851562 371.400390625 447.748046875 380.75 c 0
 453.697265625 390.099609375 457.947265625 397.75 461.34765625 405.400390625 c 0
 464.748046875 413.049804688 468.147460938 421.549804688 471.547851562 430.900390625 c 0
 474.947265625 440.25 478.34765625 448.75 480.047851562 454.700195312 c 0
 481.748046875 460.650390625 484.297851562 469.150390625 485.998046875 478.5 c 0
 487.697265625 487.849609375 488.547851562 497.200195312 488.547851562 504.849609375 c 0
 488.547851562 512.5 488.547851562 518.450195312 487.697265625 524.400390625 c 0
 485.147460938 538.849609375 479.197265625 549.900390625 471.547851562 559.25 c 0
 463.897460938 568.599609375 456.248046875 575.400390625 445.197265625 581.349609375 c 0
 435.84765625 587.299804688 425.647460938 591.549804688 416.297851562 593.25 c 0
 406.947265625 594.950195312 397.59765625 595.799804688 388.248046875 595.799804688 c 0
 371.248046875 595.799804688 338.947265625 593.25 288.797851562 588.150390625 c 1
151.09765625 169.950195312 m 0
 157.047851562 188.650390625 162.1484375 214.150390625 167.248046875 246.450195312 c 0
 173.198242188 269.400390625 179.998046875 300 185.948242188 336.549804688 c 0
 193.598632812 372.25 198.698242188 402 203.798828125 425.799804688 c 0
 212.965820312 466.63671875 224.583984375 515.64453125 238.654296875 572.823242188 c 0
 238.103515625 573.341796875 237.403320312 575.944335938 236.947265625 580.5 c 1
 236.09765625 574.549804688 234.397460938 576.25 234.397460938 583.900390625 c 0
 234.397460938 585.599609375 233.547851562 587.299804688 233.547851562 589 c 0
 233.547851562 590.700195312 234.397460938 594.099609375 235.248046875 595.799804688 c 0
 236.947265625 601.75 239.498046875 606.849609375 243.748046875 611.099609375 c 0
 247.998046875 615.349609375 252.248046875 617.900390625 255.647460938 618.75 c 0
 273.498046875 623 298.998046875 627.25 332.998046875 629.799804688 c 0
 366.998046875 632.349609375 389.947265625 634.049804688 402.697265625 634.049804688 c 0
 434.147460938 634.049804688 463.047851562 628.099609375 485.998046875 615.349609375 c 0
 508.947265625 602.599609375 525.09765625 583.049804688 534.447265625 558.400390625 c 0
 539.547851562 543.950195312 541.248046875 528.650390625 541.248046875 511.650390625 c 0
 541.248046875 504 540.397460938 488.700195312 536.998046875 465.75 c 0
 529.34765625 435.150390625 518.297851562 407.099609375 502.147460938 379.900390625 c 0
 485.998046875 352.700195312 468.998046875 328.900390625 448.59765625 309.349609375 c 0
 429.897460938 289.799804688 407.797851562 273.650390625 383.998046875 262.599609375 c 0
 360.197265625 251.549804688 336.397460938 245.599609375 311.748046875 245.599609375 c 0
 275.197265625 245.599609375 246.297851562 248.150390625 227.59765625 254.099609375 c 1
 223.34765625 248.150390625 220.797851562 249.849609375 217.397460938 257.5 c 1
 211.447265625 226.049804688 207.197265625 199.700195312 203.797851562 178.450195312 c 0
 200.397460938 157.200195312 194.447265625 118.950195312 185.09765625 62 c 0
 183.397460938 53.5 177.447265625 46.7001953125 168.947265625 41.599609375 c 0
 160.447265625 36.5 152.797851562 33.9501953125 144.297851562 33.9501953125 c 0
 135.797851562 33.9501953125 129.84765625 36.5 125.59765625 40.75 c 0
 123.897460938 42.4501953125 122.197265625 45.849609375 122.197265625 49.25 c 0
 122.197265625 52.650390625 123.897460938 56.0498046875 125.59765625 62 c 0
 131.547851562 85.7998046875 140.047851562 121.5 151.09765625 169.950195312 c 0
EndSplineSet
Validated: 524289
EndChar

StartChar: Q
Encoding: 81 81 59
Width: 550
VWidth: 886
GlyphClass: 2
Flags: HMW
HStem: 2.92507 17G 15.6751 61.2 587.725 37.4
VStem: 143.661 60.35 289.861 39.1<160.6 203.1> 486.211 55.25
LayerCount: 2
Fore
SplineSet
293.26171875 76.875 m 1x7c
 305.162109375 76.875 l 1
 302.611328125 89.625 l 2
 296.662109375 114.275390625 292.412109375 133.825195312 290.711914062 148.275390625 c 0
 290.711914062 153.375 289.861328125 158.474609375 289.861328125 162.724609375 c 0
 289.861328125 183.974609375 295.811523438 200.125 308.561523438 209.474609375 c 0
 312.811523438 212.875 317.061523438 214.575195312 320.461914062 214.575195312 c 0
 322.162109375 214.575195312 323.01171875 214.575195312 324.711914062 212.875 c 0
 326.412109375 211.174804688 328.961914062 206.075195312 328.961914062 200.125 c 0
 330.662109375 172.075195312 338.311523438 140.625 348.51171875 105.775390625 c 2
 351.912109375 93.025390625 l 1
 361.26171875 99.8251953125 l 2
 386.76171875 117.674804688 408.01171875 145.724609375 422.461914062 183.125 c 0
 426.711914062 191.625 431.811523438 208.625 438.611328125 234.974609375 c 0
 446.26171875 261.325195312 453.912109375 293.625 463.26171875 332.724609375 c 0
 472.611328125 371.825195312 479.412109375 409.224609375 483.662109375 444.924804688 c 0
 485.361328125 455.974609375 486.211914062 467.025390625 486.211914062 477.224609375 c 0
 486.211914062 505.275390625 481.111328125 528.224609375 470.061523438 546.924804688 c 0
 461.561523438 561.375 451.361328125 572.424804688 437.76171875 579.224609375 c 0
 428.412109375 585.174804688 416.51171875 587.724609375 403.76171875 587.724609375 c 0
 375.711914062 587.724609375 349.361328125 575.825195312 325.561523438 552.875 c 0
 301.76171875 529.924804688 283.061523438 497.625 266.061523438 455.974609375 c 0
 239.711914062 395.625 221.01171875 331.025390625 209.961914062 260.474609375 c 0
 206.561523438 240.075195312 204.01171875 221.375 204.01171875 203.525390625 c 0
 204.01171875 192.474609375 205.711914062 181.424804688 207.412109375 170.375 c 0
 211.662109375 142.325195312 219.311523438 120.224609375 232.912109375 103.224609375 c 0
 247.361328125 85.375 264.361328125 76.875 285.611328125 76.875 c 2
 293.26171875 76.875 l 1x7c
385.912109375 -143.275390625 m 0
 379.961914062 -141.575195312 375.712890625 -137.32421875 373.162109375 -129.673828125 c 0
 368.912109375 -119.473632812 361.262695312 -99.923828125 351.0625 -72.7236328125 c 0
 340.862304688 -45.5244140625 330.662109375 -14.923828125 319.612304688 19.92578125 c 1xbc
 317.912109375 12.2763671875 313.662109375 12.2763671875 311.112304688 18.2255859375 c 1
 298.362304688 16.5263671875 284.762695312 15.67578125 270.3125 15.67578125 c 0
 250.762695312 15.67578125 232.912109375 19.076171875 215.912109375 26.7255859375 c 0
 198.912109375 34.3759765625 186.162109375 44.576171875 175.962890625 57.326171875 c 0
 165.762695312 70.076171875 157.262695312 87.076171875 151.3125 104.92578125 c 0
 145.362304688 122.776367188 143.662109375 143.17578125 143.662109375 165.276367188 c 0
 143.662109375 187.375976562 145.362304688 210.326171875 149.612304688 233.276367188 c 0
 170.862304688 342.076171875 203.162109375 431.326171875 243.112304688 501.026367188 c 0
 261.8125 536.725585938 288.162109375 565.625976562 322.162109375 589.42578125 c 0
 356.162109375 613.225585938 391.012695312 625.125976562 426.712890625 625.125976562 c 0
 464.962890625 625.125976562 494.712890625 611.526367188 515.962890625 583.475585938 c 0
 527.012695312 569.026367188 533.8125 550.326171875 538.0625 525.67578125 c 0
 539.762695312 512.92578125 541.462890625 499.326171875 541.462890625 484.875976562 c 0
 541.462890625 470.42578125 539.762695312 455.125976562 538.0625 438.125976562 c 0
 532.962890625 399.026367188 523.612304688 352.276367188 510.012695312 297.026367188 c 0
 496.412109375 241.776367188 481.962890625 198.42578125 469.212890625 167.826171875 c 0
 445.412109375 109.17578125 413.962890625 66.67578125 374.012695312 42.0263671875 c 1
 371.825195312 34.736328125 369.012695312 32.447265625 367.184570312 35.6962890625 c 1
 381.360351562 -0.12890625 395.551757812 -35.1357421875 410.561523438 -69.3251953125 c 0
 414.811523438 -86.3251953125 419.912109375 -95.6748046875 424.162109375 -98.224609375 c 0
 424.162109375 -99.9248046875 425.01171875 -102.474609375 425.01171875 -104.174804688 c 0
 425.01171875 -105.875 425.01171875 -108.424804688 424.162109375 -110.974609375 c 0
 422.461914062 -116.924804688 418.211914062 -122.875 413.961914062 -127.974609375 c 0
 409.711914062 -133.075195312 407.162109375 -138.174804688 403.76171875 -139.875 c 0
 399.51171875 -142.424804688 395.26171875 -144.125 391.01171875 -144.125 c 0
 389.311523438 -144.125 387.611328125 -143.275390625 385.912109375 -143.275390625 c 0
EndSplineSet
Validated: 524289
EndChar

